<?xml version="1.0" standalone="no"?>
<!DOCTYPE svg PUBLIC "-//W3C//DTD SVG 20010904//EN"
 "http://www.w3.org/TR/2001/REC-SVG-20010904/DTD/svg10.dtd">
<svg version="1.0" xmlns="http://www.w3.org/2000/svg"
 width="920.000000pt" height="920.000000pt" viewBox="0 0 920.000000 920.000000"
 preserveAspectRatio="xMidYMid meet">
<metadata>
Created by potrace 1.14, written by Peter Selinger 2001-2017
</metadata>
<g transform="translate(0.000000,920.000000) scale(0.100000,-0.100000)"
fill="#000000" stroke="none">
<path d="M1590 8064 c-221 -48 -408 -236 -455 -459 -22 -106 -22 -6084 0
-6190 42 -200 186 -364 393 -444 l67 -26 3058 -3 c3391 -2 3130 -8 3277 64
102 50 213 161 264 265 61 125 66 166 66 604 l0 390 -152 130 c-84 72 -214
183 -290 247 l-138 118 -153 -154 c-209 -210 -379 -321 -621 -401 -259 -87
-561 -93 -826 -18 -241 69 -504 227 -632 380 -91 108 -153 248 -184 409 -23
124 -15 355 16 473 82 310 258 527 580 716 44 26 80 50 80 53 0 4 -28 34 -62
67 -161 158 -264 370 -289 595 -27 237 59 461 247 640 98 94 157 137 259 188
286 142 612 160 838 45 127 -64 240 -159 300 -254 58 -92 79 -161 85 -283 l5
-109 -69 55 c-226 181 -446 280 -653 295 -161 11 -313 -49 -424 -166 -93 -99
-128 -175 -135 -294 -8 -158 29 -268 131 -388 117 -138 789 -714 1857 -1591
l225 -185 3 2349 c2 2605 7 2422 -64 2568 -51 104 -161 213 -264 263 -148 72
109 67 -3248 66 -2552 -1 -3037 -3 -3092 -15z"/>
<path d="M6120 3918 c-141 -94 -271 -240 -340 -383 -57 -117 -73 -197 -67
-325 11 -203 57 -312 186 -440 126 -125 256 -187 444 -210 317 -40 748 113
995 353 28 28 52 55 52 59 0 10 -1171 980 -1190 985 -9 2 -45 -15 -80 -39z"/>
</g>
</svg>
