<svg xmlns="http://www.w3.org/2000/svg" width="169.148" height="26.348" xmlns:v="https://vecta.io/nano"><path d="M16.632 7.28l-.98 2.24h-5.236l.476-.084A15.04 15.04 0 0 0 9.94 7.28zm9.044 12.488v-2.744H14.788v-1.232h8.4v-2.408h-8.4v-1.26h9.716v-2.6h-5.492l1.316-2.24h5.26V4.568h-3.64l2.184-3.528-3.5-.84c-.453 1.408-1.044 2.768-1.764 4.06l1.008.308h-2.488V.004h-3.136v4.564H12.18V.004H9.072v4.564H6.524l1.372-.5C7.329 2.679 6.615 1.354 5.768.116l-2.856.98a25.1 25.1 0 0 1 1.736 3.468H.896V7.28h5.852l-.336.056a12.58 12.58 0 0 1 .952 2.18h-5.32v2.6h9.464v1.26H3.444v2.408h8.064v1.232H.812v2.744h8.036C6.095 21.324 3.107 22.433 0 23.044a15.53 15.53 0 0 1 2.128 2.772 26.56 26.56 0 0 0 9.38-4.536v4.872h3.28v-5.036a23.9 23.9 0 0 0 9.4 4.728c.623-1.096 1.377-2.113 2.244-3.028-3.125-.448-6.136-1.484-8.876-3.052zm20.132-11.62h4.9v2.016h-4.9zm0-4.508h4.9v2.016h-4.9zm13.16 2.016h-4.9V3.64h4.9zm0 4.508h-4.9V8.148h4.9zm3.472 2.688V.952H42.476v11.9h4.452c-2.221 1.83-4.794 3.183-7.56 3.976.83.829 1.563 1.749 2.184 2.744 1.804-.646 3.518-1.519 5.1-2.6v1.004c0 1.792-.56 4.144-5.236 5.656a13.14 13.14 0 0 1 2.3 2.716c5.564-2.044 6.372-5.572 6.372-8.232v-1.932h-2.38c1.255-.966 2.384-2.085 3.36-3.332h2.884a16.9 16.9 0 0 0 3.28 3.364h-2.1v9.852h3.472v-8.852c1.473.956 3.064 1.718 4.732 2.268.619-1.037 1.362-1.994 2.212-2.852-2.801-.69-5.419-1.979-7.672-3.78zm22.148-2.492c-.724-.005-1.421.279-1.936.788s-.806 1.203-.808 1.928.293 1.418.808 1.928 1.212.793 1.936.788a2.72 2.72 0 0 0 2.716-2.716 2.72 2.72 0 0 0-2.716-2.716zm32.032 10v-1.684h2.576v1.68zm2.576-5.516v1.672h-2.576v-1.68zm-.084-9.828a28.51 28.51 0 0 1-.728 3.416l1.428.308h-4l1.26-.308a12.48 12.48 0 0 0-.728-3.416zm-9.352 1.988h-1.848V3.976h1.848zm-1.848 11.784V15.4h1.848v3.052zm1.848-6.072h-1.848V9.692h1.848zm17.192-.364a26.43 26.43 0 0 1-1.008 3.08q-.168-1.89-.252-4.116h4.2v-2.58h-4.312c-.056-1.876-.084-3.836-.084-5.908a19.2 19.2 0 0 1 2.212 4.088l2.3-1.288c-.681-1.611-1.597-3.111-2.72-4.452l-1.792.952v-2.1h-2.908l.168 8.708h-2.24l1.12-3.36-1.9-.364h2.408V2.576h-2.856V.056h-2.828v2.52h-2.752V1.064h-9.6v2.912h1.092v15.26a19.93 19.93 0 0 1-1.652.252l.56 3.052 5.656-1.176v4.788h2.772V3.976h1.064v1.04h2.212l-1.624.388a15.04 15.04 0 0 1 .616 3.332h-1.764v2.58h9.828a74.12 74.12 0 0 0 .756 8.288 15.29 15.29 0 0 1-1.848 2.156v-9.212h-7.7v11.7h2.548v-1.624h4.2a16.86 16.86 0 0 1-1.988 1.4c.702.665 1.339 1.396 1.9 2.184 1.357-.931 2.59-2.032 3.668-3.276.672 2.044 1.6 3.164 2.856 3.192.952 0 2.268-.98 2.968-5.516a9.74 9.74 0 0 1-2.156-1.848c-.112 2.212-.336 3.5-.672 3.5-.336-.028-.644-.784-.9-2.128 1.374-2.239 2.421-4.664 3.108-7.2zm29.9 3.332v-1.432h2.492v1.428zm0-4.76h2.492v1.372h-2.492zm8.26 0v1.372h-2.576v-1.38zm0 4.76h-2.576v-1.432h2.576zm-2.572 7.36v-1.26h5.572v-2.52h-5.572v-1.288h5.572v-9.38h-5.572V7.448h6.02V4.872h-6.02v-1.4a54.8 54.8 0 0 0 5.964-.756l-1.9-2.492a95.73 95.73 0 0 1-13.272 1.148 8.77 8.77 0 0 1 .728 2.492 181.28 181.28 0 0 0 5.292-.168v1.176h-6.3v2.576h6.3v1.148h-5.376v6.776c-.616-.728-2.8-3-3.528-3.612v-.812h3V7.84h-3V3.892a29.2 29.2 0 0 0 3.332-1.064L151.568.28c-2.797 1.098-5.709 1.878-8.68 2.324a11.54 11.54 0 0 1 .924 2.548 57.62 57.62 0 0 0 3.416-.56V7.84h-4v3.108h3.556a27.36 27.36 0 0 1-4.144 7.5 16.53 16.53 0 0 1 1.54 3.164c1.249-1.711 2.275-3.574 3.052-5.544v10.056h3.22v-10.92c.623.904 1.184 1.849 1.68 2.828l1.848-2.52v2.464h5.376v1.288h-5.572v2.52h5.572v1.26h-7.14v2.632h16.94v-2.632z" fill="#fff"/></svg>