<svg xmlns="http://www.w3.org/2000/svg" width="329.536" height="31.04" xmlns:v="https://vecta.io/nano"><path d="M14.688 31.04c2.284-1.067 4.389-2.481 6.24-4.192 1.408 2.24 3.072 4.028 5.408 4.028 1.6 0 3.36-.544 5.088-6.272l-2.816-3.9c-.608 2.112-1.312 4.512-2.5 4.512-.672 0-1.344-1.216-1.824-2.3 2.243-3.351 3.919-7.048 4.96-10.944l-4.604-1.636a31.5 31.5 0 0 1-2.176 6.656c-.469-2.527-.779-5.082-.928-7.648h9.184V4.736h-2.56l1.7-.992a22.27 22.27 0 0 0-4-3.744l-3.652 1.984a20.2 20.2 0 0 1 2.912 2.752h-3.812L21.244.32h-4.9l.192 4.416H2.56v12.9c.033 3.341-.852 6.628-2.56 9.5l4.16 3.872c3.104-5.344 3.168-12.256 3.168-12.992v-1.824h3.488a44.15 44.15 0 0 1-.352 5.76c-.256 1.024-.608 1.024-1.088 1.024H7.2l.832 4.96h3.04a4.04 4.04 0 0 0 .96-.1zm-7.36-19.164V9.348h9.408c.189 4.3.931 8.558 2.208 12.668a20.65 20.65 0 0 1-4.256 3.328c.9-3.232.9-11.872.9-13.472zm57.6 13.788c-3.744-1.12-6.4-2.144-9.248-4.544h8.828v-4.352H51.68V15.36h10.628V1.248H36.576V15.36H47.04v1.408H34.308v4.352h8.672a25.59 25.59 0 0 1-9.12 4.448l2.464 4.8c4.039-1.739 7.685-4.275 10.72-7.456v7.84h4.64v-7.808a29.18 29.18 0 0 0 10.624 7.488zM47.04 5.12v1.664h-5.888V5.12zm0 4.8v1.792h-5.888V9.92zm10.656-4.8v1.664H51.68V5.12zm0 4.8v1.792H51.68V9.92zm32.352 20.896a20.19 20.19 0 0 0 2.848-2.784c1.007 1.06 2.173 1.956 3.456 2.656l2.336-4.224c-1.146-.694-2.237-1.475-3.264-2.336 1.7-3.648 2.112-8.9 2.272-11.072h-9.824v-7.36H92.8c-.1 2.176-.128 2.4-1.152 2.4h-2.624l.768 3.872h4.288c1.239.033 2.356-.745 2.752-1.92.416-1.216.7-6.528.672-8.768h-14.08v29.344h4.448v-2.912zm-2.176-12.288a18.95 18.95 0 0 0 2.368 5.984 16.13 16.13 0 0 1-2.368 2.364zm5.568-1.44c-.225 1.211-.557 2.4-.992 3.552-.54-.93-1.001-1.904-1.376-2.912l-3.2.608v-1.248zM72.992 2.24h-4.32v4.256h4.32v1.792h-5.084v4.128h1.632a22.9 22.9 0 0 1 .576 2.88h-2.08v4.288h4.96V21.6h-4.32v4.384h4.32v4.64h4.732v-4.64h4.58V21.6h-4.58v-2.016h5.056v-4.288h-1.76c.256-1.056.416-1.792.64-2.88h1.244V8.288h-5.18V6.496h4.38V2.24h-4.38V.476h-4.736zm4.224 10.176c-.064.512-.128 1.408-.416 2.88h-2.528c-.1-.416-.48-2.432-.576-2.88zm39.52-3.136l-1.312-.384c-.227 1.412-.569 2.804-1.024 4.16V7.808h-3.584V5.536h4.292v-4.26H101.44v4.256h4.256v2.272h-3.488v22.948h3.04v-1.276h6.272v1.084h2.88v-2.464l2.528 2.752c1.328-2.201 2.189-4.652 2.528-7.2a53.04 53.04 0 0 0 .608-6.912v-1.28c.347.923.648 1.863.9 2.816l1.024-.544v11.548h3.168V14.528c.64 1.632.9 2.56 1.152 3.392l.864-.448V30.56h3.808V.476h-3.812v10.272c-.512-.96-.7-1.248-.992-1.76l-1.024.7V1.176h-3.168v9.9c-.264-.662-.597-1.295-.992-1.888l-.928.576V.476h-3.328zm-8.864 2.048h1.024v5.632c0 .576 0 1.824 1.312 1.824h1.312v1.7h-6.272v-3.008l1.44 1.728c.768-1.184 1.184-2.048 1.184-4.9zm6.528 6.4l1.12.736a8.97 8.97 0 0 0 1.216-2.688c-.003 3.699-.799 7.355-2.336 10.72zm-2.88 6.148v1.76h-6.272v-1.76zm-5.184-10.144c.063 1.216-.324 2.412-1.088 3.36v-5.76h1.088zm2.5-8.192v2.272h-1.028V5.536zm2.688 5.792v4.256c-.928 0-1.024 0-1.024-.576v-3.68zm36.352 8.192h-10.532v3.968h10.528v1.952h-12.8v4.508h30.272V25.44h-12.576v-1.952H163.2V19.52h-10.368v-2.144h-3.2v-4.96h2.656V8.192h-2.656v-2.5h2.144V1.276h-16v4.416h2.4v2.5h-3.1v4.224h2.848c-.288 1.152-.8 2.3-3.392 4l4.32 2.912a10.91 10.91 0 0 0 3.616-6.912h2.592v6.208h2.816zm-2.82-13.828v2.5h-2.5v-2.5zm11.52 12.544h5.248c2.816 0 2.816-2.912 2.816-3.616V.476h-4.7v12.352c0 .512 0 .96-.768.96h-1.536V1.76h-4.448v12.7h2.62zm24.672-12.736a26.03 26.03 0 0 1-2.624 11.04c-2.19 4.419-5.924 7.882-10.496 9.732l3.232 4.544c5.148-2.884 10.464-7.944 12.48-15.012 1.99 6.438 6.44 11.832 12.384 15.008l3.2-4.64c-1.952-.928-7.3-3.456-10.048-8.992a29.16 29.16 0 0 1-2.944-11.68V.544h-5.184zm35.008 21.312a38.57 38.57 0 0 0 7.84-9.184v7.392c0 .864-.224 1.056-1.216 1.056h-4.288l.736 4.7h6.816c.512 0 2.816-.192 2.816-3.2V10.276h3.548V5.732h-3.552V.452h-4.864v5.28h-7.712v4.544h7.584c-2.144 3.9-6.432 9.6-10.912 12.64zm-12.992-1.664c1.572-2.054 2.873-4.302 3.872-6.688v12.32h4.64V18.336c.543.972 1.186 1.883 1.92 2.72l2.944-3.84c-1.943-1.408-3.595-3.179-4.864-5.216v-1.792h3.584v-4.48h-3.584V.448h-4.64v5.28h-4.8v4.48h4.7a22.8 22.8 0 0 1-5.376 9.088zm50.784-17.984h-8.256v-5.5h-5.12v5.5h-4.8v4.8h4.8v7.648h5.12v-7.648h8.256v2.976c0 3.52-.352 8.736-12.384 10.08l1.952 4.736c11.9-1.92 15.68-6.688 15.68-14.816v-2.976h4.992v-4.8h-4.992v-5.6h-5.248zm14.848 5.76v5.348h28.224v-5.344zm50.624-4.992c2.649-.361 5.276-.862 7.872-1.5L324.8 1.764c-6.944 2.208-14.272 2.72-21.568 2.72l.96 4.544a81.51 81.51 0 0 0 10.208-.48v3.3h-12.352v4.672h12.288c-.192 1.92-.32 3.328-2.016 4.992-2.752 2.688-7.936 3.456-9.472 3.68l2.144 4.512c12.608-2.4 14.176-8.48 14.4-13.184h10.144v-4.672H319.52z" fill="#424242"/></svg>