<svg xmlns="http://www.w3.org/2000/svg" width="284.205" height="20.768" xmlns:v="https://vecta.io/nano"><path d="M4.249.217A14.08 14.08 0 0 0 0 10.493a14.08 14.08 0 0 0 4.249 10.275h3.794c-3.066-2.523-4.814-6.306-4.748-10.276C3.229 6.522 4.977 2.739 8.043.216zm6.07 2.383v3.382h12.53v9.192H10.102v3.4h16.411V2.6zm28.464 2.493a28.6 28.6 0 0 0-7.111-3.122l-1.561 2.948a28.58 28.58 0 0 1 6.829 3.36zm-7.219 14.656c7.414-1.062 14.113-3.4 17.473-14.72L45.763 3.4c-2.471 8.74-6.915 11.948-15.348 12.62zm20.7-18.21v3.208h14.874V1.539zM50.53 7.045v3.208h7.934l-.022.369c-.235 4.078-2.251 5.659-7.217 6.417l1.41 3.061c6.526-1.24 9.04-4.1 9.39-9.5l.022-.347h6.829V7.045zm32.279 3.9a34.64 34.64 0 0 0 5.029-4.618l-2.645-2.059a24 24 0 0 1-6.068 5.487 27.95 27.95 0 0 1-7.176 3.3l1.691 2.688c2.084-.653 4.085-1.548 5.962-2.666v7.176h3.208zm17.755-5.853a28.6 28.6 0 0 0-7.111-3.122l-1.561 2.948a28.58 28.58 0 0 1 6.829 3.36zm-7.217 14.657c7.414-1.062 14.113-3.4 17.473-14.72L107.547 3.4c-2.471 8.74-6.916 11.948-15.348 12.62zm28.508-16.215a33.67 33.67 0 0 0-6.677-2.124l-1.236 2.927a31.22 31.22 0 0 1 6.547 2.363zm6.872 0a18.7 18.7 0 0 0-.954-3.317l-1.929.3c.374 1.117.657 2.262.845 3.425zm3.057-.477a17.99 17.99 0 0 0-1-3.057l-1.886.3a16.1 16.1 0 0 1 .954 3.143zM119.86 8.78a31.77 31.77 0 0 0-6.5-2.3l-1.149 2.948c2.205.617 4.341 1.459 6.373 2.515zm-5.463 11.034c8.671-1.149 13.419-4.011 16.714-13.7l-3.165-1.648c-2.821 9.278-7.154 10.926-14.521 11.641zm20.768-13.961v2.992h5.333v7.241h-6.048v3.034h15.37v-3.035h-6.135V8.844h5.333V5.852zm27.185-.759a28.6 28.6 0 0 0-7.111-3.122l-1.561 2.948a28.58 28.58 0 0 1 6.829 3.36zm-7.219 14.655c7.414-1.062 14.113-3.4 17.473-14.72L169.33 3.4c-2.471 8.74-6.915 11.948-15.348 12.62zm28.572-16.085a28.27 28.27 0 0 0-6.764-2.19l-1.236 2.883c2.301.519 4.529 1.32 6.634 2.385zm-1.951 5.2c-2.054-1.064-4.239-1.851-6.5-2.341l-1.214 2.9a29.15 29.15 0 0 1 6.4 2.536zm-5.614 10.95c8.151-.976 13.441-3.685 16.866-13.918l-3.252-1.561c-2.883 9.712-7.587 11.143-14.568 11.75zm18.187-11.143v3.62h19.12v-3.62zm32.756-3.9h-5.593V1.042h-3.463v3.729h-3.252v3.252h3.252V13.2h3.469V8.019h5.593v2.016c0 2.385-.238 5.918-8.39 6.829l1.322 3.208c8.064-1.3 10.622-4.531 10.622-10.037V8.019h3.382V4.767h-3.382V.973h-3.555zm8.433 3.9v3.62h19.12v-3.62zm32.669-3.382a51.41 51.41 0 0 0 5.333-1.019l-1.756-3.165a48.04 48.04 0 0 1-14.611 1.843l.65 3.078a55.22 55.22 0 0 0 6.915-.325v2.233h-8.368V11.1h8.325a4.57 4.57 0 0 1-1.366 3.382c-1.864 1.821-5.376 2.341-6.417 2.493l1.452 3.057c8.541-1.626 9.6-5.745 9.755-8.932h6.872V7.935h-6.785zm11.773 15.479a14.08 14.08 0 0 0 4.249-10.276A14.08 14.08 0 0 0 279.956.216h-3.794c3.066 2.523 4.814 6.306 4.748 10.276.066 3.97-1.682 7.753-4.748 10.276z" fill="#424242"/></svg>