<svg xmlns="http://www.w3.org/2000/svg" width="354.72" height="30.368" xmlns:v="https://vecta.io/nano"><path d="M5.376 2.048H0v17.568h5.376zm15.456-.544h-5.408V15.52c0 6.5-4.8 8.224-13.792 8.832l1.92 4.928c8.54-.96 17.28-2.852 17.28-14.528zm11.552.448v4.736h21.952V1.952zm-2.56 8.128v4.736h11.712l-.032.544c-.352 6.016-3.328 8.352-10.656 9.468l2.08 4.512c9.632-1.82 13.344-6.044 13.856-14.012l.032-.512h10.076V10.08zm32.256 2.4v5.348h28.224v-5.344zm33.248-4.96v4.928h11.456v.8a10.39 10.39 0 0 1-2.976 7.616c-2.205 1.948-4.835 3.352-7.68 4.1l2.944 4.32c3.04-.96 12.992-4.1 12.992-16.832h10.72V7.524h-10.656V1.188h-5.312v6.336zm32.352 4.96v5.348h28.224v-5.344zm45.376 6.592h-10.528v3.968h10.528v1.952h-12.8v4.512h30.272v-4.512h-12.576V23.04h10.432v-3.968h-10.368v-2.144h-3.2v-4.96h2.656V7.744h-2.656v-2.5h2.144V.828h-16v4.416h2.4v2.5h-3.1v4.224h2.848c-.288 1.152-.8 2.3-3.392 4l4.32 2.912a10.91 10.91 0 0 0 3.616-6.912h2.592v6.208h2.816zM170.24 5.248v2.5h-2.5v-2.5zm11.52 12.544h5.248c2.816 0 2.816-2.912 2.816-3.616V.028h-4.7V12.38c0 .512 0 .96-.768.96h-1.536V1.312h-4.448v12.7h2.62zm24.672-12.736a26.03 26.03 0 0 1-2.624 11.04c-2.19 4.419-5.924 7.882-10.496 9.732l3.232 4.544c5.148-2.884 10.464-7.944 12.48-15.012 1.99 6.438 6.44 11.832 12.384 15.008l3.2-4.64c-1.952-.928-7.3-3.456-10.048-8.992a29.16 29.16 0 0 1-2.944-11.68V.096h-5.184zm35.008 21.312a38.57 38.57 0 0 0 7.84-9.184v7.392c0 .864-.224 1.056-1.216 1.056h-4.288l.736 4.7h6.816c.512 0 2.816-.192 2.816-3.2V9.828h3.548V5.284h-3.552V.004h-4.864v5.28h-7.712v4.544h7.584c-2.144 3.9-6.432 9.6-10.912 12.64zm-12.992-1.664c1.572-2.054 2.873-4.302 3.872-6.688v12.32h4.64V17.888c.543.972 1.186 1.883 1.92 2.72l2.944-3.84c-1.943-1.408-3.595-3.179-4.864-5.216V9.76h3.584V5.28h-3.584V0h-4.64v5.28h-4.8v4.48h4.7a22.8 22.8 0 0 1-5.376 9.088zM279.232 6.72h-8.256v-5.5h-5.12v5.5h-4.8v4.8h4.8v7.648h5.12V11.52h8.256v2.976c0 3.52-.352 8.736-12.384 10.08l1.952 4.736c11.9-1.92 15.68-6.688 15.68-14.816V11.52h4.992v-4.8h-4.992v-5.6h-5.248zm14.848 5.76v5.348h28.224v-5.344zm50.624-4.992c2.649-.361 5.276-.862 7.872-1.5l-2.592-4.672c-6.944 2.208-14.272 2.72-21.568 2.72l.96 4.544a81.51 81.51 0 0 0 10.208-.48v3.3h-12.352v4.672h12.288c-.192 1.92-.32 3.328-2.016 4.992-2.752 2.688-7.936 3.456-9.472 3.68l2.144 4.512c12.608-2.4 14.176-8.48 14.4-13.184h10.144V11.4h-10.016z" fill="#424242"/></svg>