<svg xmlns="http://www.w3.org/2000/svg" width="115.359" height="115.974" xmlns:v="https://vecta.io/nano"><style><![CDATA[.C{mix-blend-mode:multiply;isolation:isolate}]]></style><defs><linearGradient id="A" x1=".5" x2=".5" y2="1"><stop offset="0" stop-color="#fff"/><stop offset="1" stop-color="#f5f5f5"/></linearGradient><linearGradient id="B" x1=".5" y1="1" x2=".5"><stop offset="0" stop-color="#fff"/><stop offset=".753" stop-color="#fcfbfb"/><stop offset="1" stop-color="#eaeaea"/></linearGradient><linearGradient id="C" x1=".5" x2=".5" y2="1"><stop offset="0" stop-color="#fff"/><stop offset=".753" stop-color="#fcfbfb"/><stop offset="1" stop-color="#ededed"/></linearGradient><filter id="D" x="20.219" y="37.787" width="74.806" height="45.489" filterUnits="userSpaceOnUse"><feOffset dy="2"/><feGaussianBlur stdDeviation="2.5" result="A"/><feFlood flood-color="#ce5a50" flood-opacity=".51"/><feComposite operator="in" in2="A"/><feComposite in="SourceGraphic"/></filter><filter id="E" x="40.266" y="56.159" width="34.713" height="38.225" filterUnits="userSpaceOnUse"><feOffset dy="1"/><feGaussianBlur stdDeviation="2" result="A"/><feFlood flood-color="#ce5a50" flood-opacity=".51"/><feComposite operator="in" in2="A"/><feComposite in="SourceGraphic"/></filter></defs><g transform="translate(-190.457 -9765.603)"><ellipse cx="248.261" cy="9828.712" rx="50.166" ry="49.761" fill="url(#A)"/><path d="M40,79.994A40,40,0,1,0,0,40,40,40,0,0,0,40,79.994Z" transform="matrix(.866025 -.5 .5 .866025 196.542 9812.299)" opacity=".51" fill="url(#B)"/><path class="C" d="M40.508,0A40.508,40.508,0,1,1,0,40.508,40.507,40.507,0,0,1,40.508,0Z" transform="matrix(-.866025 -.5 .5 -.866025 260.618 9876.271)" fill="url(#C)"/></g><g transform="translate(27.719 43.287)"><g transform="translate(-27.72 -43.29)" filter="url(#D)"><path d="M427.8,99.958l-.009.008h-8.346v3.6h10.487a5.5,5.5,0,0,1,2.228-1.616,8.927,8.927,0,0,1,3.12-.572h.159q.2-.007.413,0h4.519q.212-.007.413,0h.159a8.922,8.922,0,0,1,3.119.572,5.493,5.493,0,0,1,2.228,1.616h10.487q0-.461,0-.923,0-1.336-.008-2.674h-8.339l-.009-.008q.047-1.267.78-1.456l5.88-1.719,1.687,1.44q0-.357,0-.716v-.04a1.438,1.438,0,0,1,.43-.986,1.394,1.394,0,0,1,1.026-.414,1.378,1.378,0,0,1,1.019.414,1.4,1.4,0,0,1,.334.557,1.335,1.335,0,0,1,.079.469v.724l1.7-1.449,5.881,1.719q.734.189.779,1.456l-.008.008h-8.348v3.6h1.273a1.409,1.409,0,0,1,1.019.43,1.375,1.375,0,0,1,.43,1.011,1.4,1.4,0,0,1-.223.763,1.95,1.95,0,0,1-1.067.692L449.223,109.3l4.321,9.047a7.433,7.433,0,0,1,.612,1.751,5.651,5.651,0,0,1-2.593,6.183,1.444,1.444,0,1,1-1.671-2.355,3.011,3.011,0,0,0,1.4-3.127,5.9,5.9,0,0,0-.461-1.457l-4.488-9.35-1.241.3v4.583l-6.986-4.042-6.987,4.042v-4.583l-1.241-.3-4.488,9.35a5.919,5.919,0,0,0-.461,1.457,3.01,3.01,0,0,0,1.4,3.127,1.444,1.444,0,1,1-1.671,2.355,5.65,5.65,0,0,1-2.593-6.183,7.452,7.452,0,0,1,.613-1.751l4.321-9.047-11.872-2.841a1.95,1.95,0,0,1-1.066-.692,1.4,1.4,0,0,1-.223-.763,1.376,1.376,0,0,1,.43-1.011,1.409,1.409,0,0,1,1.027-.43h1.265q0-.461,0-.923,0-1.336-.008-2.674H408.22l-.008-.008q.046-1.267.78-1.456l5.88-1.719,1.687,1.44q0-.357,0-.716v-.04a1.441,1.441,0,0,1,.43-.986,1.393,1.393,0,0,1,1.026-.414,1.377,1.377,0,0,1,1.018.414,1.409,1.409,0,0,1,.334.557,1.347,1.347,0,0,1,.08.469v.724l1.694-1.449,5.88,1.719Q427.757,98.69,427.8,99.958Z" transform="translate(-380.49 -52.78)" fill="#ce5248" fill-rule="evenodd"/></g><g transform="translate(-27.723 -43.288)" filter="url(#E)"><path d="M462.665,134.613l-3.053,1.761,9.019,5.209v4.045l3.042-1.75v-4.056Zm13.16,2.818v13.107l-11.357,6.553-11.356-6.553v-13.1l11.356-6.575Zm-20.376,1.345v10.417l9.019,5.209V143.963l-9-5.2-.01-.011Z" transform="translate(-406.85 -69.71)" fill="#ce5248" fill-rule="evenodd"/></g></g></svg>