<svg xmlns="http://www.w3.org/2000/svg" width="115.359" height="115.974" xmlns:v="https://vecta.io/nano"><style><![CDATA[.C{mix-blend-mode:multiply;isolation:isolate}]]></style><defs><linearGradient id="A" x1=".5" x2=".5" y2="1"><stop offset="0" stop-color="#fff"/><stop offset="1" stop-color="#f5f5f5"/></linearGradient><linearGradient id="B" x1=".5" y1="1" x2=".5"><stop offset="0" stop-color="#fff"/><stop offset=".753" stop-color="#fcfbfb"/><stop offset="1" stop-color="#eaeaea"/></linearGradient><linearGradient id="C" x1=".5" x2=".5" y2="1"><stop offset="0" stop-color="#fff"/><stop offset=".753" stop-color="#fcfbfb"/><stop offset="1" stop-color="#ededed"/></linearGradient><filter id="D" x="25.515" y="32.577" width="65.399" height="59.14" filterUnits="userSpaceOnUse"><feOffset dy="2"/><feGaussianBlur stdDeviation="2.5" result="A"/><feFlood flood-color="#ce5a50" flood-opacity=".502"/><feComposite operator="in" in2="A"/><feComposite in="SourceGraphic"/></filter></defs><g transform="translate(-190.457 -9765.603)"><ellipse cx="248.261" cy="9828.712" rx="50.166" ry="49.761" fill="url(#A)"/><path d="M40,79.994A40,40,0,1,0,0,40,40,40,0,0,0,40,79.994Z" transform="matrix(.866025 -.5 .5 .866025 196.542 9812.299)" opacity=".51" fill="url(#B)"/><path class="C" d="M40.508,0A40.508,40.508,0,1,1,0,40.508,40.507,40.507,0,0,1,40.508,0Z" transform="matrix(-.866025 -.5 .5 -.866025 260.618 9876.271)" fill="url(#C)"/></g><g transform="translate(.005 -.003)" filter="url(#D)"><path d="M115.607 498.478l3.957 3.513-14.5 12.84L98.479 509h-.009l-1.316-1.162-11.1 9.828v5.312l.016-.016 11.087-9.8 7.906 6.985 17.515-15.5 3.965 3.5.008.007v-9.684H115.6zm-3.335-8.237a.64.64 0 0 0-.412-.153h-11.136c-.153-.012-.304.044-.412.153s-.164.259-.153.412v2.847h12.267v-2.842a.64.64 0 0 0-.154-.417zm-31.18 8.366v-.129c.015-1.302.54-2.546 1.462-3.465l.024-.024.032-.032c.874-.875 2.043-1.394 3.279-1.454q.159-.008.323-.008h9.4v-2.842c-.019-1.346.508-2.643 1.462-3.593l.057-.058c.951-.953 2.248-1.48 3.594-1.461h11.136c1.345-.02 2.641.507 3.592 1.459l.057.058a4.97 4.97 0 0 1 1.462 3.593v2.849h9.57l.145.008c1.241.056 2.414.585 3.278 1.478.01.009.02.02.032.032a4.92 4.92 0 0 1 1.494 3.465v26.228c-.017 1.294-.555 2.526-1.491 3.419l-.056.057c-.649.676-1.479 1.15-2.391 1.365-.331.076-.669.12-1.009.129h-.169-40.163q-.073 0-.145 0h-.057c-.125 0-.248-.012-.372-.024a4.66 4.66 0 0 1-.63-.1 4.98 4.98 0 0 1-2.406-1.372l-.016-.016a4.88 4.88 0 0 1-1.494-3.456zm45.449 11.927l-3.965-3.521-2.963 2.624h-.013v13.543h.008v1.526h6.929zm-39.78 14.172h6.218v-5.5zm21.658 0h6.945l-.008-11.306-6.937 6.138zm-11.184-1.526h.008v1.526h6.929v-2.583l-6.936-6.138z" transform="translate(-48.08 -447.46)" fill="#ce5248" fill-rule="evenodd"/></g></svg>