<svg xmlns="http://www.w3.org/2000/svg" width="115.359" height="115.974" xmlns:v="https://vecta.io/nano"><style><![CDATA[.C{mix-blend-mode:multiply;isolation:isolate}]]></style><defs><linearGradient id="A" x1=".5" x2=".5" y2="1"><stop offset="0" stop-color="#fff"/><stop offset="1" stop-color="#f5f5f5"/></linearGradient><linearGradient id="B" x1=".5" y1="1" x2=".5"><stop offset="0" stop-color="#fff"/><stop offset=".753" stop-color="#fcfbfb"/><stop offset="1" stop-color="#eaeaea"/></linearGradient><linearGradient id="C" x1=".5" x2=".5" y2="1"><stop offset="0" stop-color="#fff"/><stop offset=".753" stop-color="#fcfbfb"/><stop offset="1" stop-color="#ededed"/></linearGradient><filter id="D" x="35.134" y="72.428" width="44.928" height="21.845" filterUnits="userSpaceOnUse"><feOffset dy="2"/><feGaussianBlur stdDeviation="3" result="A"/><feFlood flood-color="#ce5a50" flood-opacity=".502"/><feComposite operator="in" in2="A"/><feComposite in="SourceGraphic"/></filter><filter id="E" x="21.828" y="32.081" width="71.703" height="55.539" filterUnits="userSpaceOnUse"><feOffset dy="2"/><feGaussianBlur stdDeviation="2.5" result="A"/><feFlood flood-color="#ce5a50" flood-opacity=".471"/><feComposite operator="in" in2="A"/><feComposite in="SourceGraphic"/></filter></defs><g transform="translate(-190.457 -9765.603)"><ellipse cx="248.261" cy="9828.712" rx="50.166" ry="49.761" fill="url(#A)"/><path d="M40,79.994A40,40,0,1,0,0,40,40,40,0,0,0,40,79.994Z" transform="matrix(.866025 -.5 .5 .866025 196.542 9812.299)" opacity=".51" fill="url(#B)"/><path class="C" d="M40.508,0A40.508,40.508,0,1,1,0,40.508,40.507,40.507,0,0,1,40.508,0Z" transform="matrix(-.866025 -.5 .5 -.866025 260.618 9876.271)" fill="url(#C)"/></g><g transform="translate(29.328 37.581)"><g transform="translate(-29.324 -37.583)" filter="url(#D)"><path d="M979.866,566.473l1.555,3.844H954.493l1.555-3.844Z" transform="translate(-910.36 -487.04)" fill="#ce5a50" fill-rule="evenodd"/></g><g transform="translate(-29.33 -37.58)" filter="url(#E)"><path d="M930.96 490.009a10.8 10.8 0 0 0 9.611-.163 28.7 28.7 0 0 1 9.775-2.757l-.075-.073a3.4 3.4 0 0 1 4.809-4.808 3.4 3.4 0 0 1 .001 4.808l-.073.073c3.394.331 6.701 1.265 9.767 2.757a10.82 10.82 0 0 0 9.619.163l1.759 3.713a15.04 15.04 0 0 1-4.153 1.31l6.748 13.26h2.281c-.573 1.757-1.564 3.348-2.887 4.637a11.69 11.69 0 0 1-16.54 0 11.39 11.39 0 0 1-2.879-4.637H961l6.748-13.251c-1.638-.261-3.229-.763-4.72-1.49a24.76 24.76 0 0 0-8.3-2.364v26.723q1.115 0 2.233 0h.376.524l.008.009h-.169l1.554 3.829h-13.318l1.554-3.829v-.009h3.142v-26.723c-2.884.296-5.693 1.096-8.3 2.364a16.88 16.88 0 0 1-4.728 1.49l6.748 13.251h2.281a11.8 11.8 0 0 1-11.157 8.065 11.27 11.27 0 0 1-8.271-3.427 11.4 11.4 0 0 1-2.88-4.637h2.283l6.748-13.26c-1.441-.232-2.841-.673-4.155-1.309zm33.626 18.282h10.569l-5.284-10.38zm-23.819 0l-5.292-10.38-5.285 10.38z" transform="translate(-895 -443.63)" fill="#ce5a50" fill-rule="evenodd"/></g></g></svg>