<svg xmlns="http://www.w3.org/2000/svg" width="88.79" height="10.998" viewBox="0 0 88.79 10.998"><defs><style>.a{fill:#ce5a50;}</style></defs><path class="a" d="M-43.927-9.672v2.028h7.514v5.512h-7.644V-.091h9.841V-9.672Zm17.719,1.495a17.153,17.153,0,0,0-4.264-1.872l-.936,1.768a17.137,17.137,0,0,1,4.095,2.015ZM-30.537.611c4.446-.637,8.463-2.041,10.478-8.827l-1.963-.975c-1.482,5.239-4.147,7.163-9.2,7.566Zm17.784-9.646a16.951,16.951,0,0,0-4.056-1.313l-.741,1.729a17.16,17.16,0,0,1,3.978,1.43Zm-1.17,3.12a15.7,15.7,0,0,0-3.9-1.4l-.728,1.742a17.481,17.481,0,0,1,3.835,1.521ZM-17.29.65C-12.4.065-9.23-1.56-7.176-7.7l-1.95-.936c-1.729,5.824-4.55,6.682-8.736,7.046ZM-3.783-7.67V-5.8H.936A32.59,32.59,0,0,1,.624-1.651h-5.4V.182h9.5V-1.651H2.665a58.64,58.64,0,0,0,.4-6.019ZM7.267-6.032v2.171H18.733V-6.032Zm21.645,5a22.311,22.311,0,0,0-1.937-2.041c3.952-2.7,4.589-5.291,4.849-6.682H20.28v2.015h8.489A10.95,10.95,0,0,1,25.48-4.42,17.1,17.1,0,0,0,23.4-5.98L21.8-4.589A26.257,26.257,0,0,1,27.079.533Zm4.355-5v2.171H44.733V-6.032Z" transform="translate(44.057 10.348)"/></svg>