<svg xmlns="http://www.w3.org/2000/svg" width="102.31" height="12.232" viewBox="0 0 102.31 12.232"><defs><style>.a{fill:#ce5a50;}</style></defs><path class="a" d="M-50.427-9.672v2.028h7.514v5.512h-7.644V-.091h9.841V-9.672Zm17.719,1.495a17.153,17.153,0,0,0-4.264-1.872l-.936,1.768a17.137,17.137,0,0,1,4.1,2.015ZM-37.037.611c4.446-.637,8.463-2.041,10.478-8.827l-1.963-.975c-1.482,5.239-4.147,7.163-9.2,7.566Zm19.1-8.983h-3.354v-2.236h-2.08v2.236h-1.95v1.95h1.95v3.107h2.08V-6.422h3.354v1.209c0,1.43-.143,3.549-5.031,4.1l.793,1.924c4.836-.78,6.37-2.717,6.37-6.019V-6.422h2.028v-1.95h-2.028v-2.275H-17.94Zm9.269-1.69h-2.093v3.25c0,4.316-1.274,5.551-1.885,6.136l1.625,1.69c.676-.637,2.353-2.275,2.353-8.047Zm3.549-.416H-7.2V.624C-3.12.468-1.014-2.041-.312-5.538l-1.95-.936c-.156,1.04-.637,3.757-2.86,4.5Zm7.15.169v1.924h8.918v-1.924Zm-1.04,3.3v1.924H5.746l-.013.221C5.59-2.418,4.381-1.469,1.4-1.014L2.249.819C6.162.078,7.67-1.638,7.878-4.875l.013-.208h4.1V-7.007Zm20.007,2.34a20.772,20.772,0,0,0,3.016-2.769L22.425-8.671a14.4,14.4,0,0,1-3.64,3.289,16.762,16.762,0,0,1-4.3,1.976L15.5-1.794a16.8,16.8,0,0,0,3.575-1.6V.91h1.924Zm11.3-3.51a17.153,17.153,0,0,0-4.264-1.872l-.936,1.768a17.137,17.137,0,0,1,4.095,2.015ZM27.963.611c4.446-.637,8.463-2.041,10.478-8.827l-1.963-.975C35-3.952,32.331-2.028,27.274-1.625Zm13-5.005A9.721,9.721,0,0,0,44.07-7.111h4.225c-1.248,4.563-4.394,5.551-7.67,5.98L41.47.806c2.808-.481,4.771-1.222,6.266-2.8A11.816,11.816,0,0,0,50.817-8.84l-2.327.364c-.013-.078-.078-.468-.091-.559H45.305a11.651,11.651,0,0,0,.676-1.508l-2.223-.26a8.269,8.269,0,0,1-4.121,4.875Zm10.79-4.992a10.319,10.319,0,0,0-.572-1.833l-1.144.169a11.79,11.79,0,0,1,.546,1.859ZM50-9.139a11.276,11.276,0,0,0-.6-1.95l-1.144.182a17.035,17.035,0,0,1,.533,1.963Z" transform="translate(50.557 11.219)"/></svg>