<svg xmlns="http://www.w3.org/2000/svg" xmlns:xlink="http://www.w3.org/1999/xlink" width="131.686" height="131.686" viewBox="0 0 131.686 131.686"><defs><style>.a,.g,.h{fill:#fff;}.a{opacity:0;}.b{fill:url(#a);}.c{fill:url(#b);}.d,.f,.n{mix-blend-mode:multiply;}.d,.f,.i,.n{isolation:isolate;}.d{fill:url(#c);}.e{fill:url(#d);}.g{stroke:rgba(0,0,0,0);stroke-miterlimit:10;}.h{fill-rule:evenodd;}.j{filter:url(#m);}.k{filter:url(#k);}.l{filter:url(#i);}.m{filter:url(#g);}.n{filter:url(#e);}</style><linearGradient id="a" x1="0.5" x2="0.5" y2="1" gradientUnits="objectBoundingBox"><stop offset="0" stop-color="#fff"/><stop offset="1" stop-color="#f5f5f5"/></linearGradient><linearGradient id="b" x1="0.5" y1="1" x2="0.5" gradientUnits="objectBoundingBox"><stop offset="0" stop-color="#fff"/><stop offset="0.753" stop-color="#fcfbfb"/><stop offset="1" stop-color="#eaeaea"/></linearGradient><linearGradient id="c" x1="0.5" x2="0.5" y2="1" gradientUnits="objectBoundingBox"><stop offset="0" stop-color="#fff"/><stop offset="0.753" stop-color="#fcfbfb"/><stop offset="1" stop-color="#ededed"/></linearGradient><radialGradient id="d" cx="0.5" cy="0.5" r="0.5" gradientUnits="objectBoundingBox"><stop offset="0" stop-color="#ce5248"/><stop offset="1" stop-color="#ce5248"/></radialGradient><filter id="e" x="0" y="0" width="131.686" height="131.686" filterUnits="userSpaceOnUse"><feOffset dy="5" input="SourceAlpha"/><feGaussianBlur stdDeviation="7.5" result="f"/><feFlood flood-color="#e95e52" flood-opacity="0.251"/><feComposite operator="in" in2="f"/><feComposite in="SourceGraphic"/></filter><filter id="g" x="34.16" y="35.358" width="62.811" height="52.674" filterUnits="userSpaceOnUse"><feOffset dy="2" input="SourceAlpha"/><feGaussianBlur stdDeviation="2.5" result="h"/><feFlood flood-color="#ce5a50" flood-opacity="0.49"/><feComposite operator="in" in2="h"/><feComposite in="SourceGraphic"/></filter><filter id="i" x="52.716" y="51.956" width="22.564" height="33.076" filterUnits="userSpaceOnUse"><feOffset dy="1" input="SourceAlpha"/><feGaussianBlur stdDeviation="2" result="j"/><feFlood flood-color="#ce5a50" flood-opacity="0.478"/><feComposite operator="in" in2="j"/><feComposite in="SourceGraphic"/></filter><filter id="k" x="34.16" y="35.358" width="62.811" height="52.674" filterUnits="userSpaceOnUse"><feOffset dy="2" input="SourceAlpha"/><feGaussianBlur stdDeviation="2.5" result="l"/><feFlood flood-color="#ce5a50" flood-opacity="0.49"/><feComposite operator="in" in2="l"/><feComposite in="SourceGraphic"/></filter><filter id="m" x="52.716" y="51.956" width="22.564" height="33.076" filterUnits="userSpaceOnUse"><feOffset dy="1" input="SourceAlpha"/><feGaussianBlur stdDeviation="2" result="n"/><feFlood flood-color="#ce5a50" flood-opacity="0.478"/><feComposite operator="in" in2="n"/><feComposite in="SourceGraphic"/></filter></defs><g transform="translate(7.47 4.753)"><rect class="a" width="115" height="116"/><g transform="translate(8.095 2)"><ellipse class="b" cx="43.487" cy="43.136" rx="43.487" ry="43.136" transform="translate(6.935 11.571)"/><path class="c" d="M34.672,69.344A34.672,34.672,0,1,0,0,34.672,34.672,34.672,0,0,0,34.672,69.344Z" transform="translate(5.275 40.479) rotate(-30)"/><path class="d" d="M35.114,0A35.114,35.114,0,1,1,0,35.114,35.114,35.114,0,0,1,35.114,0Z" transform="translate(60.82 95.934) rotate(-150)"/><g transform="translate(6.935 10.747)"><g class="n" transform="matrix(1, 0, 0, 1, -22.5, -17.5)"><circle class="e" cx="43.343" cy="43.343" r="43.343" transform="translate(22.5 17.5)"/></g></g></g><g class="f" transform="translate(34.689 36.605)"><g class="m" transform="matrix(1, 0, 0, 1, -42.16, -41.36)"><path class="g" d="M27.759,36.674V33.745L41.11,33.74V20.252H38.7v2.6a1.048,1.048,0,0,1-.98,1.056H35.2a.979.979,0,0,1-.659-.308,1.028,1.028,0,0,1-.321-.725V21.514l-.3-.151,0,0a3.648,3.648,0,0,0-1.613-.591,2.607,2.607,0,0,0-.432.042,1.772,1.772,0,0,1,.725-.157c.674-.083,1.6-.2,1.929-.622a.583.583,0,0,0,.119-.447,7.209,7.209,0,0,0-1.494-3.25c-1.269-1.7-4.048-2.351-4.076-2.357a.349.349,0,0,1-.148-.255c-.063-.542.794-1.515,1.077-1.835a1.1,1.1,0,0,0,.084-.1H16.735a.882.882,0,0,0,.084.1c.282.32,1.14,1.292,1.077,1.834a.35.35,0,0,1-.148.256c-.028.006-2.808.651-4.076,2.357a7.228,7.228,0,0,0-1.494,3.25.583.583,0,0,0,.119.446c.332.426,1.255.539,1.928.622a1.757,1.757,0,0,1,.726.158,2.633,2.633,0,0,0-.432-.042,3.663,3.663,0,0,0-1.617.594l-.064.032-.24.12v1.357a1.028,1.028,0,0,1-.321.725.979.979,0,0,1-.659.308H9.092a1.048,1.048,0,0,1-.98-1.056v-2.6H5.7V33.74l13.351.005v2.927H0V32.089l2.773-2.773,0-25.045L0,1.5V.2H5.7V18.375H8.112V16.552c-.107-.68-.207-1.411-.3-2.174L7.81,14.3c-.04-.347-.086-.761-.13-1.2-.027-.244-.073-.477-.117-.7a2.16,2.16,0,0,1,.117-1.743c.076-.106.336-.438.433-.545l2.032-1.658A8.367,8.367,0,0,0,10.8,7.43l2.791-5.642V1.782a2.007,2.007,0,0,1,.356-.522A1.908,1.908,0,0,1,14.972.7a50.582,50.582,0,0,1,8-.7h.488A50.63,50.63,0,0,1,31.84.7a1.922,1.922,0,0,1,1.021.558,2.036,2.036,0,0,1,.357.523v.005L36.008,7.43a8.448,8.448,0,0,0,.659,1.021L38.7,10.109c.093.1.353.432.433.545a2.16,2.16,0,0,1,.117,1.743c-.044.226-.09.461-.117.7-.04.393-.083.8-.13,1.2L39,14.379c-.091.768-.19,1.5-.3,2.174v1.823H41.11V.2h5.7V1.5L44.043,4.271l0,25.044,2.773,2.774v4.585Zm4.1-23.818c.009,0,.3.087.6.178.346.1.673.2.68.2a23.259,23.259,0,0,0,3.583-.2A6.668,6.668,0,0,0,37.9,10.879l-6.457.74L30.077,13.03a.055.055,0,0,0,.018.045.082.082,0,0,0,.055.015,1.543,1.543,0,0,0,.394-.115l.151-.055a2.425,2.425,0,0,1,.766-.17A.724.724,0,0,1,31.862,12.856Zm-21.774.175a23.372,23.372,0,0,0,3.583.2c.006,0,.322-.1.656-.2l.023-.006.061-.019.538-.16a.724.724,0,0,1,.346-.076,2.744,2.744,0,0,1,.775.157l.136.043h0a1.874,1.874,0,0,0,.438.112c.058,0,.087-.02.087-.063L15.37,11.619l-6.457-.74A6.69,6.69,0,0,0,10.088,13.03ZM32.142,6.61c.226.009.642.018,1.083.028.555.012,1.128.024,1.409.037L32.623,3.263a3.325,3.325,0,0,0-1.181-.875,2.083,2.083,0,0,0-.4-.093c-.044-.007-.082-.013-.111-.02l-.018-.006v.006a51.906,51.906,0,0,0-7.074-.528h-.867a51.66,51.66,0,0,0-7.074.528V2.269l0,0-.013,0-.119.021a1.987,1.987,0,0,0-.392.091,3.32,3.32,0,0,0-1.181.875L12.177,6.676c.275-.013.834-.026,1.375-.037h.056c.432-.009.84-.018,1.061-.027,2.763-.126,5.559-.195,8.318-.207h.644C26.446,6.412,29.308,6.482,32.142,6.61Z" transform="translate(42.16 41.36)"/></g><g transform="translate(16.556 15.598)"><g class="l" transform="matrix(1, 0, 0, 1, -58.72, -56.96)"><path class="h" d="M736.856,138.835l2.111-1.377a2.483,2.483,0,0,1,1.471-.365h5.8v3.5H743.7v1.871h2.538v1.578h-.667l-.034.009a1.67,1.67,0,0,0-1.17.5,1.7,1.7,0,0,0-.52,1.247,1.68,1.68,0,0,0,.4,1.114l.022.021a2.605,2.605,0,0,1,.52,1.6l0,9.63h-5l0-9.63a2.6,2.6,0,0,1,.52-1.6l.021-.021a1.681,1.681,0,0,0,.4-1.114,1.7,1.7,0,0,0-.52-1.247,1.67,1.67,0,0,0-1.17-.5l-.039-.009h-1.875a1.5,1.5,0,0,1-1.066-.507,1.619,1.619,0,0,1-.379-1.071h5.186v-1.871h-5.186a2.141,2.141,0,0,1,1.183-1.759Z" transform="translate(-676.96 -80.13)"/></g></g></g><g class="i" transform="translate(34.689 36.605)"><g class="k" transform="matrix(1, 0, 0, 1, -42.16, -41.36)"><path class="g" d="M27.759,36.674V33.745L41.11,33.74V20.252H38.7v2.6a1.048,1.048,0,0,1-.98,1.056H35.2a.979.979,0,0,1-.659-.308,1.028,1.028,0,0,1-.321-.725V21.514l-.3-.151,0,0a3.648,3.648,0,0,0-1.613-.591,2.607,2.607,0,0,0-.432.042,1.772,1.772,0,0,1,.725-.157c.674-.083,1.6-.2,1.929-.622a.583.583,0,0,0,.119-.447,7.209,7.209,0,0,0-1.494-3.25c-1.269-1.7-4.048-2.351-4.076-2.357a.349.349,0,0,1-.148-.255c-.063-.542.794-1.515,1.077-1.835a1.1,1.1,0,0,0,.084-.1H16.735a.882.882,0,0,0,.084.1c.282.32,1.14,1.292,1.077,1.834a.35.35,0,0,1-.148.256c-.028.006-2.808.651-4.076,2.357a7.228,7.228,0,0,0-1.494,3.25.583.583,0,0,0,.119.446c.332.426,1.255.539,1.928.622a1.757,1.757,0,0,1,.726.158,2.633,2.633,0,0,0-.432-.042,3.663,3.663,0,0,0-1.617.594l-.064.032-.24.12v1.357a1.028,1.028,0,0,1-.321.725.979.979,0,0,1-.659.308H9.092a1.048,1.048,0,0,1-.98-1.056v-2.6H5.7V33.74l13.351.005v2.927H0V32.089l2.773-2.773,0-25.045L0,1.5V.2H5.7V18.375H8.112V16.552c-.107-.68-.207-1.411-.3-2.174L7.81,14.3c-.04-.347-.086-.761-.13-1.2-.027-.244-.073-.477-.117-.7a2.16,2.16,0,0,1,.117-1.743c.076-.106.336-.438.433-.545l2.032-1.658A8.367,8.367,0,0,0,10.8,7.43l2.791-5.642V1.782a2.007,2.007,0,0,1,.356-.522A1.908,1.908,0,0,1,14.972.7a50.582,50.582,0,0,1,8-.7h.488A50.63,50.63,0,0,1,31.84.7a1.922,1.922,0,0,1,1.021.558,2.036,2.036,0,0,1,.357.523v.005L36.008,7.43a8.448,8.448,0,0,0,.659,1.021L38.7,10.109c.093.1.353.432.433.545a2.16,2.16,0,0,1,.117,1.743c-.044.226-.09.461-.117.7-.04.393-.083.8-.13,1.2L39,14.379c-.091.768-.19,1.5-.3,2.174v1.823H41.11V.2h5.7V1.5L44.043,4.271l0,25.044,2.773,2.774v4.585Zm4.1-23.818c.009,0,.3.087.6.178.346.1.673.2.68.2a23.259,23.259,0,0,0,3.583-.2A6.668,6.668,0,0,0,37.9,10.879l-6.457.74L30.077,13.03a.055.055,0,0,0,.018.045.082.082,0,0,0,.055.015,1.543,1.543,0,0,0,.394-.115l.151-.055a2.425,2.425,0,0,1,.766-.17A.724.724,0,0,1,31.862,12.856Zm-21.774.175a23.372,23.372,0,0,0,3.583.2c.006,0,.322-.1.656-.2l.023-.006.061-.019.538-.16a.724.724,0,0,1,.346-.076,2.744,2.744,0,0,1,.775.157l.136.043h0a1.874,1.874,0,0,0,.438.112c.058,0,.087-.02.087-.063L15.37,11.619l-6.457-.74A6.69,6.69,0,0,0,10.088,13.03ZM32.142,6.61c.226.009.642.018,1.083.028.555.012,1.128.024,1.409.037L32.623,3.263a3.325,3.325,0,0,0-1.181-.875,2.083,2.083,0,0,0-.4-.093c-.044-.007-.082-.013-.111-.02l-.018-.006v.006a51.906,51.906,0,0,0-7.074-.528h-.867a51.66,51.66,0,0,0-7.074.528V2.269l0,0-.013,0-.119.021a1.987,1.987,0,0,0-.392.091,3.32,3.32,0,0,0-1.181.875L12.177,6.676c.275-.013.834-.026,1.375-.037h.056c.432-.009.84-.018,1.061-.027,2.763-.126,5.559-.195,8.318-.207h.644C26.446,6.412,29.308,6.482,32.142,6.61Z" transform="translate(42.16 41.36)"/></g><g transform="translate(16.556 15.598)"><g class="j" transform="matrix(1, 0, 0, 1, -58.72, -56.96)"><path class="h" d="M736.856,138.835l2.111-1.377a2.483,2.483,0,0,1,1.471-.365h5.8v3.5H743.7v1.871h2.538v1.578h-.667l-.034.009a1.67,1.67,0,0,0-1.17.5,1.7,1.7,0,0,0-.52,1.247,1.68,1.68,0,0,0,.4,1.114l.022.021a2.605,2.605,0,0,1,.52,1.6l0,9.63h-5l0-9.63a2.6,2.6,0,0,1,.52-1.6l.021-.021a1.681,1.681,0,0,0,.4-1.114,1.7,1.7,0,0,0-.52-1.247,1.67,1.67,0,0,0-1.17-.5l-.039-.009h-1.875a1.5,1.5,0,0,1-1.066-.507,1.619,1.619,0,0,1-.379-1.071h5.186v-1.871h-5.186a2.141,2.141,0,0,1,1.183-1.759Z" transform="translate(-676.96 -80.13)"/></g></g></g></g></svg>