<svg xmlns="http://www.w3.org/2000/svg" width="28.249" height="12.376" viewBox="0 0 28.249 12.376"><defs><style>.a{fill:#ce5a50;}</style></defs><path class="a" d="M-11.518-5.993h2.73v.884h-4.68v1.833h4.68V-.884h-.845a14.2,14.2,0,0,0-.819-2.3l-1.911.546a11.049,11.049,0,0,1,.676,1.755H-13.78V.962H-1.846V-.884H-3.991c.416-.962.559-1.365.715-1.794l-1.976-.533A22.612,22.612,0,0,1-6.006-.884h-.806V-3.276h4.68V-5.109h-4.68v-.884h2.769V-6.8c.6.338,1.144.585,1.638.806l.936-2a14.825,14.825,0,0,1-5.3-3.12H-8.8a12.472,12.472,0,0,1-5.33,3.094l.949,1.95c.624-.26,1.092-.481,1.664-.767Zm1.6-1.768A11.413,11.413,0,0,0-7.8-9.555,14.574,14.574,0,0,0-5.642-7.761Zm24.037,8.84a18.2,18.2,0,0,0-.546-3.848L12.3-2.587c.052.3.078.481.169,1.209-.13.026-.156.026-.533.091V-3.276h1.781V-9.347h-1.69V-11.1h-1.69v1.755H8.593v6.071h1.742v2.21A14.815,14.815,0,0,1,8.45-.9l.195,2.041C9.711,1,11.96.572,12.636.416a5.977,5.977,0,0,1,.013.845ZM10.387-7.566v2.509H9.841V-7.566Zm2.08,0v2.509h-.533V-7.566ZM1.6-9.243H8.385v-1.482H1.6ZM4.251-2.158a3.371,3.371,0,0,0,.637-1.963h.338v.975A.593.593,0,0,0,5.8-2.47h1.04V-.546c0,.169-.039.208-.247.208H5.967l.286,1.56H7.371A.889.889,0,0,0,8.255.208V-5.434H1.872V1.222h1.5V-2.769ZM3.965-4.121a1.892,1.892,0,0,1-.6,1.261V-4.121Zm2.873,0v.676H6.487c-.13,0-.247-.039-.247-.26v-.416ZM3.627-2.067V-1H4.42V.754H5.785V-1h.806V-2.067ZM2.158-5.876H7.982V-8.762H2.158ZM6.188-7.67v.624H3.9V-7.67Z" transform="translate(14.131 11.115)"/></svg>