<svg xmlns="http://www.w3.org/2000/svg" width="43.771" height="12.429" viewBox="0 0 43.771 12.429"><defs><style>.a{fill:#ce5a50;}</style></defs><path class="a" d="M-20.41,1.2c1.183,0,5.083-.26,6.084-.364L-14.3-.585c-.546.052-1.157.117-2.236.169V-1.937a7.139,7.139,0,0,0,.806-.624,8.167,8.167,0,0,0,5.512,3.822L-9.3-.429a7.206,7.206,0,0,1-1.833-.429A11.319,11.319,0,0,0-9.672-1.95l-1-.637h1.131V-4.173H-14.4V-4.81h-.468a.9.9,0,0,0,.234-.7V-7.241h-2.6v-.442h2.912V-8.762h-2.912V-9.23h2.418v-1.209h-2.418v-.65h-1.7v.65h-.533c.091-.3.1-.338.143-.481l-1.534-.234a6.592,6.592,0,0,1-.9,1.9l1.027.494H-21.8v1.079h2.86v.442h-2.431v2.535H-19.8V-6.188h.858v1.612h1.7V-6.188h1.092v.39c0,.1-.052.117-.143.117h-.6l.208,1.144h.247v.364h-5.239v1.586h3.016a9.478,9.478,0,0,1-3.263.767l.494,1.534a12.912,12.912,0,0,0,3.094-.741v.663c-.182,0-2.054.065-2.184.065Zm.143-9.958a1.936,1.936,0,0,0,.3-.468h1.027v.468Zm8.554,6.175c-.416.39-.78.7-1.027.91a3.8,3.8,0,0,1-1.092-.91ZM-14.066-6.8h1.69v-3.835h-1.69Zm2.431.182c0,.247-.013.377-.338.377h-1.365l.26,1.586h2.249c.377,0,1.014-.182,1.014-1.209v-5.226h-1.82Zm8.749-.858v1.664h9V-7.475H2.574v-.871H5.6v-1.716H2.574v-1.053H.624v1.053h-.78a4.858,4.858,0,0,0,.169-.689L-1.7-11.063a6.163,6.163,0,0,1-.923,2.015,12.027,12.027,0,0,0-2.106-2L-6.045-9.659A12.627,12.627,0,0,1-4.017-7.54l.832-.832,1.287.9Zm1.391,0a9.83,9.83,0,0,0,.559-.871H.624v.871ZM-6.123-4.446h1.17V-1.69a7.86,7.86,0,0,1-1.365.845l.767,2.119A9.116,9.116,0,0,0-3.64-.442,3.844,3.844,0,0,0-.546.936H5.98L6.357-.936H-.637a3.692,3.692,0,0,1-1.547-.312,1.557,1.557,0,0,1-.923-1.183V-6.279H-6.123Zm3.9-.78v3.757H5.46V-5.226ZM3.523-3.848V-2.9H-.26v-.949Zm6.812,4.966a10.129,10.129,0,0,0,4.329-2.236V1.209h1.924V-1.17a9.487,9.487,0,0,0,4.3,2.275l.962-1.794A11.671,11.671,0,0,1,18-2.028h3.7V-3.536H16.588v-.52H20.93V-5.3H16.588v-.52h4.693V-7.28H18.655l.221-.663H21.71V-9.555H20.15a10.713,10.713,0,0,0,.533-1.183L18.8-11.089a9.646,9.646,0,0,1-.559,1.534h-.52V-11.05H15.99v1.495h-.728V-11.05H13.546v1.495h-.559a7.564,7.564,0,0,0-.559-1.534l-1.885.351a8.921,8.921,0,0,1,.572,1.183H9.49v1.612h2.86a3.513,3.513,0,0,1,.26.663H9.984v1.456h4.68v.52H10.335v1.248h4.329v.52H9.49v1.508h3.7a15.343,15.343,0,0,1-3.783,1.4Zm6.591-9.061a4,4,0,0,1-.208.663H14.6c-.039-.091-.208-.559-.247-.663Z" transform="translate(21.918 11.154)"/></svg>