<svg xmlns="http://www.w3.org/2000/svg" width="102.31" height="11.648" viewBox="0 0 102.31 11.648"><defs><style>.a{fill:#ce5a50;}</style></defs><path class="a" d="M-49.985-10.283v1.924h8.931v-1.924ZM-50.947-7.1v1.911h8.268c-.468,1.989-1.7,3.783-6.89,3.978l.624,1.95C-42.393.247-40.612-2.743-40.2-7.1Zm20.189.949a26.405,26.405,0,0,0,3.783-3.38l-1.872-1.287A19.63,19.63,0,0,1-38.441-4.5L-37.3-2.743A21.938,21.938,0,0,0-32.955-4.68v5.3h2.2Zm5.98-3.718v2.041H-16.7c-.442,2.626-1.378,5.564-7.163,6.578l.91,1.963c7.722-1.469,8.528-7.137,8.7-10.582ZM-4.94-8.372H-8.294v-2.236h-2.08v2.236h-1.95v1.95h1.95v3.107h2.08V-6.422H-4.94v1.209c0,1.43-.143,3.549-5.031,4.1L-9.178.806c4.836-.78,6.37-2.717,6.37-6.019V-6.422H-.78v-1.95H-2.808v-2.275H-4.94ZM8.242-6.149a26.405,26.405,0,0,0,3.783-3.38l-1.872-1.287A19.629,19.629,0,0,1,.559-4.5L1.7-2.743A21.938,21.938,0,0,0,6.045-4.68v5.3h2.2Zm6.344-3.575v2.041h3.8v5.512H13.936V-.13H25.025V-2.171H20.553V-7.683h3.835V-9.724ZM32.292-8.177a17.153,17.153,0,0,0-4.264-1.872l-.936,1.768a17.137,17.137,0,0,1,4.095,2.015ZM27.963.611c4.446-.637,8.463-2.041,10.478-8.827l-1.963-.975C35-3.952,32.331-2.028,27.274-1.625ZM40.781.754a13.625,13.625,0,0,0,5.057-3.718,43.324,43.324,0,0,1,3.77,3.8L51.363-.884A34.721,34.721,0,0,0,47.1-4.537a13.093,13.093,0,0,0,2.353-5.538H40.378v1.963h6.305A12.548,12.548,0,0,1,39.6-.988Z" transform="translate(50.947 10.816)"/></svg>