<svg xmlns="http://www.w3.org/2000/svg" xmlns:xlink="http://www.w3.org/1999/xlink" width="115" height="116" viewBox="0 0 115 116"><defs><style>.a,.f,.h{fill:#fff;}.a{opacity:0;}.b{fill:url(#a);}.c{opacity:0.51;fill:url(#b);}.d,.e,.k{mix-blend-mode:multiply;}.d,.e,.g,.k{isolation:isolate;}.d{fill:url(#c);}.e{fill:url(#d);}.h{fill-rule:evenodd;}.i{filter:url(#j);}.j{filter:url(#h);}.k{filter:url(#e);}</style><linearGradient id="a" x1="0.5" x2="0.5" y2="1" gradientUnits="objectBoundingBox"><stop offset="0" stop-color="#fff"/><stop offset="1" stop-color="#f5f5f5"/></linearGradient><linearGradient id="b" x1="0.5" y1="1" x2="0.5" gradientUnits="objectBoundingBox"><stop offset="0" stop-color="#fff"/><stop offset="0.753" stop-color="#fcfbfb"/><stop offset="1" stop-color="#eaeaea"/></linearGradient><linearGradient id="c" x1="0.5" x2="0.5" y2="1" gradientUnits="objectBoundingBox"><stop offset="0" stop-color="#fff"/><stop offset="0.753" stop-color="#fcfbfb"/><stop offset="1" stop-color="#ededed"/></linearGradient><radialGradient id="d" cx="0.5" cy="0.5" r="0.5" gradientUnits="objectBoundingBox"><stop offset="0" stop-color="#ce5248"/><stop offset="1" stop-color="#ce5248"/></radialGradient><filter id="e"><feOffset dy="5" input="SourceAlpha"/><feGaussianBlur stdDeviation="7.5" result="f"/><feFlood flood-color="#e95e52" flood-opacity="0.259" result="g"/><feComposite operator="out" in="SourceGraphic" in2="f"/><feComposite operator="in" in="g"/><feComposite operator="in" in2="SourceGraphic"/></filter><filter id="h" x="23.539" y="34.888" width="68.038" height="42.039" filterUnits="userSpaceOnUse"><feOffset dy="2" input="SourceAlpha"/><feGaussianBlur stdDeviation="2.5" result="i"/><feFlood flood-color="#ce5a50" flood-opacity="0.51"/><feComposite operator="in" in2="i"/><feComposite in="SourceGraphic"/></filter><filter id="j" x="41.487" y="51.237" width="32.143" height="35.257" filterUnits="userSpaceOnUse"><feOffset dy="1" input="SourceAlpha"/><feGaussianBlur stdDeviation="2" result="k"/><feFlood flood-color="#ce5a50" flood-opacity="0.51"/><feComposite operator="in" in2="k"/><feComposite in="SourceGraphic"/></filter></defs><rect class="a" width="115" height="116"/><g transform="translate(7.405 2)"><ellipse class="b" cx="43.487" cy="43.136" rx="43.487" ry="43.136" transform="translate(6.621 11.571)"/><path class="c" d="M34.672,69.344A34.672,34.672,0,1,0,0,34.672,34.672,34.672,0,0,0,34.672,69.344Z" transform="translate(5.275 40.479) rotate(-30)"/><path class="d" d="M35.114,0A35.114,35.114,0,1,1,0,35.114,35.114,35.114,0,0,1,35.114,0Z" transform="translate(60.82 95.934) rotate(-150)"/><g transform="translate(6.935 11.614)"><g data-type="innerShadowGroup"><circle class="e" cx="43.343" cy="43.343" r="43.343" transform="translate(0 0)"/><g class="k" transform="matrix(1, 0, 0, 1, -14.34, -13.61)"><circle class="f" cx="43.343" cy="43.343" r="43.343" transform="translate(14.34 13.61)"/></g></g></g></g><g class="g" transform="translate(31.039 40.388)"><g transform="translate(0 0)"><g transform="translate(0 0)"><g class="j" transform="matrix(1, 0, 0, 1, -31.04, -40.39)"><path class="h" d="M425.586,99.517l-.008.007h-7.4v3.19h9.3a4.881,4.881,0,0,1,1.976-1.433,7.917,7.917,0,0,1,2.767-.508h.141q.178-.006.367,0h4.008q.188-.006.367,0h.141a7.913,7.913,0,0,1,2.766.508,4.871,4.871,0,0,1,1.976,1.433h9.3q0-.409,0-.819,0-1.185-.007-2.371h-7.4l-.008-.007q.041-1.123.692-1.291l5.215-1.525,1.5,1.277q0-.317,0-.635v-.035a1.275,1.275,0,0,1,.381-.875,1.236,1.236,0,0,1,.91-.368,1.222,1.222,0,0,1,.9.368,1.245,1.245,0,0,1,.3.494,1.185,1.185,0,0,1,.07.416v.642l1.5-1.285,5.215,1.525q.651.168.691,1.291l-.007.007h-7.4v3.19h1.129a1.249,1.249,0,0,1,.9.381,1.22,1.22,0,0,1,.381.9,1.239,1.239,0,0,1-.2.677,1.729,1.729,0,0,1-.946.614l-10.528,2.52,3.832,8.023a6.592,6.592,0,0,1,.543,1.553,5.011,5.011,0,0,1-2.3,5.483,1.28,1.28,0,1,1-1.482-2.089A2.67,2.67,0,0,0,446.417,118a5.235,5.235,0,0,0-.409-1.292l-3.98-8.291-1.1.268v4.065l-6.2-3.585-6.2,3.585v-4.065l-1.1-.268-3.98,8.291a5.25,5.25,0,0,0-.409,1.292,2.669,2.669,0,0,0,1.241,2.773,1.281,1.281,0,1,1-1.482,2.089,5.011,5.011,0,0,1-2.3-5.483,6.608,6.608,0,0,1,.543-1.553l3.832-8.023-10.529-2.52a1.729,1.729,0,0,1-.945-.614,1.242,1.242,0,0,1-.2-.677,1.22,1.22,0,0,1,.381-.9,1.249,1.249,0,0,1,.91-.381h1.122q0-.409,0-.819,0-1.185-.007-2.371h-7.4l-.007-.007q.041-1.123.692-1.291l5.215-1.525,1.5,1.277q0-.317,0-.635v-.035a1.278,1.278,0,0,1,.382-.875,1.235,1.235,0,0,1,.91-.368,1.221,1.221,0,0,1,.9.368,1.249,1.249,0,0,1,.3.494,1.2,1.2,0,0,1,.071.416v.642l1.5-1.285,5.215,1.525Q425.545,98.393,425.586,99.517Z" transform="translate(-377.17 -55.68)"/></g></g><g transform="translate(16.448 15.849)"><g class="i" transform="matrix(1, 0, 0, 1, -47.49, -56.24)"><path class="h" d="M461.584,134.189l-2.707,1.562,8,4.619v3.588l2.7-1.552v-3.6Zm11.671,2.5v11.623l-10.071,5.812-10.071-5.812V136.7l10.071-5.83Zm-18.07,1.193v9.238l8,4.62v-9.258l-7.979-4.609-.009-.01Z" transform="translate(-405.63 -74.63)"/></g></g></g></g></svg>