<svg xmlns="http://www.w3.org/2000/svg" xmlns:xlink="http://www.w3.org/1999/xlink" width="131.686" height="131.686" viewBox="0 0 131.686 131.686"><defs><style>.a{fill:#fff;opacity:0;}.b{fill:url(#a);}.c{fill:url(#b);}.d,.f,.q{mix-blend-mode:multiply;}.d,.f,.h,.q{isolation:isolate;}.d{fill:url(#c);}.e{fill:url(#d);}.g{fill:#fcfcfc;fill-rule:evenodd;}.i{filter:url(#u);}.j{filter:url(#s);}.k{filter:url(#q);}.l{filter:url(#o);}.m{filter:url(#m);}.n{filter:url(#k);}.o{filter:url(#i);}.p{filter:url(#g);}.q{filter:url(#e);}</style><linearGradient id="a" x1="0.5" x2="0.5" y2="1" gradientUnits="objectBoundingBox"><stop offset="0" stop-color="#fff"/><stop offset="1" stop-color="#f5f5f5"/></linearGradient><linearGradient id="b" x1="0.5" y1="1" x2="0.5" gradientUnits="objectBoundingBox"><stop offset="0" stop-color="#fff"/><stop offset="0.753" stop-color="#fcfbfb"/><stop offset="1" stop-color="#eaeaea"/></linearGradient><linearGradient id="c" x1="0.5" x2="0.5" y2="1" gradientUnits="objectBoundingBox"><stop offset="0" stop-color="#fff"/><stop offset="0.753" stop-color="#fcfbfb"/><stop offset="1" stop-color="#ededed"/></linearGradient><radialGradient id="d" cx="0.5" cy="0.5" r="0.5" gradientUnits="objectBoundingBox"><stop offset="0" stop-color="#ce5248"/><stop offset="1" stop-color="#ce5248"/></radialGradient><filter id="e" x="0" y="0" width="131.686" height="131.686" filterUnits="userSpaceOnUse"><feOffset dy="5" input="SourceAlpha"/><feGaussianBlur stdDeviation="7.5" result="f"/><feFlood flood-color="#e95e52" flood-opacity="0.239"/><feComposite operator="in" in2="f"/><feComposite in="SourceGraphic"/></filter><filter id="g" x="37.132" y="33.672" width="54.328" height="57.42" filterUnits="userSpaceOnUse"><feOffset dy="2" input="SourceAlpha"/><feGaussianBlur stdDeviation="2.5" result="h"/><feFlood flood-color="#ce5a50" flood-opacity="0.502"/><feComposite operator="in" in2="h"/><feComposite in="SourceGraphic"/></filter><filter id="i" x="56.895" y="63.825" width="37.953" height="11.44" filterUnits="userSpaceOnUse"><feOffset dy="1" input="SourceAlpha"/><feGaussianBlur stdDeviation="1.5" result="j"/><feFlood flood-color="#ce5a50" flood-opacity="0.51"/><feComposite operator="in" in2="j"/><feComposite in="SourceGraphic"/></filter><filter id="k" x="58.431" y="45.981" width="34.882" height="27.226" filterUnits="userSpaceOnUse"><feOffset dy="1" input="SourceAlpha"/><feGaussianBlur stdDeviation="2" result="l"/><feFlood flood-color="#ce5a50" flood-opacity="0.51"/><feComposite operator="in" in2="l"/><feComposite in="SourceGraphic"/></filter><filter id="m" x="68.895" y="51.19" width="15.23" height="16.641" filterUnits="userSpaceOnUse"><feOffset dy="1" input="SourceAlpha"/><feGaussianBlur stdDeviation="1.5" result="n"/><feFlood flood-color="#ce5a50" flood-opacity="0.502"/><feComposite operator="in" in2="n"/><feComposite in="SourceGraphic"/></filter><filter id="o" x="37.132" y="33.672" width="54.328" height="57.42" filterUnits="userSpaceOnUse"><feOffset dy="2" input="SourceAlpha"/><feGaussianBlur stdDeviation="2.5" result="p"/><feFlood flood-color="#ce5a50" flood-opacity="0.502"/><feComposite operator="in" in2="p"/><feComposite in="SourceGraphic"/></filter><filter id="q" x="56.895" y="63.825" width="37.953" height="11.44" filterUnits="userSpaceOnUse"><feOffset dy="1" input="SourceAlpha"/><feGaussianBlur stdDeviation="1.5" result="r"/><feFlood flood-color="#ce5a50" flood-opacity="0.51"/><feComposite operator="in" in2="r"/><feComposite in="SourceGraphic"/></filter><filter id="s" x="58.431" y="45.981" width="34.882" height="27.226" filterUnits="userSpaceOnUse"><feOffset dy="1" input="SourceAlpha"/><feGaussianBlur stdDeviation="2" result="t"/><feFlood flood-color="#ce5a50" flood-opacity="0.51"/><feComposite operator="in" in2="t"/><feComposite in="SourceGraphic"/></filter><filter id="u" x="68.895" y="51.19" width="15.23" height="16.641" filterUnits="userSpaceOnUse"><feOffset dy="1" input="SourceAlpha"/><feGaussianBlur stdDeviation="1.5" result="v"/><feFlood flood-color="#ce5a50" flood-opacity="0.502"/><feComposite operator="in" in2="v"/><feComposite in="SourceGraphic"/></filter></defs><g transform="translate(8.16 4.166)"><rect class="a" width="115" height="116"/><g transform="translate(7.405 2)"><ellipse class="b" cx="43.487" cy="43.136" rx="43.487" ry="43.136" transform="translate(6.621 11.571)"/><path class="c" d="M34.672,69.344A34.672,34.672,0,1,0,0,34.672,34.672,34.672,0,0,0,34.672,69.344Z" transform="translate(5.275 40.479) rotate(-30)"/><path class="d" d="M35.114,0A35.114,35.114,0,1,1,0,35.114,35.114,35.114,0,0,1,35.114,0Z" transform="translate(60.82 95.934) rotate(-150)"/></g><g transform="translate(14.34 13.334)"><g class="q" transform="matrix(1, 0, 0, 1, -22.5, -17.5)"><circle class="e" cx="43.343" cy="43.343" r="43.343" transform="translate(22.5 17.5)"/></g><g class="f" transform="translate(22.132 21.672)"><g transform="translate(0 0)"><g class="p" transform="matrix(1, 0, 0, 1, -44.63, -39.17)"><path class="g" d="M96.935,95.19a24.319,24.319,0,0,1,1.109-2.624q.145-.317.325-.634a19.966,19.966,0,0,1,1.537-2.481A18.142,18.142,0,0,0,94.319,93.1,19.83,19.83,0,0,0,96.935,95.19Zm9.773-9.773h.626c.078,0,.154,0,.23.008A20.333,20.333,0,0,1,122,91.615q.252.251.491.507l.1.088a21.958,21.958,0,0,1,2.52,3.258H114.285q-.352-.9-.777-1.751l-.031-.071a4.567,4.567,0,0,0-.206-.42.127.127,0,0,0-.016-.024q-2.129-4.017-4.9-4.874v7.141h-1.546a2.968,2.968,0,0,0-1.165.23V88.325q-2.771.857-4.9,4.874a.128.128,0,0,0-.016.024q-.116.21-.206.42-.016.034-.031.071a22,22,0,0,0-1.165,2.805,17.374,17.374,0,0,0,4.557,1.356,2.956,2.956,0,0,0-.056.57V100.6A20.407,20.407,0,0,1,98.6,99.144q-.067.292-.127.586a33.133,33.133,0,0,0-.626,5.548h5.984v2.695H97.846a33.3,33.3,0,0,0,.626,5.532q.061.292.127.579a20.164,20.164,0,0,1,2.219-.8,1.821,1.821,0,0,0-.024.286v.364a3.72,3.72,0,0,0,.563,2.014,16.832,16.832,0,0,0-2.029.768,23.051,23.051,0,0,0,1.165,2.822.109.109,0,0,0,.016.024q.1.21.222.436a.146.146,0,0,0,.016.024q2.129,4.03,4.9,4.883v-7.141h2.711V124.9q2.77-.853,4.9-4.883a.12.12,0,0,0,.016-.024q.125-.225.222-.436a.111.111,0,0,0,.016-.024q.427-.863.785-1.776H120v.008l5.112-.008a22.246,22.246,0,0,1-2.512,3.258l-.039.032-.032.032c-.01.011-.021.021-.032.031l-.491.491a20.3,20.3,0,0,1-14.441,6.206c-.076,0-.152.008-.23.008h-.1l-.055.008a1.082,1.082,0,0,1-.167.008h-.016a1.079,1.079,0,0,1-.166-.008l-.056-.008h-.1c-.078,0-.155,0-.23-.008A20.3,20.3,0,0,1,92,121.606l-.492-.491-.031-.031-.031-.032-.04-.032a20.974,20.974,0,0,1-4.264-6.753l-.008-.008a21.332,21.332,0,0,1-1.348-7.6v-.063a21.294,21.294,0,0,1,1.355-7.617,20.723,20.723,0,0,1,4.272-6.769l.095-.088q.24-.255.492-.507a20.334,20.334,0,0,1,14.441-6.19c.075,0,.152-.007.23-.008Zm9.25,7.149a24.322,24.322,0,0,1,1.109,2.624,19.767,19.767,0,0,0,2.616-2.085,18.136,18.136,0,0,0-5.588-3.654,19.967,19.967,0,0,1,1.538,2.481Q115.813,92.25,115.957,92.566Zm-19.831,22.8q-.166-.656-.3-1.323a36.3,36.3,0,0,1-.69-6.071h-6.61a18.13,18.13,0,0,0,1.134,5.318l-.008-.008a18.085,18.085,0,0,0,2.83,4.867A21.154,21.154,0,0,1,96.126,115.369Zm0-17.5a21.707,21.707,0,0,1-3.638-2.79,17.4,17.4,0,0,0-3.963,10.2h6.61a36.093,36.093,0,0,1,.69-6.087Q95.962,98.519,96.126,97.868ZM115.941,120.7q-.137.283-.309.586a19.49,19.49,0,0,1-1.546,2.5,18.05,18.05,0,0,0,5.58-3.662,18.956,18.956,0,0,0-2.6-2.085,25.3,25.3,0,0,1-1.149,2.695Zm-17.572.586q-.172-.3-.309-.586l.024.031a25.5,25.5,0,0,1-1.149-2.695,18.954,18.954,0,0,0-2.6,2.085,18.05,18.05,0,0,0,5.58,3.662A19.488,19.488,0,0,1,98.37,121.29Z" transform="translate(-41.15 -46.25)"/></g></g><g transform="translate(16.763 28.153)"><g class="o" transform="matrix(1, 0, 0, 1, -61.4, -67.32)"><path class="g" d="M149.986,144.981a2.083,2.083,0,0,1-2.069,2.077H123.11a2,2,0,0,1-1.387-.531l-.079-.079a2.01,2.01,0,0,1-.61-1.467v-.364H131.8v.071a1,1,0,0,0,.974.975h5.461a.96.96,0,0,0,.7-.293.927.927,0,0,0,.293-.682v-.071h10.755Z" transform="translate(-59.64 -77.29)"/></g></g><g transform="translate(19.799 11.809)"><g class="n" transform="matrix(1, 0, 0, 1, -64.43, -50.98)"><path class="g" d="M147.873,112.691H129.857v10.343h18.016ZM127.48,111.1a1.167,1.167,0,0,1,.3-.476,1.19,1.19,0,0,1,.864-.372h20.441a1.26,1.26,0,0,1,1.213,1.228v14H127.416v-14A1.174,1.174,0,0,1,127.48,111.1Z" transform="translate(-62.99 -59.27)"/></g></g><g transform="translate(28.764 15.519)"><g class="m" transform="matrix(1, 0, 0, 1, -73.4, -54.69)"><path class="g" d="M150.261,123.123l.951,1.641-1.609.927-.943-1.641-1.633,1.641-.761-7.64,6.23,4.486Z" transform="translate(-72.87 -63.36)"/></g></g></g><g class="h" transform="translate(22.132 21.672)"><g transform="translate(0 0)"><g class="l" transform="matrix(1, 0, 0, 1, -44.63, -39.17)"><path class="g" d="M96.935,95.19a24.319,24.319,0,0,1,1.109-2.624q.145-.317.325-.634a19.966,19.966,0,0,1,1.537-2.481A18.142,18.142,0,0,0,94.319,93.1,19.83,19.83,0,0,0,96.935,95.19Zm9.773-9.773h.626c.078,0,.154,0,.23.008A20.333,20.333,0,0,1,122,91.615q.252.251.491.507l.1.088a21.958,21.958,0,0,1,2.52,3.258H114.285q-.352-.9-.777-1.751l-.031-.071a4.567,4.567,0,0,0-.206-.42.127.127,0,0,0-.016-.024q-2.129-4.017-4.9-4.874v7.141h-1.546a2.968,2.968,0,0,0-1.165.23V88.325q-2.771.857-4.9,4.874a.128.128,0,0,0-.016.024q-.116.21-.206.42-.016.034-.031.071a22,22,0,0,0-1.165,2.805,17.374,17.374,0,0,0,4.557,1.356,2.956,2.956,0,0,0-.056.57V100.6A20.407,20.407,0,0,1,98.6,99.144q-.067.292-.127.586a33.133,33.133,0,0,0-.626,5.548h5.984v2.695H97.846a33.3,33.3,0,0,0,.626,5.532q.061.292.127.579a20.164,20.164,0,0,1,2.219-.8,1.821,1.821,0,0,0-.024.286v.364a3.72,3.72,0,0,0,.563,2.014,16.832,16.832,0,0,0-2.029.768,23.051,23.051,0,0,0,1.165,2.822.109.109,0,0,0,.016.024q.1.21.222.436a.146.146,0,0,0,.016.024q2.129,4.03,4.9,4.883v-7.141h2.711V124.9q2.77-.853,4.9-4.883a.12.12,0,0,0,.016-.024q.125-.225.222-.436a.111.111,0,0,0,.016-.024q.427-.863.785-1.776H120v.008l5.112-.008a22.246,22.246,0,0,1-2.512,3.258l-.039.032-.032.032c-.01.011-.021.021-.032.031l-.491.491a20.3,20.3,0,0,1-14.441,6.206c-.076,0-.152.008-.23.008h-.1l-.055.008a1.082,1.082,0,0,1-.167.008h-.016a1.079,1.079,0,0,1-.166-.008l-.056-.008h-.1c-.078,0-.155,0-.23-.008A20.3,20.3,0,0,1,92,121.606l-.492-.491-.031-.031-.031-.032-.04-.032a20.974,20.974,0,0,1-4.264-6.753l-.008-.008a21.332,21.332,0,0,1-1.348-7.6v-.063a21.294,21.294,0,0,1,1.355-7.617,20.723,20.723,0,0,1,4.272-6.769l.095-.088q.24-.255.492-.507a20.334,20.334,0,0,1,14.441-6.19c.075,0,.152-.007.23-.008Zm9.25,7.149a24.322,24.322,0,0,1,1.109,2.624,19.767,19.767,0,0,0,2.616-2.085,18.136,18.136,0,0,0-5.588-3.654,19.967,19.967,0,0,1,1.538,2.481Q115.813,92.25,115.957,92.566Zm-19.831,22.8q-.166-.656-.3-1.323a36.3,36.3,0,0,1-.69-6.071h-6.61a18.13,18.13,0,0,0,1.134,5.318l-.008-.008a18.085,18.085,0,0,0,2.83,4.867A21.154,21.154,0,0,1,96.126,115.369Zm0-17.5a21.707,21.707,0,0,1-3.638-2.79,17.4,17.4,0,0,0-3.963,10.2h6.61a36.093,36.093,0,0,1,.69-6.087Q95.962,98.519,96.126,97.868ZM115.941,120.7q-.137.283-.309.586a19.49,19.49,0,0,1-1.546,2.5,18.05,18.05,0,0,0,5.58-3.662,18.956,18.956,0,0,0-2.6-2.085,25.3,25.3,0,0,1-1.149,2.695Zm-17.572.586q-.172-.3-.309-.586l.024.031a25.5,25.5,0,0,1-1.149-2.695,18.954,18.954,0,0,0-2.6,2.085,18.05,18.05,0,0,0,5.58,3.662A19.488,19.488,0,0,1,98.37,121.29Z" transform="translate(-41.15 -46.25)"/></g></g><g transform="translate(16.763 28.153)"><g class="k" transform="matrix(1, 0, 0, 1, -61.4, -67.32)"><path class="g" d="M149.986,144.981a2.083,2.083,0,0,1-2.069,2.077H123.11a2,2,0,0,1-1.387-.531l-.079-.079a2.01,2.01,0,0,1-.61-1.467v-.364H131.8v.071a1,1,0,0,0,.974.975h5.461a.96.96,0,0,0,.7-.293.927.927,0,0,0,.293-.682v-.071h10.755Z" transform="translate(-59.64 -77.29)"/></g></g><g transform="translate(19.799 11.809)"><g class="j" transform="matrix(1, 0, 0, 1, -64.43, -50.98)"><path class="g" d="M147.873,112.691H129.857v10.343h18.016ZM127.48,111.1a1.167,1.167,0,0,1,.3-.476,1.19,1.19,0,0,1,.864-.372h20.441a1.26,1.26,0,0,1,1.213,1.228v14H127.416v-14A1.174,1.174,0,0,1,127.48,111.1Z" transform="translate(-62.99 -59.27)"/></g></g><g transform="translate(28.764 15.519)"><g class="i" transform="matrix(1, 0, 0, 1, -73.4, -54.69)"><path class="g" d="M150.261,123.123l.951,1.641-1.609.927-.943-1.641-1.633,1.641-.761-7.64,6.23,4.486Z" transform="translate(-72.87 -63.36)"/></g></g></g></g></g></svg>