<svg xmlns="http://www.w3.org/2000/svg" xmlns:xlink="http://www.w3.org/1999/xlink" width="131.686" height="131.686" viewBox="0 0 131.686 131.686"><defs><style>.a{fill:#fff;opacity:0;}.b{fill:url(#a);}.c{fill:url(#b);}.d,.i{mix-blend-mode:multiply;}.d,.f,.i{isolation:isolate;}.d{fill:url(#c);}.e{fill:url(#d);}.g{fill-rule:evenodd;fill:url(#g);}.h{filter:url(#h);}.i{filter:url(#e);}</style><linearGradient id="a" x1="0.5" x2="0.5" y2="1" gradientUnits="objectBoundingBox"><stop offset="0" stop-color="#fff"/><stop offset="1" stop-color="#f5f5f5"/></linearGradient><linearGradient id="b" x1="0.5" y1="1" x2="0.5" gradientUnits="objectBoundingBox"><stop offset="0" stop-color="#fff"/><stop offset="0.753" stop-color="#fcfbfb"/><stop offset="1" stop-color="#eaeaea"/></linearGradient><linearGradient id="c" x1="0.5" x2="0.5" y2="1" gradientUnits="objectBoundingBox"><stop offset="0" stop-color="#fff"/><stop offset="0.753" stop-color="#fcfbfb"/><stop offset="1" stop-color="#ededed"/></linearGradient><radialGradient id="d" cx="0.5" cy="0.5" r="0.5" gradientUnits="objectBoundingBox"><stop offset="0" stop-color="#ce5248"/><stop offset="1" stop-color="#ce5248"/></radialGradient><filter id="e" x="0" y="0" width="131.686" height="131.686" filterUnits="userSpaceOnUse"><feOffset dy="5" input="SourceAlpha"/><feGaussianBlur stdDeviation="7.5" result="f"/><feFlood flood-color="#e95e52" flood-opacity="0.251"/><feComposite operator="in" in2="f"/><feComposite in="SourceGraphic"/></filter><radialGradient id="g" cx="0.5" cy="0.5" r="0.5" gradientUnits="objectBoundingBox"><stop offset="0" stop-color="#fcfcfc"/><stop offset="1" stop-color="#fcfcfc"/></radialGradient><filter id="h" x="34.075" y="34.372" width="62.464" height="53.97" filterUnits="userSpaceOnUse"><feOffset dy="2" input="SourceAlpha"/><feGaussianBlur stdDeviation="2.5" result="i"/><feFlood flood-color="#ce5a50" flood-opacity="0.49"/><feComposite operator="in" in2="i"/><feComposite in="SourceGraphic"/></filter></defs><g transform="translate(8.471 4.753)"><rect class="a" width="115" height="116"/><g transform="translate(7.094 2)"><ellipse class="b" cx="43.487" cy="43.136" rx="43.487" ry="43.136" transform="translate(6.935 11.571)"/><path class="c" d="M34.672,69.344A34.672,34.672,0,1,0,0,34.672,34.672,34.672,0,0,0,34.672,69.344Z" transform="translate(5.275 40.479) rotate(-30)"/><path class="d" d="M35.114,0A35.114,35.114,0,1,1,0,35.114,35.114,35.114,0,0,1,35.114,0Z" transform="translate(60.82 95.934) rotate(-150)"/><g transform="translate(6.935 10.747)"><g class="i" transform="matrix(1, 0, 0, 1, -22.5, -17.5)"><circle class="e" cx="43.343" cy="43.343" r="43.343" transform="translate(22.5 17.5)"/></g></g></g><g class="f" transform="translate(33.105 35.119)"><g transform="translate(0 0)"><g transform="translate(0 0)"><g class="h" transform="matrix(1, 0, 0, 1, -41.58, -39.87)"><path class="g" d="M87.634,484.437a2.969,2.969,0,0,1,1.94-.747h10.811a2.987,2.987,0,0,1,1.947.747,3.079,3.079,0,0,1,1.107,1.784l.071.374H107.4a3,3,0,0,1,1.94.727l.014.014a3.08,3.08,0,0,1,1.1,1.791h1.544a3.14,3.14,0,0,1,1.975.741,3.3,3.3,0,0,1,1.192,1.8l.762,3h.331a2.528,2.528,0,0,1,2.539,2.531v3h.106a2.528,2.528,0,0,1,2.532,2.532v3a2.527,2.527,0,0,1-2.151,2.5,2.638,2.638,0,0,1-.324.028h-1.249l-.331,1.806a3.009,3.009,0,0,1-1.065,1.8,2.9,2.9,0,0,1-1.926.733h-1.164l-.007.028a3.4,3.4,0,0,1-2.638,3.2q-2.444.742-1.918,5.057l-2.109.662-1.149-10.38,4.006-3.117a2.944,2.944,0,0,0,1.911.663,3.088,3.088,0,0,0,.4-6.149l-.332-2.955a3.038,3.038,0,0,0,1.122-.726,3.087,3.087,0,0,0-4.366-4.366c-.085.086-.165.173-.24.261l-2.222-1.022a3.329,3.329,0,0,0,.05-.571v-.008a2.949,2.949,0,0,0-.783-2.045c-.038-.043-.079-.086-.121-.127a3.089,3.089,0,0,0-4.351,0c-.041.041-.081.084-.12.127l-.106.12-2.229-1.03a3.14,3.14,0,0,0,.05-.564,3.083,3.083,0,1,0-.9,2.179,3.156,3.156,0,0,0,.218-.24l2.236,1.03a3.026,3.026,0,0,0-.05.55v.008a3.082,3.082,0,0,0,5.254,2.179c.079-.078.151-.158.219-.239l2.236,1.029a3.492,3.492,0,0,0-.042.55,3.083,3.083,0,0,0,2.651,3.053l.331,2.977a3.024,3.024,0,0,0-1.086.712,2.968,2.968,0,0,0-.9,2.18,3.038,3.038,0,0,0,.254,1.248l-3.286,2.56-.494-4.436a3.04,3.04,0,0,0,1.114-.726,3.084,3.084,0,1,0-4.359-4.365,2.867,2.867,0,0,0-.226.254l-2.222-1.022a3.223,3.223,0,0,0,.049-.571,3.131,3.131,0,1,0-.684,1.939l2.229,1.029a3.021,3.021,0,0,0-.05.558,3.074,3.074,0,0,0,.268,1.29l-2,1.622a2.94,2.94,0,0,0-1.847-.614,2.981,2.981,0,0,0-2.186.9,2.75,2.75,0,0,0-.226.254l-2.228-1.022a3.247,3.247,0,0,0,.05-.572,3.087,3.087,0,0,0-5.268-2.178,3.339,3.339,0,0,0-.226.247L84.679,501a3.379,3.379,0,0,0,.049-.578,3.035,3.035,0,0,0-.275-1.3l2-1.614a3.038,3.038,0,1,0-.945-1.171l-2,1.615a3.088,3.088,0,1,0,.317,4.648c.074-.074.145-.149.212-.225l2.229,1.022a3.053,3.053,0,0,0-.05.557,3.087,3.087,0,0,0,5.268,2.186,2.7,2.7,0,0,0,.218-.247l2.236,1.023a3.162,3.162,0,0,0-.05.564,3.085,3.085,0,0,0,6.171,0,3.059,3.059,0,0,0-.275-1.3l2-1.622a2.856,2.856,0,0,0,1.425.592q.941,8.438,1.883,16.876l-2.087.641-3.188-8.223H96.584a2.966,2.966,0,0,1-1.94-.741,3.093,3.093,0,0,1-1.107-1.791l-.077-.374H89.574a2.97,2.97,0,0,1-1.926-.734l-.014-.007A3.094,3.094,0,0,1,86.527,509l-.077-.367H82.564a2.99,2.99,0,0,1-1.947-.747,3.085,3.085,0,0,1-1.108-1.791l-.071-.366h-3a2.7,2.7,0,0,1-.324-.029,2.53,2.53,0,0,1-2.145-2.51v-3a2.515,2.515,0,0,1,2.525-2.531H76.6v-3a2.441,2.441,0,0,1,.741-1.792,2.467,2.467,0,0,1,1.8-.747h.331l.762-3a3.292,3.292,0,0,1,1.184-1.8A3.124,3.124,0,0,1,83.4,486.6h3.053l.077-.374A3.073,3.073,0,0,1,87.634,484.437Z" transform="translate(-32.39 -443.82)"/></g></g><g transform="translate(35.771 20.352)"><path class="g" d="M161.659,533.366a1.589,1.589,0,0,1-1.58,1.58,1.57,1.57,0,0,1-.649-.134,1.661,1.661,0,0,1-.465-.332,1.565,1.565,0,0,1,0-2.228,1.806,1.806,0,0,1,.2-.176,1.509,1.509,0,0,1,.91-.289,1.571,1.571,0,0,1,.579.106,1.614,1.614,0,0,1,.536.36A1.516,1.516,0,0,1,161.659,533.366Z" transform="translate(-158.5 -531.786)"/></g><g transform="translate(34.776 11.432)"><path class="g" d="M156.149,512.285a1.529,1.529,0,0,1,.473-1.114,1.391,1.391,0,0,1,.155-.134,1.487,1.487,0,0,1,.959-.331,1.5,1.5,0,0,1,1.108.465,1.551,1.551,0,0,1,0,2.228,1.562,1.562,0,0,1-.226.19,1.484,1.484,0,0,1-.882.275,1.546,1.546,0,0,1-.613-.12,1.6,1.6,0,0,1-.5-.346,1.507,1.507,0,0,1-.465-.987C156.152,512.37,156.15,512.328,156.149,512.285Z" transform="translate(-156.149 -510.706)"/></g><g transform="translate(27.111 7.92)"><path class="g" d="M138.428,502.935l.007-.008.057-.056.007-.014a1.755,1.755,0,0,1,.163-.141,1.59,1.59,0,0,1,2.052.141l.007.014.064.056.007.008a1.468,1.468,0,0,1,.388.938c0,.033,0,.066,0,.1v.008a1.5,1.5,0,0,1-.458,1.107,1.4,1.4,0,0,1-.183.155,1.493,1.493,0,0,1-.931.3,1.518,1.518,0,0,1-1.114-.458,1.48,1.48,0,0,1-.451-.994.876.876,0,0,1-.007-.113v-.008A1.5,1.5,0,0,1,138.428,502.935Z" transform="translate(-138.034 -502.406)"/></g><g transform="translate(19.444 4.386)"><path class="g" d="M122.611,494.521a1.527,1.527,0,0,1,.465,1.008v.106a1.516,1.516,0,0,1-.465,1.114,1.922,1.922,0,0,1-.176.155,1.5,1.5,0,0,1-.939.31,1.58,1.58,0,1,1,1.115-2.694Z" transform="translate(-119.917 -494.056)"/></g><g transform="translate(12.78 9.775)"><path class="g" d="M104.167,508.368a1.579,1.579,0,1,1,.959,1.453,1.553,1.553,0,0,1-.494-.339,1.53,1.53,0,0,1-.445-.839A1.83,1.83,0,0,1,104.167,508.368Z" transform="translate(-104.167 -506.789)"/></g><g transform="translate(6.094 15.148)"><path class="g" d="M88.367,521.068a1.59,1.59,0,0,1,1.58-1.58,1.543,1.543,0,0,1,.613.12,1.6,1.6,0,0,1,.5.346,1.543,1.543,0,0,1,.445.825c.009.064.016.131.021.2v.092a1.517,1.517,0,0,1-.465,1.114,1.837,1.837,0,0,1-.183.162,1.583,1.583,0,0,1-2.511-1.276Z" transform="translate(-88.367 -519.487)"/></g><g transform="translate(13.753 18.682)"><path class="g" d="M109.626,529.418a1.519,1.519,0,0,1-.466,1.114,1.789,1.789,0,0,1-.176.155,1.5,1.5,0,0,1-.938.311,1.52,1.52,0,0,1-1.115-.466,1.5,1.5,0,0,1-.458-1,.9.9,0,0,1-.007-.113,1.52,1.52,0,0,1,.465-1.114,1.617,1.617,0,0,1,.169-.148,1.491,1.491,0,0,1,.945-.317,1.514,1.514,0,0,1,1.114.465,1.531,1.531,0,0,1,.466,1.015Z" transform="translate(-106.466 -527.839)"/></g><g transform="translate(21.433 22.208)"><path class="g" d="M125.245,536.488a1.513,1.513,0,0,1,.952-.317,1.547,1.547,0,0,1,.6.113,1.594,1.594,0,0,1,.515.352,1.514,1.514,0,0,1,.438.818,1.535,1.535,0,0,1,.028.3,1.576,1.576,0,0,1-2.694,1.114,1.5,1.5,0,0,1-.458-1,.925.925,0,0,1-.007-.113,1.516,1.516,0,0,1,.465-1.114C125.136,536.584,125.19,536.534,125.245,536.488Z" transform="translate(-124.617 -536.171)"/></g><g transform="translate(28.098 16.82)"><path class="g" d="M140.367,525.018a1.518,1.518,0,0,1,.465-1.115,1.689,1.689,0,0,1,.17-.148,1.5,1.5,0,0,1,.945-.317,1.576,1.576,0,0,1,1.114,2.694,1.742,1.742,0,0,1-.226.19,1.582,1.582,0,0,1-1.495.155h-.008a1.609,1.609,0,0,1-.5-.345,1.531,1.531,0,0,1-.444-.846c-.007-.049-.011-.1-.014-.155A.9.9,0,0,1,140.367,525.018Z" transform="translate(-140.367 -523.438)"/></g><g transform="translate(20.439 13.293)"><path class="g" d="M125.426,516.585v.1a1.524,1.524,0,0,1-.465,1.114,2.086,2.086,0,0,1-.176.155,1.572,1.572,0,0,1-2.052-.155,1.576,1.576,0,1,1,2.228-2.228l.042.042.028.028.057.063c.014.018.028.036.042.057A1.514,1.514,0,0,1,125.426,516.585Z" transform="translate(-122.267 -515.104)"/></g></g></g></g></svg>