<svg xmlns="http://www.w3.org/2000/svg" xmlns:xlink="http://www.w3.org/1999/xlink" width="131.686" height="131.686" viewBox="0 0 131.686 131.686"><defs><style>.a,.g{fill:#fff;}.a{opacity:0;}.b{fill:url(#a);}.c{fill:url(#b);}.d,.f,.k{mix-blend-mode:multiply;}.d,.f,.h,.k{isolation:isolate;}.d{fill:url(#c);}.e{fill:url(#d);}.g{fill-rule:evenodd;}.i{filter:url(#i);}.j{filter:url(#g);}.k{filter:url(#e);}</style><linearGradient id="a" x1="0.5" x2="0.5" y2="1" gradientUnits="objectBoundingBox"><stop offset="0" stop-color="#fff"/><stop offset="1" stop-color="#f5f5f5"/></linearGradient><linearGradient id="b" x1="0.5" y1="1" x2="0.5" gradientUnits="objectBoundingBox"><stop offset="0" stop-color="#fff"/><stop offset="0.753" stop-color="#fcfbfb"/><stop offset="1" stop-color="#eaeaea"/></linearGradient><linearGradient id="c" x1="0.5" x2="0.5" y2="1" gradientUnits="objectBoundingBox"><stop offset="0" stop-color="#fff"/><stop offset="0.753" stop-color="#fcfbfb"/><stop offset="1" stop-color="#ededed"/></linearGradient><radialGradient id="d" cx="0.5" cy="0.5" r="0.5" gradientUnits="objectBoundingBox"><stop offset="0" stop-color="#ce5248"/><stop offset="1" stop-color="#ce5248"/></radialGradient><filter id="e" x="0" y="0" width="131.686" height="131.686" filterUnits="userSpaceOnUse"><feOffset dy="5" input="SourceAlpha"/><feGaussianBlur stdDeviation="7.5" result="f"/><feFlood flood-color="#e95e52" flood-opacity="0.239"/><feComposite operator="in" in2="f"/><feComposite in="SourceGraphic"/></filter><filter id="g" x="36.672" y="33.847" width="58.689" height="53.263" filterUnits="userSpaceOnUse"><feOffset dy="2" input="SourceAlpha"/><feGaussianBlur stdDeviation="2.5" result="h"/><feFlood flood-color="#ce5a50" flood-opacity="0.502"/><feComposite operator="in" in2="h"/><feComposite in="SourceGraphic"/></filter><filter id="i" x="36.672" y="33.847" width="58.689" height="53.263" filterUnits="userSpaceOnUse"><feOffset dy="2" input="SourceAlpha"/><feGaussianBlur stdDeviation="2.5" result="j"/><feFlood flood-color="#ce5a50" flood-opacity="0.502"/><feComposite operator="in" in2="j"/><feComposite in="SourceGraphic"/></filter></defs><g transform="translate(8.47 4.753)"><rect class="a" width="115" height="116"/><g transform="translate(7.095 2)"><ellipse class="b" cx="43.487" cy="43.136" rx="43.487" ry="43.136" transform="translate(6.935 11.571)"/><path class="c" d="M34.672,69.344A34.672,34.672,0,1,0,0,34.672,34.672,34.672,0,0,0,34.672,69.344Z" transform="translate(5.275 40.479) rotate(-30)"/><path class="d" d="M35.114,0A35.114,35.114,0,1,1,0,35.114,35.114,35.114,0,0,1,35.114,0Z" transform="translate(60.82 95.934) rotate(-150)"/><g transform="translate(6.935 10.747)"><g class="k" transform="matrix(1, 0, 0, 1, -22.5, -17.5)"><circle class="e" cx="43.343" cy="43.343" r="43.343" transform="translate(22.5 17.5)"/></g></g></g><g class="f" transform="translate(35.701 34.594)"><g class="j" transform="matrix(1, 0, 0, 1, -44.17, -39.35)"><path class="g" d="M111.011,496.756l3.43,3.045-12.573,11.13-5.705-5.054h-.008l-1.141-1.008-9.625,8.519v4.605l.014-.014,9.611-8.5,6.854,6.055L117.052,502.1l3.438,3.038.007.006v-8.4H111Zm-2.891-7.141a.554.554,0,0,0-.357-.132H98.11a.457.457,0,0,0-.49.49v2.464h10.633v-2.464A.555.555,0,0,0,108.12,489.615Zm-27.028,7.253v-.112a4.312,4.312,0,0,1,1.267-3l.021-.021.028-.027a4.314,4.314,0,0,1,2.842-1.26q.138-.007.28-.007h8.148v-2.464a4.312,4.312,0,0,1,1.267-3.115c.016-.017.032-.034.049-.05a4.312,4.312,0,0,1,3.115-1.266h9.653a4.312,4.312,0,0,1,3.115,1.266c.017.016.033.033.049.05a4.31,4.31,0,0,1,1.267,3.115v2.464h8.3l.126.007a4.218,4.218,0,0,1,2.842,1.281l.028.028a4.263,4.263,0,0,1,1.3,3v22.736a4.173,4.173,0,0,1-1.3,2.968c-.016.017-.032.034-.049.049a4.217,4.217,0,0,1-2.072,1.183,4.43,4.43,0,0,1-.875.111H85.53q-.064,0-.126,0h-.049c-.108,0-.215-.01-.322-.021a4.046,4.046,0,0,1-.546-.091A4.316,4.316,0,0,1,82.4,522.5l-.014-.014a4.23,4.23,0,0,1-1.295-3Zm39.4,10.339-3.438-3.052-2.569,2.275h-.007v11.74h.007v1.323h6.006ZM86.006,519.492H91.4v-4.767Zm18.775,0h6.02l-.007-9.8-6.013,5.32Zm-9.695-1.323h.007v1.323H101.1v-2.239l-6.013-5.321Z" transform="translate(-36.92 -446.2)"/></g></g><g class="h" transform="translate(35.701 34.594)"><g class="i" transform="matrix(1, 0, 0, 1, -44.17, -39.35)"><path class="g" d="M111.011,496.756l3.43,3.045-12.573,11.13-5.705-5.054h-.008l-1.141-1.008-9.625,8.519v4.605l.014-.014,9.611-8.5,6.854,6.055L117.052,502.1l3.438,3.038.007.006v-8.4H111Zm-2.891-7.141a.554.554,0,0,0-.357-.132H98.11a.457.457,0,0,0-.49.49v2.464h10.633v-2.464A.555.555,0,0,0,108.12,489.615Zm-27.028,7.253v-.112a4.312,4.312,0,0,1,1.267-3l.021-.021.028-.027a4.314,4.314,0,0,1,2.842-1.26q.138-.007.28-.007h8.148v-2.464a4.312,4.312,0,0,1,1.267-3.115c.016-.017.032-.034.049-.05a4.312,4.312,0,0,1,3.115-1.266h9.653a4.312,4.312,0,0,1,3.115,1.266c.017.016.033.033.049.05a4.31,4.31,0,0,1,1.267,3.115v2.464h8.3l.126.007a4.218,4.218,0,0,1,2.842,1.281l.028.028a4.263,4.263,0,0,1,1.3,3v22.736a4.173,4.173,0,0,1-1.3,2.968c-.016.017-.032.034-.049.049a4.217,4.217,0,0,1-2.072,1.183,4.43,4.43,0,0,1-.875.111H85.53q-.064,0-.126,0h-.049c-.108,0-.215-.01-.322-.021a4.046,4.046,0,0,1-.546-.091A4.316,4.316,0,0,1,82.4,522.5l-.014-.014a4.23,4.23,0,0,1-1.295-3Zm39.4,10.339-3.438-3.052-2.569,2.275h-.007v11.74h.007v1.323h6.006ZM86.006,519.492H91.4v-4.767Zm18.775,0h6.02l-.007-9.8-6.013,5.32Zm-9.695-1.323h.007v1.323H101.1v-2.239l-6.013-5.321Z" transform="translate(-36.92 -446.2)"/></g></g></g></svg>