<svg xmlns="http://www.w3.org/2000/svg" xmlns:xlink="http://www.w3.org/1999/xlink" width="115" height="116" viewBox="0 0 115 116"><defs><style>.a,.g{fill:#fff;}.a{opacity:0;}.b{fill:url(#a);}.c{fill:url(#b);}.d,.e,.f{mix-blend-mode:multiply;}.d,.e,.f,.h{isolation:isolate;}.d{fill:url(#c);}.e{fill:url(#d);}.g{fill-rule:evenodd;}.i{filter:url(#k);}.j{filter:url(#i);}.k{filter:url(#g);}.l{filter:url(#e);}</style><linearGradient id="a" x1="0.5" x2="0.5" y2="1" gradientUnits="objectBoundingBox"><stop offset="0" stop-color="#fff"/><stop offset="1" stop-color="#f5f5f5"/></linearGradient><linearGradient id="b" x1="0.5" y1="1" x2="0.5" gradientUnits="objectBoundingBox"><stop offset="0" stop-color="#fff"/><stop offset="0.753" stop-color="#fcfbfb"/><stop offset="1" stop-color="#eaeaea"/></linearGradient><linearGradient id="c" x1="0.5" x2="0.5" y2="1" gradientUnits="objectBoundingBox"><stop offset="0" stop-color="#fff"/><stop offset="0.753" stop-color="#fcfbfb"/><stop offset="1" stop-color="#ededed"/></linearGradient><radialGradient id="d" cx="0.5" cy="0.5" r="0.5" gradientUnits="objectBoundingBox"><stop offset="0" stop-color="#ce5248"/><stop offset="1" stop-color="#ce5248"/></radialGradient><filter id="e" x="37.75" y="63.318" width="41.171" height="21.308" filterUnits="userSpaceOnUse"><feOffset dy="2" input="SourceAlpha"/><feGaussianBlur stdDeviation="3" result="f"/><feFlood flood-color="#ce5a50" flood-opacity="0.502"/><feComposite operator="in" in2="f"/><feComposite in="SourceGraphic"/></filter><filter id="g" x="26.509" y="28.811" width="63.791" height="49.883" filterUnits="userSpaceOnUse"><feOffset dy="2" input="SourceAlpha"/><feGaussianBlur stdDeviation="2.5" result="h"/><feFlood flood-color="#ce5a50" flood-opacity="0.471"/><feComposite operator="in" in2="h"/><feComposite in="SourceGraphic"/></filter><filter id="i" x="37.75" y="63.318" width="41.171" height="21.308" filterUnits="userSpaceOnUse"><feOffset dy="2" input="SourceAlpha"/><feGaussianBlur stdDeviation="3" result="j"/><feFlood flood-color="#ce5a50" flood-opacity="0.502"/><feComposite operator="in" in2="j"/><feComposite in="SourceGraphic"/></filter><filter id="k" x="26.509" y="28.811" width="63.791" height="49.883" filterUnits="userSpaceOnUse"><feOffset dy="2" input="SourceAlpha"/><feGaussianBlur stdDeviation="2.5" result="l"/><feFlood flood-color="#ce5a50" flood-opacity="0.471"/><feComposite operator="in" in2="l"/><feComposite in="SourceGraphic"/></filter></defs><rect class="a" width="115" height="116"/><g transform="translate(7.405 2)"><ellipse class="b" cx="43.487" cy="43.136" rx="43.487" ry="43.136" transform="translate(6.935 11.571)"/><path class="c" d="M34.672,69.344A34.672,34.672,0,1,0,0,34.672,34.672,34.672,0,0,0,34.672,69.344Z" transform="translate(5.275 40.479) rotate(-30)"/><path class="d" d="M35.114,0A35.114,35.114,0,1,1,0,35.114,35.114,35.114,0,0,1,35.114,0Z" transform="translate(60.82 95.934) rotate(-150)"/><g transform="translate(6.935 11.614)"><circle class="e" cx="43.343" cy="43.343" r="43.343" transform="translate(0 0)"/></g></g><g class="f" transform="translate(34.009 34.311)"><g transform="translate(0 0)"><g transform="translate(12.74 36.008)"><g class="l" transform="matrix(1, 0, 0, 1, -46.75, -70.32)"><path class="g" d="M976.326,566.473l1.338,3.308H954.493l1.338-3.308Z" transform="translate(-907.74 -496.15)"/></g></g><g transform="translate(0 0)"><g class="k" transform="matrix(1, 0, 0, 1, -34.01, -34.31)"><path class="g" d="M930.034,488.781a9.3,9.3,0,0,0,8.27-.141,24.7,24.7,0,0,1,8.411-2.372c-.021-.02-.043-.041-.064-.063a2.928,2.928,0,1,1,4.139,0c-.021.022-.042.043-.063.063a24.676,24.676,0,0,1,8.4,2.372,9.309,9.309,0,0,0,8.277.141l1.513,3.2a12.944,12.944,0,0,1-3.575,1.126l5.807,11.409h1.963a9.823,9.823,0,0,1-2.484,3.99,10.06,10.06,0,0,1-14.232,0,9.8,9.8,0,0,1-2.477-3.99h1.957l5.807-11.4a14.477,14.477,0,0,1-4.061-1.282,21.3,21.3,0,0,0-7.144-2.034v22.994q.959,0,1.921,0c.106,0,.214,0,.324,0h.451l.007.008h-.141l1.337,3.294H942.921l1.337-3.294v-.008h2.7V489.794a21.3,21.3,0,0,0-7.144,2.034,14.524,14.524,0,0,1-4.068,1.282l5.807,11.4h1.963a10.156,10.156,0,0,1-9.6,6.939A9.7,9.7,0,0,1,926.8,508.5a9.806,9.806,0,0,1-2.478-3.99h1.965L932.1,493.1a12.944,12.944,0,0,1-3.575-1.126Zm28.934,15.731h9.094l-4.546-8.932Zm-20.5,0-4.554-8.932-4.547,8.932Z" transform="translate(-890.32 -446.9)"/></g></g></g></g><g class="h" transform="translate(34.009 34.311)"><g transform="translate(0 0)"><g transform="translate(12.74 36.008)"><g class="j" transform="matrix(1, 0, 0, 1, -46.75, -70.32)"><path class="g" d="M976.326,566.473l1.338,3.308H954.493l1.338-3.308Z" transform="translate(-907.74 -496.15)"/></g></g><g transform="translate(0 0)"><g class="i" transform="matrix(1, 0, 0, 1, -34.01, -34.31)"><path class="g" d="M930.034,488.781a9.3,9.3,0,0,0,8.27-.141,24.7,24.7,0,0,1,8.411-2.372c-.021-.02-.043-.041-.064-.063a2.928,2.928,0,1,1,4.139,0c-.021.022-.042.043-.063.063a24.676,24.676,0,0,1,8.4,2.372,9.309,9.309,0,0,0,8.277.141l1.513,3.2a12.944,12.944,0,0,1-3.575,1.126l5.807,11.409h1.963a9.823,9.823,0,0,1-2.484,3.99,10.06,10.06,0,0,1-14.232,0,9.8,9.8,0,0,1-2.477-3.99h1.957l5.807-11.4a14.477,14.477,0,0,1-4.061-1.282,21.3,21.3,0,0,0-7.144-2.034v22.994q.959,0,1.921,0c.106,0,.214,0,.324,0h.451l.007.008h-.141l1.337,3.294H942.921l1.337-3.294v-.008h2.7V489.794a21.3,21.3,0,0,0-7.144,2.034,14.524,14.524,0,0,1-4.068,1.282l5.807,11.4h1.963a10.156,10.156,0,0,1-9.6,6.939A9.7,9.7,0,0,1,926.8,508.5a9.806,9.806,0,0,1-2.478-3.99h1.965L932.1,493.1a12.944,12.944,0,0,1-3.575-1.126Zm28.934,15.731h9.094l-4.546-8.932Zm-20.5,0-4.554-8.932-4.547,8.932Z" transform="translate(-890.32 -446.9)"/></g></g></g></g></svg>