<svg xmlns="http://www.w3.org/2000/svg" width="242.553" height="26.389" viewBox="0 0 242.553 26.389">
  <g id="グループ_22932" data-name="グループ 22932" transform="translate(-192.691 -366.144)">
    <g id="グループ_22931" data-name="グループ 22931" transform="translate(362.273 369.807)">
      <path id="パス_13349" data-name="パス 13349" d="M272.885,385.06l4.532,3.794H274.55a3.277,3.277,0,0,1-2.1-.754L271,386.882l-.643-.543c-4.219,5.362-10.178,4.416-13.205,1.708-2.395-2.143-2.1-6.324-.206-8.5a10.591,10.591,0,0,1,2.808-2.132l-.213-.184c-2.373-2.222-2.895-5.754-.3-8.008,1.613-1.522,4.554-2.286,6.605-1.24a3.712,3.712,0,0,1,2.324,3.935c-2.068-1.843-5.443-3.422-7.427-.619a3.1,3.1,0,0,0,.268,3.573,31.154,31.154,0,0,0,2.713,2.54C265.256,378.766,271.415,383.844,272.885,385.06Zm-4.23-.005-.23-.189-7.076-5.873h-.162a5.463,5.463,0,0,0-2.905,4.3,4.006,4.006,0,0,0,.973,2.87C261.858,389.03,266.866,387.233,268.655,385.055Z" transform="translate(-255.437 -367.5)" fill="#e95e52"/>
    </g>
    <path id="パス_13350" data-name="パス 13350" d="M205.263,376.322c-3.389-.343-6.295-.93-6.295-3.027,0-1.786,1.895-3.2,5.849-3.2a9.485,9.485,0,0,1,6.165,2.081,1.282,1.282,0,0,0,1.4.222l2.732-1.2a.577.577,0,0,0,.262-.873c-2.265-3.235-6.562-4.186-10.716-4.186-5.205.035-10.935,2.062-10.935,7.013,0,5.4,5.327,6.705,11.094,7.292,3.754.343,6.538,1.27,6.538,3.541,0,2.613-3.146,3.611-6.5,3.611-3.041,0-5.957-.919-7.449-2.976a1.277,1.277,0,0,0-1.551-.376l-2.811,1.241a.586.586,0,0,0-.284.819c2.2,3.967,6.5,5.349,12.016,5.349,6.294,0,11.862-2.3,11.862-7.667C216.642,378.247,211.155,376.941,205.263,376.322Z" transform="translate(0 0)" fill="#bbbab7"/>
    <path id="パス_13351" data-name="パス 13351" d="M218.722,366.227c-3.63,0-7.259.022-10.889.03a2.29,2.29,0,0,0-2.373,2.186v22.313a.55.55,0,0,0,.562.535H210.2a.55.55,0,0,0,.562-.535v-6.295a.552.552,0,0,1,.565-.535h7.395C232.508,383.927,232.47,366.227,218.722,366.227Zm0,13.373h-7.959v-8.332a.552.552,0,0,1,.565-.538h7.395C225.476,370.73,225.514,379.6,218.722,379.6Z" transform="translate(21.741 0.141)" fill="#bbbab7"/>
    <path id="パス_13352" data-name="パス 13352" d="M234.43,367.647a2.546,2.546,0,0,0-2.3-1.408h-2.376a2.543,2.543,0,0,0-2.3,1.408l-11.478,23.762.092.149h4.362a1.674,1.674,0,0,0,1.5-.935l1.795-3.665a.306.306,0,0,1,.276-.173h13.867a.318.318,0,0,1,.284.179l1.762,3.667a1.643,1.643,0,0,0,1.478.927h4.411l.095-.149Zm-8.673,14.71,4.7-10a.539.539,0,0,1,.976,0l4.7,10Z" transform="translate(39.656 0.162)" fill="#bbbab7"/>
    <path id="パス_13353" data-name="パス 13353" d="M267.157,391.083l-12.848-11.994a1.039,1.039,0,0,1-.011-1.516l11.676-11.2a.1.1,0,0,0-.073-.176h-5.522a2.318,2.318,0,0,0-1.63.659l-10.032,9.94v-9.692a.952.952,0,0,0-.987-.908h-3.324a.96.96,0,0,0-1,.919V390.8a.551.551,0,0,0,.565.538h4.178a.552.552,0,0,0,.565-.538v-10.64l11.124,10.478a2.328,2.328,0,0,0,1.589.622h5.657A.1.1,0,0,0,267.157,391.083Z" transform="translate(86.355 0.09)" fill="#bbbab7"/>
    <path id="パス_13354" data-name="パス 13354" d="M245.43,382.505l.968-.084c5.265-.967,7.005-4.435,7.005-7.867,0-4.324-3.443-8.259-9.973-8.3-3.6,0-7.208-.022-10.811-.03a2.292,2.292,0,0,0-2.373,2.211v22.316a.546.546,0,0,0,.557.535h4.116a.546.546,0,0,0,.554-.535v-7.295a.546.546,0,0,1,.557-.535h2.622a1.152,1.152,0,0,1,.8.316l7.886,7.427a2.31,2.31,0,0,0,1.589.622h5.657a.1.1,0,0,0,.07-.176Zm-9.957-3.838v-7.473a.547.547,0,0,1,.557-.538h7.4c3.284,0,4.749,2,4.749,4.005s-1.422,4.005-4.749,4.005Z" transform="translate(63.943 0.141)" fill="#bbbab7"/>
    <path id="パス_13355" data-name="パス 13355" d="M283.008,374.01a2.1,2.1,0,1,0,0,4.2,2.1,2.1,0,0,0,0-4.2Z" transform="translate(150.158 13.393)" fill="#6a6a6a"/>
    <path id="パス_13356" data-name="パス 13356" d="M275.295,368.5a9.7,9.7,0,1,0,0,19.4,9.586,9.586,0,0,0,7.73-3.895l-2.541-1.5a6.774,6.774,0,1,1,0-8.608l2.541-1.5A9.584,9.584,0,0,0,275.295,368.5Z" transform="translate(124.131 4.011)" fill="#6a6a6a"/>
    <path id="パス_13357" data-name="パス 13357" d="M282.552,368.5a9.7,9.7,0,1,0,9.7,9.7A9.71,9.71,0,0,0,282.552,368.5Zm0,16.473a6.774,6.774,0,1,1,6.773-6.775A6.783,6.783,0,0,1,282.552,384.973Z" transform="translate(136.487 4.011)" fill="#6a6a6a"/>
  </g>
</svg>
