<svg xmlns="http://www.w3.org/2000/svg" width="115.359" height="115.974" xmlns:v="https://vecta.io/nano"><style><![CDATA[.C{mix-blend-mode:multiply;isolation:isolate}.I{flood-color:#ce5a50}.J{fill:#ce5a50}.K{fill-rule:evenodd}.L{flood-opacity:.502}.M{flood-opacity:.51}]]></style><defs><linearGradient id="A" x1=".5" x2=".5" y2="1"><stop offset="0" stop-color="#fff"/><stop offset="1" stop-color="#f5f5f5"/></linearGradient><linearGradient id="B" x1=".5" y1="1" x2=".5"><stop offset="0" stop-color="#fff"/><stop offset=".753" stop-color="#fcfbfb"/><stop offset="1" stop-color="#eaeaea"/></linearGradient><linearGradient id="C" x1=".5" x2=".5" y2="1"><stop offset="0" stop-color="#fff"/><stop offset=".753" stop-color="#fcfbfb"/><stop offset="1" stop-color="#ededed"/></linearGradient><filter id="D" x="26.031" y="31.822" width="60.369" height="63.936" filterUnits="userSpaceOnUse"><feOffset dy="2"/><feGaussianBlur stdDeviation="2.5" result="A"/><feFlood class="I L"/><feComposite operator="in" in2="A"/><feComposite in="SourceGraphic"/></filter><filter id="E" x="48.369" y="66.3" width="42.4" height="11.815" filterUnits="userSpaceOnUse"><feOffset dy="1"/><feGaussianBlur stdDeviation="1.5" result="A"/><feFlood class="I M"/><feComposite operator="in" in2="A"/><feComposite in="SourceGraphic"/></filter><filter id="F" x="50.371" y="45.945" width="38.397" height="29.563" filterUnits="userSpaceOnUse"><feOffset dy="1"/><feGaussianBlur stdDeviation="2" result="A"/><feFlood class="I M"/><feComposite operator="in" in2="A"/><feComposite in="SourceGraphic"/></filter><filter id="G" x="62.213" y="51.725" width="16.186" height="17.814" filterUnits="userSpaceOnUse"><feOffset dy="1"/><feGaussianBlur stdDeviation="1.5" result="A"/><feFlood class="I L"/><feComposite operator="in" in2="A"/><feComposite in="SourceGraphic"/></filter></defs><g transform="translate(-190.457 -9765.603)"><ellipse cx="248.261" cy="9828.712" rx="50.166" ry="49.761" fill="url(#A)"/><path d="M40,79.994A40,40,0,1,0,0,40,40,40,0,0,0,40,79.994Z" transform="matrix(.866025 -.5 .5 .866025 196.542 9812.299)" opacity=".51" fill="url(#B)"/><path class="C" d="M40.508,0A40.508,40.508,0,1,1,0,40.508,40.507,40.507,0,0,1,40.508,0Z" transform="matrix(-.866025 -.5 .5 -.866025 260.618 9876.271)" fill="url(#C)"/></g><g transform="translate(33.531 37.322)" class="J K"><g transform="translate(-33.53 -37.32)" filter="url(#D)"><path d="M98.648 96.691c.367-1.033.795-2.044 1.28-3.027q.167-.365.375-.731c.521-.996 1.114-1.953 1.774-2.862a20.93 20.93 0 0 0-6.446 4.215c.936.885 1.945 1.69 3.017 2.405zm11.274-11.274h.722l.265.009c6.286.052 12.287 2.625 16.659 7.141q.29.29.567.585l.11.1a25.33 25.33 0 0 1 2.907 3.758h-12.489q-.406-1.043-.9-2.02-.018-.043-.036-.082a5.27 5.27 0 0 0-.238-.485c-.005-.01-.011-.019-.018-.027q-2.456-4.634-5.651-5.623v8.237h-1.78c-.461-.003-.918.087-1.344.265v-8.5q-3.2.989-5.651 5.623c-.007.008-.013.017-.018.027q-.134.242-.238.485-.019.039-.036.082c-.522 1.046-.971 2.128-1.344 3.236 1.672.76 3.441 1.286 5.257 1.564a3.41 3.41 0 0 0-.064.658v2.487a23.54 23.54 0 0 1-6.035-1.683q-.077.337-.146.676a38.22 38.22 0 0 0-.723 6.4h6.9v3.109H99.7c.062 2.144.304 4.279.723 6.382q.07.337.146.668a23.26 23.26 0 0 1 2.56-.924 2.1 2.1 0 0 0-.027.33v.42a4.29 4.29 0 0 0 .649 2.323c-.798.245-1.58.541-2.34.887.376 1.114.825 2.201 1.344 3.255.005.01.011.019.018.027q.112.243.256.5c.005.01.011.019.018.027q2.456 4.649 5.651 5.632v-8.236h3.127v8.238q3.2-.984 5.651-5.632c.007-.008.013-.017.018-.027q.144-.259.256-.5c.007-.008.013-.017.018-.027q.492-1 .905-2.048h6.583v.009l5.9-.009c-.848 1.34-1.819 2.598-2.9 3.758l-.046.037-.037.037c-.011.013-.024.025-.037.036l-.567.567c-4.366 4.527-10.37 7.107-16.659 7.159a4.63 4.63 0 0 1-.265.009h-.119l-.064.009c-.064.008-.129.011-.193.009h-.018c-.064.002-.128-.001-.192-.009l-.064-.009h-.118c-.089 0-.178 0-.265-.009-6.289-.052-12.293-2.632-16.659-7.159l-.567-.567q-.019-.017-.036-.036l-.036-.037-.046-.037a24.2 24.2 0 0 1-4.919-7.79l-.009-.009a24.61 24.61 0 0 1-1.555-8.768v-.073c-.02-3 .51-5.978 1.564-8.787 1.12-2.898 2.794-5.55 4.929-7.808l.109-.1q.277-.295.567-.585c4.372-4.516 10.374-7.089 16.659-7.141.087 0 .176-.008.265-.009zm10.67 8.247a28.06 28.06 0 0 1 1.28 3.027 22.8 22.8 0 0 0 3.017-2.405 20.92 20.92 0 0 0-6.446-4.215c.66.909 1.253 1.866 1.774 2.862q.208.367.374.731zm-22.877 26.305q-.191-.756-.347-1.527c-.463-2.307-.73-4.648-.8-7h-7.621c.125 2.099.566 4.167 1.308 6.135l-.009-.009c.788 2.03 1.89 3.925 3.264 5.614a24.4 24.4 0 0 1 4.205-3.213zm0-20.188a25.04 25.04 0 0 1-4.2-3.219 20.08 20.08 0 0 0-4.571 11.767h7.626c.067-2.359.335-4.708.8-7.022q.156-.776.345-1.526zm22.858 26.342q-.158.327-.357.676c-.521 1.003-1.117 1.966-1.783 2.88 2.39-.996 4.573-2.428 6.437-4.224a21.87 21.87 0 0 0-3-2.405 29.19 29.19 0 0 1-1.325 3.109zm-20.273.677q-.2-.35-.357-.676l.027.036c-.501-1.01-.944-2.048-1.326-3.109-1.069.712-2.073 1.517-3 2.405a20.82 20.82 0 0 0 6.437 4.224 22.48 22.48 0 0 1-1.781-2.88z" transform="translate(-52.25 -48.09)"/></g><g transform="translate(-33.532 -37.323)" filter="url(#E)"><path d="M154.433 145.037a2.4 2.4 0 0 1-2.386 2.4h-28.618c-.592.009-1.165-.211-1.6-.613l-.092-.091a2.32 2.32 0 0 1-.7-1.692v-.42h12.426v.082c.016.614.51 1.109 1.124 1.125h6.3c.302.001.591-.121.8-.338a1.07 1.07 0 0 0 .338-.787v-.082h12.407z" transform="translate(-68.16 -74.82)"/></g><g transform="translate(-33.53 -37.327)" filter="url(#F)"><path d="M151.016 113.066h-20.784V125h20.783zm-23.526-1.838c.069-.209.189-.397.348-.549.26-.275.622-.431 1-.43h23.58c.768.028 1.381.649 1.4 1.417v16.147h-26.4v-16.146c0-.149.024-.298.072-.439z" transform="translate(-71.04 -59.3)"/></g><g transform="translate(-33.529 -37.317)" filter="url(#G)"><path d="M150.875,123.9l1.1,1.893-1.856,1.07-1.088-1.893-1.884,1.893-.878-8.814,7.186,5.175Z" transform="translate(-79.55 -62.83)"/></g></g></svg>