<svg xmlns="http://www.w3.org/2000/svg" width="115.359" height="115.974" xmlns:v="https://vecta.io/nano"><style><![CDATA[.C{mix-blend-mode:multiply;isolation:isolate}]]></style><defs><linearGradient id="A" x1=".5" x2=".5" y2="1"><stop offset="0" stop-color="#fff"/><stop offset="1" stop-color="#f5f5f5"/></linearGradient><linearGradient id="B" x1=".5" y1="1" x2=".5"><stop offset="0" stop-color="#fff"/><stop offset=".753" stop-color="#fcfbfb"/><stop offset="1" stop-color="#eaeaea"/></linearGradient><linearGradient id="C" x1=".5" x2=".5" y2="1"><stop offset="0" stop-color="#fff"/><stop offset=".753" stop-color="#fcfbfb"/><stop offset="1" stop-color="#ededed"/></linearGradient><filter id="D" x="20.549" y="31.577" width="73.666" height="63.168" filterUnits="userSpaceOnUse"><feOffset dy="2"/><feGaussianBlur stdDeviation="2.5" result="A"/><feFlood flood-color="#ce5a50" flood-opacity=".49"/><feComposite operator="in" in2="A"/><feComposite in="SourceGraphic"/></filter></defs><g transform="translate(-190.457 -9765.603)"><ellipse cx="248.261" cy="9828.712" rx="50.166" ry="49.761" fill="url(#A)"/><path d="M40,79.994A40,40,0,1,0,0,40,40,40,0,0,0,40,79.994Z" transform="matrix(.866025 -.5 .5 .866025 196.542 9812.299)" opacity=".51" fill="url(#B)"/><path class="C" d="M40.508,0A40.508,40.508,0,1,1,0,40.508,40.507,40.507,0,0,1,40.508,0Z" transform="matrix(-.866025 -.5 .5 -.866025 260.618 9876.271)" fill="url(#C)"/></g><g transform="translate(28.049 37.077)"><g transform="translate(-28.05 -37.08)" filter="url(#D)"><path d="M90.86,484.614a3.669,3.669,0,0,1,2.4-.924H106.62a3.692,3.692,0,0,1,2.406.924,3.805,3.805,0,0,1,1.369,2.206l.087.462h4.8a3.7,3.7,0,0,1,2.4.9c.006.006.011.012.017.017a3.807,3.807,0,0,1,1.36,2.214h1.909a3.881,3.881,0,0,1,2.441.915,4.084,4.084,0,0,1,1.473,2.223l.942,3.7h.409a3.125,3.125,0,0,1,3.138,3.129v3.705h.131a3.125,3.125,0,0,1,3.13,3.13v3.713a3.124,3.124,0,0,1-2.658,3.094,3.272,3.272,0,0,1-.4.035h-1.543l-.41,2.232a3.719,3.719,0,0,1-1.316,2.223,3.583,3.583,0,0,1-2.38.906h-1.438l-.009.035a4.2,4.2,0,0,1-3.26,3.957q-3.02.917-2.371,6.25l-2.607.819-1.421-12.83,4.951-3.853a3.639,3.639,0,0,0,2.362.82,3.817,3.817,0,0,0,.5-7.6l-.411-3.652a3.755,3.755,0,0,0,1.387-.9,3.816,3.816,0,0,0-5.4-5.4c-.105.106-.2.213-.3.323l-2.746-1.264a4.113,4.113,0,0,0,.061-.706v-.009a3.645,3.645,0,0,0-.968-2.527c-.048-.053-.1-.106-.149-.157a3.818,3.818,0,0,0-5.378,0c-.051.051-.1.1-.149.157l-.131.148-2.755-1.272a3.881,3.881,0,0,0,.062-.7,3.811,3.811,0,1,0-1.116,2.694,3.9,3.9,0,0,0,.27-.3l2.764,1.273a3.74,3.74,0,0,0-.062.679v.009a3.809,3.809,0,0,0,6.494,2.693c.1-.1.187-.2.271-.3l2.763,1.272a4.314,4.314,0,0,0-.052.68,3.81,3.81,0,0,0,3.277,3.774l.409,3.679a3.738,3.738,0,0,0-1.342.88,3.669,3.669,0,0,0-1.116,2.694,3.754,3.754,0,0,0,.314,1.542l-4.062,3.164-.61-5.483a3.758,3.758,0,0,0,1.377-.9,3.812,3.812,0,1,0-5.387-5.4,3.544,3.544,0,0,0-.279.313l-2.746-1.264a3.983,3.983,0,0,0,.061-.706,3.871,3.871,0,1,0-.846,2.4l2.755,1.272a3.735,3.735,0,0,0-.062.689,3.8,3.8,0,0,0,.332,1.594l-2.476,2.005a3.634,3.634,0,0,0-2.283-.758,3.685,3.685,0,0,0-2.7,1.116,3.4,3.4,0,0,0-.28.314l-2.754-1.264a4.014,4.014,0,0,0,.061-.707,3.815,3.815,0,0,0-6.512-2.693,4.119,4.119,0,0,0-.279.3l-2.737-1.264a4.177,4.177,0,0,0,.06-.715,3.751,3.751,0,0,0-.339-1.605l2.475-1.995a3.755,3.755,0,1,0-1.168-1.448l-2.475,2a3.817,3.817,0,1,0,.392,5.744c.092-.092.179-.184.262-.278l2.755,1.263a3.773,3.773,0,0,0-.061.688,3.816,3.816,0,0,0,6.512,2.7,3.34,3.34,0,0,0,.27-.306l2.764,1.264a3.909,3.909,0,0,0-.061.7,3.814,3.814,0,0,0,7.627,0,3.781,3.781,0,0,0-.34-1.612l2.475-2a3.53,3.53,0,0,0,1.761.732q1.163,10.429,2.328,20.859l-2.58.793-3.941-10.164h-4a3.665,3.665,0,0,1-2.4-.915,3.823,3.823,0,0,1-1.369-2.214l-.1-.462h-4.8a3.672,3.672,0,0,1-2.38-.907l-.017-.008a3.824,3.824,0,0,1-1.369-2.214l-.1-.453h-4.8a3.7,3.7,0,0,1-2.406-.924,3.813,3.813,0,0,1-1.369-2.214l-.087-.453H77.017a3.329,3.329,0,0,1-.4-.036,3.128,3.128,0,0,1-2.651-3.1v-3.7a3.109,3.109,0,0,1,3.121-3.129h.131v-3.705a3.017,3.017,0,0,1,.915-2.214,3.05,3.05,0,0,1,2.223-.924h.409l.942-3.7a4.069,4.069,0,0,1,1.464-2.223,3.861,3.861,0,0,1,2.45-.906H89.4l.1-.462A3.8,3.8,0,0,1,90.86,484.614Z" transform="translate(-45.92 -446.61)" fill="#ce5248" fill-rule="evenodd"/></g><path d="M48.113 27.108c-.006 1.076-.876 1.946-1.952 1.953a1.94 1.94 0 0 1-.8-.165c-.214-.103-.409-.242-.575-.411a1.94 1.94 0 0 1-.576-1.377c0-.517.207-1.013.576-1.377a2.23 2.23 0 0 1 .252-.218 1.86 1.86 0 0 1 1.125-.358c.244-.002.487.043.715.131a2 2 0 0 1 .662.445c.373.36.581.858.573 1.377zm-5.129-11.026a1.89 1.89 0 0 1 .585-1.377 1.72 1.72 0 0 1 .191-.166 1.84 1.84 0 0 1 1.185-.409 1.86 1.86 0 0 1 1.369.575c.373.361.584.858.584 1.377s-.211 1.016-.584 1.377a1.93 1.93 0 0 1-.279.235 1.84 1.84 0 0 1-1.09.34 1.91 1.91 0 0 1-.758-.148 1.98 1.98 0 0 1-.619-.427 1.87 1.87 0 0 1-.575-1.22l-.009-.157zm-8.988-5.639l.009-.009.07-.07.008-.017a2.17 2.17 0 0 1 .2-.175c.775-.571 1.848-.496 2.537.175l.008.017.079.07.008.009c.292.317.462.728.479 1.159v.121.009a1.86 1.86 0 0 1-.566 1.368c-.07.07-.145.134-.226.191-.331.251-.736.383-1.151.375a1.88 1.88 0 0 1-1.377-.566 1.83 1.83 0 0 1-.558-1.229 1.08 1.08 0 0 1-.008-.139v-.009c-.007-.473.168-.931.488-1.28zm-6.632-4.446a1.89 1.89 0 0 1 .575 1.246v.131c.007.519-.201 1.017-.575 1.377a2.37 2.37 0 0 1-.218.192c-.332.255-.741.39-1.16.383a1.95 1.95 0 1 1 1.378-3.33zm-11.568 8.036a1.95 1.95 0 1 1 1.186 1.8 1.92 1.92 0 0 1-.61-.419 1.89 1.89 0 0 1-.55-1.037 2.26 2.26 0 0 1-.026-.344zm-8.264 6.643c.007-1.076.877-1.946 1.953-1.953a1.91 1.91 0 0 1 .758.148 1.98 1.98 0 0 1 .619.428 1.9 1.9 0 0 1 .55 1.019l.026.244v.113c.007.519-.201 1.017-.575 1.377a2.26 2.26 0 0 1-.226.2c-.594.428-1.378.488-2.03.156a1.96 1.96 0 0 1-1.07-1.733zm13.372 4.366c.007.519-.202 1.017-.576 1.377-.068.069-.141.133-.218.192a1.85 1.85 0 0 1-1.16.384 1.88 1.88 0 0 1-1.378-.576 1.85 1.85 0 0 1-.566-1.237 1.11 1.11 0 0 1-.009-.14 1.88 1.88 0 0 1 .575-1.377 2 2 0 0 1 .209-.183 1.84 1.84 0 0 1 1.168-.392 1.87 1.87 0 0 1 1.377.575c.343.331.549.779.576 1.255zm6.364 2.799a1.87 1.87 0 0 1 1.177-.392 1.91 1.91 0 0 1 .741.14 1.97 1.97 0 0 1 .636.436 1.87 1.87 0 0 1 .541 1.011 1.94 1.94 0 0 1-.541 1.743 1.95 1.95 0 0 1-3.321-1.237 1.14 1.14 0 0 1-.008-.14c-.007-.519.201-1.017.575-1.377l.2-.184zm7.461-5.099a1.88 1.88 0 0 1 .575-1.378 2.09 2.09 0 0 1 .21-.183 1.85 1.85 0 0 1 1.168-.392 1.95 1.95 0 0 1 1.377 3.33c-.086.086-.18.165-.279.235-.545.371-1.239.443-1.848.191h-.009a1.99 1.99 0 0 1-.619-.426 1.89 1.89 0 0 1-.549-1.046l-.018-.192a1.08 1.08 0 0 1-.008-.139zm-5.561-4.481v.123c.006.519-.202 1.017-.575 1.377a2.65 2.65 0 0 1-.218.192c-.776.575-1.856.493-2.536-.192a1.95 1.95 0 0 1 .854-3.298 1.95 1.95 0 0 1 1.9.544l.052.052.035.035.07.078c.024.026.035.044.052.07a1.87 1.87 0 0 1 .366 1.019z" fill="#ce5248" fill-rule="evenodd"/></g></svg>