<svg xmlns="http://www.w3.org/2000/svg" width="267.221" height="27.109"><path d="M199.088 22.256l4.635 4.066v.1h-4.139l-2.477-2.164h-.142c-2.084 1.656-4.679 2.537-7.341 2.492q-4.192 0-6.35-2a6.01 6.01 0 0 1-2.157-4.492 6.31 6.31 0 0 1 1.238-4.049 10.13 10.13 0 0 1 2.725-2.443v-.1a10.53 10.53 0 0 1-1.593-2.23 5.46 5.46 0 0 1-.531-2.492c-.02-1.553.637-3.037 1.8-4.066a6.45 6.45 0 0 1 4.564-1.672c.8-.001 1.597.103 2.37.31a3.68 3.68 0 0 1 2.808 3.595l-.013.521a7.13 7.13 0 0 0-4.776-1.869c-1.362-.125-2.679.524-3.411 1.679a2.8 2.8 0 0 0-.373 1.477c-.011.774.231 1.531.689 2.155a21.82 21.82 0 0 0 2.848 2.787l7.324 6.394zm-4.21.2v-.133l-7.748-6.722h-.177a5.16 5.16 0 0 0-2.795 4.492 3.57 3.57 0 0 0 1.539 2.967 6.12 6.12 0 0 0 3.8 1.164 8.66 8.66 0 0 0 5.378-1.771z" fill="#f5371f"/><path d="M231.504 10.296c-1.594-4.405-5.521-7.023-10.573-7.023a11.63 11.63 0 0 0-11.517 11.625 11.63 11.63 0 0 0 11.517 11.625c5.063 0 8.99-2.618 10.574-7.023h-4.407a.75.75 0 0 0-.644.358 6.08 6.08 0 0 1-5.557 3.007c-4.318 0-7.218-3.195-7.218-7.95s2.9-7.95 7.218-7.95a6.1 6.1 0 0 1 5.555 2.978c.137.222.38.356.641.354zm15.602-7.093a11.66 11.66 0 1 0 11.641 11.642 11.4 11.4 0 0 0-11.641-11.642zm0 19.659c-4.417 0-7.384-3.222-7.384-8.017 0-4.755 2.968-7.95 7.384-7.95 4.4 0 7.351 3.195 7.351 7.95-.004 4.798-2.959 8.02-7.351 8.02zm17.632 2.857a2.51 2.51 0 1 1 2.482-2.512 2.46 2.46 0 0 1-2.482 2.512z" fill="#444"/><path d="M20.38 6.749a1.02 1.02 0 0 1-1.133-.223 9.81 9.81 0 0 0-6.615-2.323c-4.169 0-6.168 1.5-6.168 3.4 0 2.229 3.063 2.85 6.636 3.215 6.212.658 12 2.046 12 8.147 0 5.7-5.871 8.147-12.507 8.147-5.623 0-10.047-1.373-12.432-5.275-.161-.246-.204-.551-.117-.832s.295-.508.567-.62l2.853-1.27c.449-.199.976-.044 1.247.365 1.538 2.3 4.682 3.32 7.966 3.32 3.531 0 6.849-1.06 6.849-3.836 0-2.411-2.935-3.4-6.893-3.763-6.083-.621-11.7-2.01-11.7-7.745C.933 2.195 6.975.039 12.462.003c4.183 0 8.505.922 10.967 4a1.01 1.01 0 0 1-.369 1.567zm29.821 12.323h-7.835c-.156-.004-.306.055-.419.162a.58.58 0 0 0-.181.411v6.72c-.003.156-.069.303-.181.411a.58.58 0 0 1-.419.162h-4.425c-.156.004-.306-.055-.419-.162a.58.58 0 0 1-.181-.411V2.539c.054-1.338 1.178-2.381 2.516-2.334L50.194.171c14.575.001 14.618 18.901.007 18.901zm-8.433-4.618h8.433c7.2 0 7.156-9.471 0-9.471h-7.835c-.156-.004-.306.055-.419.162a.58.58 0 0 0-.181.411zm46.666 7.444H74.621a.9.9 0 0 0-.81.506l-1.834 3.772a1.35 1.35 0 0 1-1.215.76h-4.993L77.877 1.693A2.66 2.66 0 0 1 80.283.208h2.492a2.66 2.66 0 0 1 2.406 1.486l12.106 25.242h-5.026a1.35 1.35 0 0 1-1.219-.768l-1.8-3.758a.9.9 0 0 0-.808-.512zm-7.4-15l-4.809 10.306H86.84L82.034 6.898a.55.55 0 0 0-1.004-.004zm51.63 20.039h-6.411l-8.329-8.933h-4.61c-.317 0-.573.256-.574.573v7.787a.57.57 0 0 1-.573.573h-4.245a.57.57 0 0 1-.405-.168c-.107-.108-.168-.253-.168-.405V2.536a2.4 2.4 0 0 1 2.446-2.361l11.152.034c6.735.039 10.287 4.24 10.287 8.858 0 3.666-1.8 7.368-7.227 8.4l8.656 9.125zM112.74 5.48v7.98h8.207c3.43 0 4.9-2.14 4.9-4.277s-1.512-4.275-4.9-4.275h-7.634c-.316 0-.572.256-.573.572zM169.049.363L156.558 12.34c-.222.211-.347.504-.345.81s.131.598.356.805l13.595 12.675v.306h-6a2.47 2.47 0 0 1-1.694-.663l-11.865-11.174v11.264a.59.59 0 0 1-.6.573h-4.456a.59.59 0 0 1-.6-.573V1.188c.025-.564.5-1.001 1.064-.979h3.544a1.01 1.01 0 0 1 1.053.968v10.334l10.7-10.6a2.47 2.47 0 0 1 1.736-.7h6.008z" fill="#424242"/></svg>
