<svg xmlns="http://www.w3.org/2000/svg" width="177.652" height="18.345"  xmlns:v="https://vecta.io/nano"><style><![CDATA[.B{isolation:isolate}]]></style><path d="M133.24 15.188l3.112 2.73v.066h-2.78l-1.663-1.453h-.1a7.71 7.71 0 0 1-4.93 1.673c-1.541.112-3.066-.369-4.264-1.343-.897-.748-1.425-1.848-1.449-3.016-.045-.975.249-1.935.831-2.719a6.8 6.8 0 0 1 1.829-1.641v-.066c-.42-.451-.78-.955-1.069-1.5-.249-.522-.371-1.095-.356-1.673-.013-1.043.43-2.04 1.212-2.73.836-.759 1.935-1.162 3.064-1.123a6.13 6.13 0 0 1 1.592.208 2.47 2.47 0 0 1 1.886 2.414l-.009.35a4.79 4.79 0 0 0-3.207-1.255c-.915-.084-1.8.352-2.291 1.128a1.88 1.88 0 0 0-.251.992 2.39 2.39 0 0 0 .463 1.447 14.66 14.66 0 0 0 1.912 1.872l4.918 4.293zm-2.827.132v-.088l-5.2-4.514h-.119c-1.133.584-1.854 1.743-1.877 3.017a2.4 2.4 0 0 0 1.034 1.993 4.11 4.11 0 0 0 2.554.782c1.302.019 2.572-.4 3.608-1.189z" fill="#d8412f" stroke="#d8412f" stroke-width=".25"/><g class="B" fill="#585858"><path d="M155.01 7.447a7.16 7.16 0 0 0-7.1-4.716 7.81 7.81 0 0 0-7.806 7.807 7.81 7.81 0 0 0 7.806 7.806 7.15 7.15 0 0 0 7.1-4.716h-2.959a.5.5 0 0 0-.432.241 4.08 4.08 0 0 1-3.731 2.019c-2.9 0-4.847-2.145-4.847-5.339s1.948-5.339 4.847-5.339a4.1 4.1 0 0 1 3.73 2 .5.5 0 0 0 .43.238zm9.132-4.764a7.83 7.83 0 1 0 7.818 7.818 7.66 7.66 0 0 0-7.818-7.818zm0 13.2c-2.966 0-4.959-2.164-4.959-5.384 0-3.193 1.993-5.339 4.959-5.339s4.936 2.145 4.936 5.339c.003 3.225-1.984 5.384-4.936 5.384zm11.844 2.461a1.69 1.69 0 0 1-1.573-1.027c-.268-.629-.128-1.359.353-1.845a1.69 1.69 0 0 1 1.841-.375c.633.26 1.046.876 1.046 1.56a1.65 1.65 0 0 1-1.667 1.687z"/></g><path d="M13.866 4.532a.7.7 0 0 1-.771-.15 6.73 6.73 0 0 0-4.5-1.56c-2.836 0-4.2 1.006-4.2 2.281 0 1.5 2.084 1.914 4.515 2.159 4.226.441 8.162 1.374 8.162 5.471 0 3.827-3.994 5.471-8.509 5.471-3.826 0-6.836-.922-8.458-3.542a.66.66 0 0 1 .306-.975l1.941-.853a.69.69 0 0 1 .849.245c1.047 1.542 3.186 2.23 5.42 2.23 2.4 0 4.66-.712 4.66-2.576 0-1.619-2-2.282-4.689-2.527-4.139-.417-7.96-1.35-7.96-5.2C.632 1.473 4.743.025 8.476.001c2.846 0 5.787.619 7.461 2.685.136.164.187.382.137.589s-.193.379-.388.463zm20.068 8.274h-5.261c-.216-.003-.395.169-.4.385v4.512c-.004.217-.183.389-.4.385h-2.972c-.217.004-.396-.168-.4-.385v-16c.036-.898.792-1.599 1.69-1.567l7.748-.023c9.777.003 9.81 12.693-.005 12.693zm-5.663-3.1h5.663c4.833 0 4.8-6.36 0-6.36h-5.261c-.216-.003-.395.169-.4.385zm31.336 4.999h-9.276c-.231 0-.443.132-.544.34l-1.232 2.532a.91.91 0 0 1-.816.51h-3.353l8.131-16.951c.302-.616.93-1.005 1.616-1h1.674c.686-.005 1.314.384 1.616 1l8.129 16.951h-3.375a.91.91 0 0 1-.819-.516l-1.206-2.524a.6.6 0 0 0-.545-.342zM54.635 4.629l-3.229 6.921h7.128l-3.227-6.921a.37.37 0 0 0-.672 0zm34.678 13.459h-4.3l-5.593-6h-3.1c-.213 0-.385.172-.385.385v5.229a.39.39 0 0 1-.112.273c-.072.073-.17.113-.273.112h-2.851c-.213 0-.385-.172-.385-.385v-16a1.61 1.61 0 0 1 .493-1.133c.308-.297.722-.46 1.15-.452l7.489.023c4.523.026 6.908 2.847 6.908 5.949 0 2.462-1.206 4.948-4.853 5.641l5.813 6.128zM75.934 3.679v5.358h5.511c2.3 0 3.29-1.437 3.29-2.872s-1.015-2.871-3.29-2.871h-5.132c-.102 0-.2.041-.272.113s-.112.17-.112.273zM113.742.244l-8.388 8.043a.74.74 0 0 0 .007 1.084l9.129 8.512v.206h-4.03a1.66 1.66 0 0 1-1.137-.445l-7.967-7.5v7.564a.4.4 0 0 1-.4.385h-2.993a.4.4 0 0 1-.4-.385V.797a.69.69 0 0 1 .715-.657h2.38a.68.68 0 0 1 .707.65v6.939L108.55.612a1.66 1.66 0 0 1 1.166-.473h4.034z" fill="#333"/></svg>