<svg xmlns="http://www.w3.org/2000/svg" xmlns:xlink="http://www.w3.org/1999/xlink" width="115.359" height="115.974" viewBox="0 0 115.359 115.974"><defs><style>.a{fill:url(#a);}.b{opacity:0.51;fill:url(#b);}.c{mix-blend-mode:multiply;isolation:isolate;fill:url(#c);}.d{fill:#ce5248;fill-rule:evenodd;}.e{filter:url(#f);}.f{filter:url(#d);}</style><linearGradient id="a" x1="0.5" x2="0.5" y2="1" gradientUnits="objectBoundingBox"><stop offset="0" stop-color="#fff"/><stop offset="1" stop-color="#f5f5f5"/></linearGradient><linearGradient id="b" x1="0.5" y1="1" x2="0.5" gradientUnits="objectBoundingBox"><stop offset="0" stop-color="#fff"/><stop offset="0.753" stop-color="#fcfbfb"/><stop offset="1" stop-color="#eaeaea"/></linearGradient><linearGradient id="c" x1="0.5" x2="0.5" y2="1" gradientUnits="objectBoundingBox"><stop offset="0" stop-color="#fff"/><stop offset="0.753" stop-color="#fcfbfb"/><stop offset="1" stop-color="#ededed"/></linearGradient><filter id="d" x="23.908" y="34.411" width="68.958" height="57.306" filterUnits="userSpaceOnUse"><feOffset dy="2" input="SourceAlpha"/><feGaussianBlur stdDeviation="2.5" result="e"/><feFlood flood-color="#ce5a50" flood-opacity="0.49"/><feComposite operator="in" in2="e"/><feComposite in="SourceGraphic"/></filter><filter id="f" x="43.496" y="48.893" width="26.197" height="40.324" filterUnits="userSpaceOnUse"><feOffset dy="1" input="SourceAlpha"/><feGaussianBlur stdDeviation="2" result="g"/><feFlood flood-color="#ce5a50" flood-opacity="0.478"/><feComposite operator="in" in2="g"/><feComposite in="SourceGraphic"/></filter></defs><g transform="translate(-190.457 -9765.603)"><ellipse class="a" cx="50.166" cy="49.761" rx="50.166" ry="49.761" transform="translate(198.095 9778.951)"/><path class="b" d="M40,79.994A40,40,0,1,0,0,40,40,40,0,0,0,40,79.994Z" transform="translate(196.542 9812.299) rotate(-30)"/><path class="c" d="M40.508,0A40.508,40.508,0,1,1,0,40.508,40.507,40.507,0,0,1,40.508,0Z" transform="translate(260.618 9876.271) rotate(-150)"/></g><g transform="translate(31.408 39.911)"><g transform="translate(0 0)"><g transform="translate(0 0)"><g class="f" transform="matrix(1, 0, 0, 1, -31.41, -39.91)"><path class="d" d="M718.7,126.143a1.945,1.945,0,0,0-.6-1.439,2.066,2.066,0,0,0-2.917,0,1.939,1.939,0,0,0-.6,1.439,2.059,2.059,0,1,0,4.118,0Zm11.346-14.25a58.11,58.11,0,0,1,9.714.808,2.2,2.2,0,0,1,1.179.644,2.32,2.32,0,0,1,.411.6v.007l3.219,6.509a9.5,9.5,0,0,0,.761,1.178l1.9,2.165a3.878,3.878,0,0,1,.3.377,4,4,0,0,1,.644,2.823q-.072.715-.15,1.384l-.007.089q-.158,1.343-.342,2.507v2.1h2.782V112.119h6.576v1.508l-3.193,3.193-.006,28.891,3.2,3.2V154.2H735.052v-3.377l15.4-.007V135.255h-2.782v2.994a1.177,1.177,0,0,1-.35.863,1.19,1.19,0,0,1-.781.356H743.63a1.13,1.13,0,0,1-.76-.356,1.184,1.184,0,0,1-.37-.836V135.9q-2.914.2-5.83.308a1.582,1.582,0,0,0,.329-.993v-9.338a1.606,1.606,0,0,0-.479-1.165,1.59,1.59,0,0,0-1.165-.479h-7.79a4.762,4.762,0,0,0-2.87.761l-2.385,1.528-.1.055h.014l-.028.013-.068.041a6.192,6.192,0,0,0-2.261,2.165,5.382,5.382,0,0,0-.357,2.11v2.186a3.661,3.661,0,0,0,.864,2.452.157.157,0,0,1,.013.021l.007.014.048.048a3.68,3.68,0,0,0,.507.473q-1.688-.082-3.371-.2v2.377a1.193,1.193,0,0,1-.377.836,1.133,1.133,0,0,1-.761.356h-2.912a1.158,1.158,0,0,1-.767-.356,1.189,1.189,0,0,1-.363-.863v-2.994h-2.754v15.565h15.4V154.2H703.072v-5.289l3.2-3.2-.007-28.891-3.193-3.193v-1.508h6.577V133.09H712.4v-2.1q-.183-1.164-.343-2.507l-.006-.089q-.078-.67-.151-1.384a4.007,4.007,0,0,1,.644-2.823,3.954,3.954,0,0,1,.3-.377l1.912-2.165a9.829,9.829,0,0,0,.746-1.178l3.22-6.509v-.007a2.283,2.283,0,0,1,.411-.6,2.192,2.192,0,0,1,1.178-.644A58.273,58.273,0,0,1,730.045,111.893Zm.014,2.014h-.007a59.31,59.31,0,0,0-8.626.61v-.007l-.021.007a1.923,1.923,0,0,0-.431.13,1.534,1.534,0,0,0-.754.754l-1.98,4.193q.874-.042,1.747-.075,5.039-.228,10.064-.24h.007q5.017.012,10.05.24.873.034,1.747.075l-1.98-4.193a1.559,1.559,0,0,0-.767-.754,1.65,1.65,0,0,0-.4-.13l-.021-.007v.007A59.394,59.394,0,0,0,730.059,113.907Zm11.317,12.236a2.016,2.016,0,0,0,.61,1.466,2.059,2.059,0,0,0,2.911,0,2,2,0,0,0,.6-1.466,1.941,1.941,0,0,0-.6-1.439,2.058,2.058,0,0,0-2.911,0A1.953,1.953,0,0,0,741.375,126.143Z" transform="translate(-671.66 -71.98)"/></g></g><g transform="translate(18.088 13.981)"><g class="e" transform="matrix(1, 0, 0, 1, -49.5, -53.89)"><path class="d" d="M737.263,139.435l2.837-1.85a3.337,3.337,0,0,1,1.977-.491h7.791v4.7h-3.411v2.514h3.411v2.121h-.9l-.046.012a2.244,2.244,0,0,0-1.572.676,2.288,2.288,0,0,0-.7,1.676,2.258,2.258,0,0,0,.532,1.5l.029.029a3.5,3.5,0,0,1,.7,2.156l.006,12.941H741.2l-.006-12.941a3.49,3.49,0,0,1,.7-2.156l.029-.029a2.258,2.258,0,0,0,.531-1.5,2.29,2.29,0,0,0-.7-1.676,2.244,2.244,0,0,0-1.572-.676l-.052-.012h-2.52a2.011,2.011,0,0,1-1.433-.682,2.177,2.177,0,0,1-.509-1.439h6.97v-2.514h-6.97a2.877,2.877,0,0,1,1.59-2.364Z" transform="translate(-686.18 -83.2)"/></g></g></g></g></svg>