<svg xmlns="http://www.w3.org/2000/svg" width="102.31" height="11.648" xmlns:v="https://vecta.io/nano"><path d="M.962.533v1.924h8.931V.533zM0 3.716v1.911h8.268c-.468 1.989-1.7 3.783-6.89 3.978l.624 1.95c6.552-.492 8.333-3.482 8.745-7.839zm20.189.949c1.367-1.003 2.633-2.135 3.783-3.38L22.1-.002a19.63 19.63 0 0 1-9.594 6.318l1.141 1.757a21.94 21.94 0 0 0 4.345-1.937v5.3h2.2zm5.98-3.718v2.041h8.078c-.442 2.626-1.378 5.564-7.163 6.578l.91 1.963c7.722-1.469 8.528-7.137 8.7-10.582zm19.838 1.497h-3.354V.208h-2.08v2.236h-1.95v1.95h1.95v3.107h2.08V4.394h3.354v1.209c0 1.43-.143 3.549-5.031 4.1l.793 1.919c4.836-.78 6.37-2.717 6.37-6.019V4.394h2.028v-1.95h-2.028V.169h-2.132zm13.182 2.223c1.367-1.003 2.633-2.135 3.783-3.38L61.1 0a19.63 19.63 0 0 1-9.594 6.316l1.141 1.757a21.94 21.94 0 0 0 4.345-1.937v5.3h2.2zm6.344-3.575v2.041h3.8v5.512h-4.45v2.041h11.089V8.645H71.5V3.133h3.835V1.092zm17.706 1.547c-1.33-.815-2.764-1.445-4.264-1.872l-.936 1.768c1.449.486 2.826 1.164 4.095 2.015zm-4.329 8.788c4.446-.637 8.463-2.041 10.478-8.827l-1.963-.975c-1.478 5.239-4.147 7.163-9.204 7.566zm12.818.143c1.952-.829 3.684-2.102 5.057-3.718 1.334 1.188 2.593 2.457 3.77 3.8l1.755-1.72a34.72 34.72 0 0 0-4.263-3.653c1.204-1.638 2.009-3.534 2.353-5.538h-9.075v1.963h6.305a12.55 12.55 0 0 1-7.083 7.124z" fill="#ce5a50"/></svg>