<svg xmlns="http://www.w3.org/2000/svg" width="28.249" height="12.376" xmlns:v="https://vecta.io/nano"><path d="M2.613 5.122h2.73v.884H.663v1.833h4.68v2.392h-.845a14.2 14.2 0 0 0-.819-2.3l-1.911.546a11.05 11.05 0 0 1 .676 1.755H.351v1.845h11.934v-1.846H10.14l.715-1.794-1.976-.533a22.61 22.61 0 0 1-.754 2.327h-.806V7.839h4.68V6.006h-4.68v-.884h2.769v-.807c.6.338 1.144.585 1.638.806l.936-2c-1.965-.658-3.771-1.721-5.3-3.12H5.331a12.47 12.47 0 0 1-5.33 3.094l.949 1.95 1.664-.767zm1.6-1.768c.776-.51 1.488-1.112 2.118-1.794.66.666 1.383 1.267 2.158 1.794zm24.037 8.84a18.2 18.2 0 0 0-.546-3.848l-1.273.182.169 1.209-.533.091V7.839h1.781V1.768h-1.69V.015h-1.69V1.77h-1.744v6.071h1.742v2.21c-.624.095-1.254.15-1.885.164l.195 2.041 3.991-.725c.024.281.029.563.013.845zm-3.732-8.645v2.509h-.546V3.549zm2.08 0v2.509h-.533V3.549zM15.731 1.872h6.785V.39h-6.785zm2.651 7.085a3.37 3.37 0 0 0 .637-1.963h.338v.975c-.024.168.025.338.135.467s.269.205.439.209h1.04v1.924c0 .169-.039.208-.247.208h-.626l.286 1.56h1.118a.89.89 0 0 0 .884-1.014V5.681h-6.383v6.656h1.5V8.346zm-.286-1.963a1.89 1.89 0 0 1-.6 1.261V6.994zm2.873 0v.676h-.351c-.13 0-.247-.039-.247-.26v-.416zm-3.211 2.054v1.067h.793v1.754h1.365v-1.754h.806V9.048zm-1.469-3.809h5.824V2.353h-5.824zm4.03-1.794v.624h-2.288v-.624z" fill="#ce5a50"/></svg>