<svg xmlns="http://www.w3.org/2000/svg" width="88.79" height="10.998" xmlns:v="https://vecta.io/nano"><path d="M.13.676v2.028h7.514v5.512H0v2.041h9.841V.676zm17.719 1.495c-1.33-.815-2.764-1.445-4.264-1.872l-.936 1.768c1.449.486 2.826 1.164 4.095 2.015zm-4.329 8.788c4.446-.637 8.463-2.041 10.478-8.827l-1.963-.975c-1.482 5.239-4.147 7.163-9.2 7.566zm17.784-9.646A16.95 16.95 0 0 0 27.248 0l-.741 1.729a17.16 17.16 0 0 1 3.978 1.43zm-1.17 3.12a15.7 15.7 0 0 0-3.9-1.4l-.728 1.742a17.48 17.48 0 0 1 3.835 1.521zm-3.367 6.565c4.89-.585 8.06-2.21 10.114-8.35l-1.95-.936c-1.729 5.824-4.55 6.682-8.736 7.046zm13.507-8.32v1.87h4.719a32.59 32.59 0 0 1-.312 4.149h-5.4v1.833h9.5V8.697h-2.059a58.64 58.64 0 0 0 .4-6.019zm11.05 1.638v2.171H62.79V4.316zm21.645 5a22.31 22.31 0 0 0-1.937-2.041c3.952-2.7 4.589-5.291 4.849-6.682H64.337v2.015h8.489a10.95 10.95 0 0 1-3.289 3.32 17.1 17.1 0 0 0-2.08-1.56l-1.6 1.391c1.991 1.451 3.768 3.175 5.279 5.122zm4.355-5v2.171H88.79V4.316z" fill="#ce5a50"/></svg>