<svg xmlns="http://www.w3.org/2000/svg" width="43.771" height="12.429" xmlns:v="https://vecta.io/nano"><path d="M1.508 12.354c1.183 0 5.083-.26 6.084-.364l.026-1.421-2.236.169V9.217a7.14 7.14 0 0 0 .806-.624c1.205 2.005 3.212 3.396 5.512 3.822l.918-1.69c-.627-.062-1.243-.206-1.833-.429a11.32 11.32 0 0 0 1.461-1.092l-1-.637h1.131V6.981H7.518v-.637H7.05a.9.9 0 0 0 .234-.7V3.913h-2.6v-.442h2.912V2.392H4.684v-.468h2.418V.715H4.684v-.65h-1.7v.65h-.533l.143-.481L1.06 0a6.59 6.59 0 0 1-.9 1.9l1.027.494H.118v1.079h2.86v.442H.547V6.45h1.571V4.966h.858v1.612h1.7V4.966h1.092v.39c0 .1-.052.117-.143.117h-.6l.208 1.144h.247v.364H.241v1.586h3.016a9.48 9.48 0 0 1-3.263.767l.494 1.534a12.91 12.91 0 0 0 3.094-.741v.663l-2.184.065zm.143-9.958c.122-.141.223-.298.3-.468h1.027v.468zm8.554 6.175l-1.027.91a3.8 3.8 0 0 1-1.092-.91zM7.852 4.354h1.69V.519h-1.69zm2.431.182c0 .247-.013.377-.338.377H8.58l.26 1.586h2.249c.377 0 1.014-.182 1.014-1.209V.064h-1.82zm8.749-.858v1.664h9V3.679h-3.54v-.871h3.026V1.092h-3.026V.039h-1.95v1.053h-.78a4.86 4.86 0 0 0 .169-.689L20.218.091c-.183.722-.496 1.405-.923 2.015-.619-.749-1.326-1.421-2.106-2l-1.316 1.389c.756.625 1.437 1.336 2.028 2.119l.832-.832 1.287.9zm1.391 0a9.83 9.83 0 0 0 .559-.871h1.56v.871zm-4.628 3.03h1.17v2.756a7.86 7.86 0 0 1-1.365.845l.767 2.119c.715-.479 1.358-1.057 1.911-1.716.762.913 1.905 1.422 3.094 1.378h6.526l.377-1.872h-6.994a3.69 3.69 0 0 1-1.547-.312c-.49-.21-.838-.657-.923-1.183V4.875h-3.016zm3.9-.78v3.757h7.683V5.928zm5.746 1.378v.948h-3.783v-.949zm6.812 4.966a10.13 10.13 0 0 0 4.329-2.236v2.327h1.924V9.984c1.211 1.119 2.693 1.903 4.3 2.275l.962-1.794a11.67 11.67 0 0 1-3.85-1.339h3.7V7.618h-5.112v-.52h4.342V5.854h-4.342v-.52h4.693v-1.46h-2.626l.221-.663h2.834V1.599h-1.56c.201-.383.379-.778.533-1.183L40.718.065c-.143.526-.33 1.039-.559 1.534h-.52V.104h-1.731v1.495h-.728V.104h-1.716v1.495h-.559c-.13-.53-.318-1.044-.559-1.534l-1.885.351a8.92 8.92 0 0 1 .572 1.183h-1.625v1.612h2.86c.109.212.196.434.26.663h-2.626V5.33h4.68v.52h-4.329v1.248h4.329v.52h-5.174v1.508h3.7c-1.194.631-2.466 1.102-3.783 1.4zm6.591-9.061a4 4 0 0 1-.208.663h-2.118l-.247-.663z" fill="#ce5a50"/></svg>