<svg xmlns="http://www.w3.org/2000/svg" width="102.31" height="12.232" xmlns:v="https://vecta.io/nano"><path d="M.13 1.547v2.028h7.514v5.512H0v2.041h9.841V1.547zm17.719 1.495c-1.33-.815-2.764-1.445-4.264-1.872l-.936 1.768c1.45.486 2.829 1.163 4.1 2.015zM13.52 11.83c4.446-.637 8.463-2.041 10.478-8.827l-1.963-.975c-1.482 5.239-4.147 7.163-9.2 7.566zm19.1-8.983h-3.354V.611h-2.08v2.236h-1.95v1.95h1.95v3.107h2.08V4.797h3.354v1.209c0 1.43-.143 3.549-5.031 4.1l.793 1.924c4.836-.78 6.37-2.717 6.37-6.019V4.797h2.028v-1.95h-2.028V.572h-2.135zm9.269-1.69h-2.093v3.25c0 4.316-1.274 5.551-1.885 6.136l1.625 1.69c.676-.637 2.353-2.275 2.353-8.047zm3.549-.416h-2.081v11.102c4.08-.156 6.186-2.665 6.888-6.162l-1.95-.936c-.156 1.04-.637 3.757-2.86 4.5zm7.15.169v1.924h8.918V.91zm-1.04 3.3v1.924h4.755l-.013.221c-.143 2.446-1.352 3.395-4.333 3.85l.849 1.833c3.913-.741 5.421-2.457 5.629-5.694l.013-.208h4.1V4.212zm20.007 2.34a20.77 20.77 0 0 0 3.016-2.769l-1.589-1.233a14.4 14.4 0 0 1-3.64 3.289 16.76 16.76 0 0 1-4.3 1.976l1.015 1.612a16.8 16.8 0 0 0 3.575-1.6v4.304h1.924zm11.3-3.51c-1.33-.815-2.764-1.445-4.264-1.872l-.936 1.768c1.449.486 2.826 1.164 4.095 2.015zm-4.335 8.79c4.446-.637 8.463-2.041 10.478-8.827l-1.963-.975c-1.478 5.239-4.147 7.163-9.204 7.566zm13-5.005a9.72 9.72 0 0 0 3.107-2.717h4.225c-1.248 4.563-4.394 5.551-7.67 5.98l.845 1.937c2.808-.481 4.771-1.222 6.266-2.8 1.744-1.886 2.826-4.29 3.081-6.846l-2.327.364-.091-.559h-3.094a11.65 11.65 0 0 0 .676-1.508l-2.223-.26a8.27 8.27 0 0 1-4.121 4.875zm10.79-4.992A10.32 10.32 0 0 0 101.738 0l-1.144.169a11.79 11.79 0 0 1 .546 1.859zm-1.753.247c-.141-.667-.341-1.319-.6-1.95l-1.144.182c.217.643.395 1.299.533 1.963z" fill="#ce5a50"/></svg>