<svg xmlns="http://www.w3.org/2000/svg" xmlns:xlink="http://www.w3.org/1999/xlink" width="650" height="119.887"><style><![CDATA[.C{isolation:isolate}.R{fill:#ce5a50}.S{fill:#fff}.T{opacity:.01}.U{stroke:#ce5a50}]]></style><defs><linearGradient id="A" x1=".5" x2=".5" y2="1"><stop offset="0" stop-color="#c44c42"/><stop offset="1" stop-color="#ce5a50" stop-opacity="0"/></linearGradient><path id="B" d="M388.611 25.65h-16a2.13 2.13 0 0 0-2.282 1.929v5.787a2.13 2.13 0 0 0 2.285 1.929h16a2.13 2.13 0 0 0 2.285-1.929v-5.787a2.13 2.13 0 0 0-2.288-1.929z"/><path id="C" d="M108.488 49.43c-.013-.644.366-1.232.957-1.487s1.279-.127 1.739.324.602 1.136.358 1.732-.824.986-1.468.986a1.57 1.57 0 0 1-1.586-1.555z"/><path id="D" d="M347.284 45.014a1.51 1.51 0 0 1-2.135-2.136 1.51 1.51 0 0 1 2.578 1.068 1.51 1.51 0 0 1-.443 1.068z"/><path id="E" d="M349.954 47.688a1.51 1.51 0 0 1-2.578-1.068 1.51 1.51 0 0 1 2.578-1.068 1.51 1.51 0 0 1 0 2.135z"/><path id="F" d="M350.488 50.374a1.51 1.51 0 0 1 2.136-2.135 1.51 1.51 0 0 1-1.068 2.578 1.51 1.51 0 0 1-1.068-.443z"/><path id="G" d="M347.817 53.05a1.51 1.51 0 0 1 1.068-2.58 1.51 1.51 0 0 1 1.068 2.58 1.51 1.51 0 0 1-2.136 0z"/><path id="H" d="M345.147 55.717a1.51 1.51 0 0 1 2.136-2.135 1.51 1.51 0 1 1-2.136 2.135z"/><path id="I" d="M344.205 49.226a1.51 1.51 0 0 1 3.02 0 1.51 1.51 0 1 1-3.02 0z"/><path id="J" d="M340.429 49.226a1.51 1.51 0 0 1 3.02-.001 1.51 1.51 0 1 1-3.02.001z"/><path id="K" d="M336.653 49.226a1.51 1.51 0 0 1 2.579-1.069 1.51 1.51 0 0 1-1.069 2.579 1.51 1.51 0 0 1-1.51-1.51z"/></defs><path d="M12.333 5.342c-.018 1.374-.312 2.73-.866 3.987l1.411.622c.52-1.402.798-2.881.822-4.376zm1.677 4.387c-.017.241.074.478.247.647s.412.253.653.23h1.91a.99.99 0 0 0 .9-.555c.216-.752.335-1.528.355-2.31l-1.366-.289a14.04 14.04 0 0 1-.1 1.422c-.033.178-.133.178-.2.178h-.5a.25.25 0 0 1-.255-.278V5.009H14.01zm-.289-6.087a8.5 8.5 0 0 1 2.755 1.555l1.033-1.266c-.765-.548-1.588-1.01-2.455-1.377h4.82V.966h-4.131V.111h-1.7v.855h-3.954V6.02a8.02 8.02 0 0 1-.789 3.4l1.322 1.277c.468-.746.771-1.583.889-2.455.126-.802.203-1.611.232-2.422V2.555h2.788zm3.565 1.733c.675 1.414 1.06 2.949 1.133 4.515l1.666-.344a18.01 18.01 0 0 0-1.242-4.648zm5.487 3.088h1.71a5.28 5.28 0 0 1-2.91.855l.611 1.422c1.659-.034 3.195-.886 4.1-2.277h1.559c-.011.789-.2.844-.455.844h-1.311l.233 1.377h1.9c.789 0 1.177-.578 1.311-2.177.418.246.861.447 1.322.6l.722-1.488a4.99 4.99 0 0 1-2.266-.989h2.044v-1.2h-5.476a2.47 2.47 0 0 0 .156-.3h4.31V2.09h-1.311v-.344h2.321V.524h-2.321v-.4h-1.677v.4h-2.332v-.4h-1.64v.4h-2.53v1.222h2.532v.344h-1.512v3.043h2.432l-.178.3h-3.274v1.2h1.955c-.644.421-1.365.711-2.121.855l.689 1.466c.488-.152.96-.349 1.411-.589zm5.92-5.542v.344h-5.187v-.344zm-3.676-.833v-.344h2.332v.344zm3.676 1.888v.367h-5.187v-.367zM24.306 7.32c.248-.214.482-.444.7-.689h2.177a3.49 3.49 0 0 0 .633.689h-1.088l.089-.444-1.533-.078c-.023.177-.06.351-.111.522zm8.63-6.12v1.755h6.842c-.322 2.488-1.422 4.932-6.12 5.6l.844 1.688c5.831-1.188 6.875-4.743 7.2-7.386-.465.063-.933-.087-1.275-.409s-.519-.78-.484-1.248zM41.555 0c-.333 0-.652.132-.888.367s-.368.555-.367.888.133.65.368.884.555.363.887.36a1.24 1.24 0 0 0 1.244-1.244A1.25 1.25 0 0 0 41.555 0zm0 .733a.52.52 0 0 1 .511.522.51.51 0 0 1-.511.511.52.52 0 0 1-.522-.511.52.52 0 0 1 .522-.522zm2.921.478V9.73h8.775V1.211zm6.909 6.842h-5.1V2.89h5.1zm8.03-5.3V.532h-1.8v2.377l-2.255.2.124 1.734 2.133-.2v3.132c0 .811.022 2.288 2.4 2.288h3.026a20.4 20.4 0 0 0 1.677-.089V8.197a8.6 8.6 0 0 1-1.733.155h-2.572c-.966 0-1-.167-1-.766V4.465l3.41-.333a3.72 3.72 0 0 1-2.21 2.01l1.077 1.366c2.048-.934 3.359-2.98 3.351-5.231zm8.186 7.508a11.64 11.64 0 0 0 4.321-3.171c1.139 1.013 2.215 2.095 3.221 3.24l1.5-1.466C75.515 7.727 74.297 6.683 73 5.743c1.028-1.4 1.716-3.02 2.01-4.732h-7.753V2.69h5.386a10.72 10.72 0 0 1-6.053 6.087z" class="R"/><path d="M0 11.172h89.261v108.715H0z" class="S T"/><g class="R"><path d="M36.396 101.727l-4.273.009c-.474 0-1.649 0-1.933-.009v1.069l3.373-.085c-.345.151-.675.335-.985.549l.682.672a8.3 8.3 0 0 1 3.136-1.277zm-5.467 2.98a3.26 3.26 0 0 0-1.109 2.242c.026.761.471 1.446 1.156 1.779a7.54 7.54 0 0 0 3.477.473 16.54 16.54 0 0 0 2.468-.133l-.038-1.06c-.92.123-1.848.18-2.776.17-1.421 0-3.241-.019-3.241-1.249a2.32 2.32 0 0 1 .83-1.653zm5.4.265a7.72 7.72 0 0 0-.9-1.391l-.644.388a8.29 8.29 0 0 1 .881 1.4zm1.167-.567a6.42 6.42 0 0 0-.888-1.337l-.663.388a8.27 8.27 0 0 1 .891 1.344zm2.388.729v2.526h1.061a5.19 5.19 0 0 1 .294 1.069h-2.143v.87h8.494v-.87h-2.037c.135-.349.249-.706.343-1.069h.9v-2.526zm5.95.833v.889h-5v-.888zm-1 1.694l-.36 1.069h-2.19c-.082-.363-.186-.72-.313-1.069zm-3.657-3.17h4.319v-.587a17.78 17.78 0 0 0 1.886 1.126l.531-.956c-.477-.179-.94-.394-1.384-.643a8.69 8.69 0 0 0 1.061-1.145l-.8-.473a12.04 12.04 0 0 1-1 1.183c-.019-.009-.256-.161-.455-.312.396-.36.758-.756 1.08-1.184l-.824-.492a10.19 10.19 0 0 1-.919 1.1c-.259-.243-.48-.524-.654-.833h-4.131v.852h2.122a5.44 5.44 0 0 1-.957.87 5.93 5.93 0 0 0-1.109-.861l-.635.624a4.4 4.4 0 0 1 .948.766 9.41 9.41 0 0 1-1.345.681l.493.823c.615-.282 1.208-.611 1.772-.984zm.54-.842a8.35 8.35 0 0 0 1.647-1.713c.495.659 1.09 1.236 1.763 1.712zm10.792 5.7c.699-.399 1.347-.881 1.932-1.434l-.332-.87a9.38 9.38 0 0 1-1.573 1.173l-.028-.331c-.332.114-.578.189-1.251.36v-2.252h1.327v-.889h-1.327v-.814h.929v-.9h-2.4a10.63 10.63 0 0 0 1.137-1.5 5.9 5.9 0 0 0 1.329 1.434l.616-.9c-.608-.353-1.119-.85-1.488-1.448h-1.033a4.83 4.83 0 0 1-1.658 2.1l.351.993a3.94 3.94 0 0 0 .474-.388v.606h.852v.814h-1.487v.889h1.487v2.451l-1.582.274.171 1.031a26.49 26.49 0 0 0 3.382-.82zm-.75-3.023a8.47 8.47 0 0 1-.163 1.342l.72.085a8.65 8.65 0 0 0 .237-1.277zm-2.763.265a7.84 7.84 0 0 1 .2 1.665l.815-.123c-.043-.547-.125-1.091-.246-1.627zm3.8-.87a8.52 8.52 0 0 1 .635 1.287l.834-.416a5.97 5.97 0 0 0-.654-1.23zm4.089-.493c-.209.415-.463.805-.758 1.164l.7.511a5.61 5.61 0 0 0 .824-1.192zm-3.875-3.955v.842h3.193v.624h-3.032v.785h3.032v.662h-3.619v.852h2.151v3.624c0 .161-.047.227-.265.227h-.929l.171.975h1.165a.74.74 0 0 0 .758-.852v-1.7a5.33 5.33 0 0 0 1.761 2.221l.578-.908c-1.055-.677-1.873-1.666-2.34-2.829v-.757h2.162v-.852h-.654v-2.914zm22.769-38.325a2.7 2.7 0 0 1-.219 1.067 4.44 4.44 0 0 1-1.851 2.024 9.67 9.67 0 0 1-5 1.281H11.858c-3.3 0-6.086-1.4-6.849-3.3a2.69 2.69 0 0 1-.219-1.067z"/><g class="C"><path d="M72.168 26.503v32.43a2.92 2.92 0 0 1-2.714 3.1H15.068a2.92 2.92 0 0 1-2.714-3.1v-32.43a2.92 2.92 0 0 1 2.714-3.089h54.378a2.92 2.92 0 0 1 2.722 3.089z"/></g></g><path d="M18.597 52.789h9.834v2.106h-9.834zm5.809-3.591h9.834v2.106h-9.834zm6.86-3.592H41.1v2.106h-9.834zm6.334-3.591h9.834v2.106H37.6zm6.334-3.592h9.834v2.106h-9.834zm6.86-3.591h9.834v2.106h-9.834zm5.808-3.592h9.834v2.106h-9.834z" class="S U"/><g class="R"><path d="M78.729 73.21H66.047c-1.417 0-2.57-1.228-2.57-2.737V43.948c0-1.509 1.153-2.737 2.57-2.737h12.682c1.417 0 2.57 1.228 2.57 2.737v26.524c0 1.509-1.153 2.737-2.57 2.737z"/><path d="M66.047 42.211c-.867 0-1.57.777-1.57 1.737v26.524c0 .96.703 1.737 1.57 1.737h12.682c.867 0 1.57-.778 1.57-1.737V43.948c0-.96-.703-1.737-1.57-1.737H66.047m0-2h12.682c1.968 0 3.57 1.676 3.57 3.737v26.524c0 2.061-1.601 3.737-3.57 3.737H66.047c-1.969 0-3.57-1.676-3.57-3.737V43.948c0-2.061 1.602-3.737 3.57-3.737z" fill="#ecebe8"/></g><rect width="3.779" height="1.354" rx=".677" x="70.619" y="68.776" class="S"/><path d="M70.445 44.056h3.964v.66h-3.964z" fill="#c44c42"/><path d="M123.592 11.172h89.261v108.715h-89.261z" class="S T"/><path d="M167.346 94.214h-8.907v.889h3.837a5.09 5.09 0 0 1-.256.975h-3.058v6.661h.957v-.368h6.017v.369h.948v-6.662h-3.866a8.8 8.8 0 0 0 .275-.975h4.055zm-6.358 2.715v4.6h-1.071v-4.6zm2.918 0v.927h-2.009v-.927zm0 1.731v.965h-2.009v-.964zm0 1.769v1.1h-2.009v-1.1zm2.028-3.5v4.6h-1.1v-4.6zm8.234-2.564a3.44 3.44 0 0 1-.73 2.091 3.8 3.8 0 0 1-1.544 1.05l.521.9c1.019-.458 1.826-1.287 2.256-2.318a4.78 4.78 0 0 0 2.321 2.337l.5-.908a3.41 3.41 0 0 1-2.376-3.208v-.426h-.948zm-5.458 3.33h3.032v-.842h-3.031zm5.458.842a3.92 3.92 0 0 1-.767 2.318c-.431.483-.989.835-1.611 1.016l.531.889c1.075-.444 1.928-1.3 2.369-2.377a3.94 3.94 0 0 0 2.372 2.375l.455-.956c-1.49-.397-2.502-1.78-2.429-3.321v-.549h-.919zm-2.425-4.427h-3.032v.861h3.032zm.455.454c.193.555.304 1.135.332 1.722l.957-.274a7.3 7.3 0 0 0-.417-1.7zm-3.487 8.194h.843v-.369h2.189v-2.7h-3.032zm2.189-2.252v1.06h-1.346v-1.06zm-2.189-1.381h3.032v-.861h-3.032zm3.345-.312c.264.578.449 1.189.55 1.817l.938-.265a8.3 8.3 0 0 0-.616-1.826zm-3.639-2.47h3.639v-.861h-3.639zm7.864-2.072c-.13.583-.344 1.144-.635 1.665l.843.331c.294-.538.52-1.11.673-1.703zm.133 4.229a7.14 7.14 0 0 1-.692 1.771l.805.378c.339-.598.6-1.236.777-1.9zm-38.422 11.628l.1-1.741-1.128-.009a16.29 16.29 0 0 1-.057 1.75h-2.606v.993h2.492c-.094 1.95-1.206 3.707-2.928 4.627l.739.766c2.492-1.552 2.937-3.406 3.269-5.393h2.71v.606c.011.969-.043 1.938-.161 2.9-.085.577-.2.8-.768.8-.509-.006-1.017-.059-1.516-.161v1.041a13.92 13.92 0 0 0 1.724.164c.91 0 1.459-.341 1.63-1.6a32.85 32.85 0 0 0 .19-3.491v-1.252zm9.437-1.769v1.438h-3.061v3.236h1.023v-2.271h5.117a6.4 6.4 0 0 1-.606 2.64c-1.042 1.854-3.724 2.053-4.614 2.119l.322 1.031c1.631-.036 3.201-.627 4.452-1.674 1.021-1.166 1.571-2.67 1.544-4.22l.019-.861h-3.136v-1.438zm10.158 1.921a10.5 10.5 0 0 0-2.937-1.3l-.512.927c1.019.317 1.984.786 2.862 1.391zm-3 6.122c4.2-.52 6.244-2.309 7.637-6.349l-1.075-.482c-1.317 4.021-3.373 5.384-6.917 5.639zm12.384-5.9v-2h-1.08v2.069l-2.066.151.085 1.022 1.98-.161v2.924c0 1.287.313 1.94 2.075 1.94h2.208c.542.005 1.083-.028 1.62-.1v-1.109c-.546.134-1.106.197-1.668.189h-1.954c-1.118 0-1.2-.132-1.2-.984V111.5l3.629-.3c-.299 1.041-1.103 1.862-2.138 2.183l.692.87c1.622-.756 2.7-2.339 2.808-4.125zm9.049-1.7h-1.1v5.13h1.1zm4.785-.17h-1.122v4.1a2.57 2.57 0 0 1-1.156 2.309 7.67 7.67 0 0 1-3.108.662l.351 1.041c2.776-.293 5.031-.729 5.031-4.513zm6.633 1.656a10.5 10.5 0 0 0-2.937-1.3l-.512.927c1.017.316 1.98.784 2.857 1.387zm-3 6.122c4.2-.52 6.244-2.309 7.637-6.349l-1.078-.49c-1.317 4.021-3.373 5.384-6.917 5.639zm9.959-3.643a6.72 6.72 0 0 0 2.218-1.996h3.383c-.9 3.2-2.719 4.409-5.8 4.844l.464.984c1.6-.274 5.837-1.012 6.642-6.822h-4.073c.206-.388.384-.791.531-1.206l-1.156-.189c-.431 1.547-1.484 2.845-2.909 3.586zm6.416-3.386a7.37 7.37 0 0 0-.512-1.391l-.749.17c.201.448.359.914.474 1.391zm1.412-.076c-.142-.458-.319-.904-.531-1.334l-.758.17c.204.433.369.882.493 1.344z" class="R"/><g class="C R"><g><path d="M146.573 36.911a2.26 2.26 0 0 0-2.891-1.306 2.26 2.26 0 0 0-1.344 2.873l2.547 6.862a2.26 2.26 0 0 0 .991 1.171l7.735 4.443c.699.42 1.571.429 2.279.025a2.26 2.26 0 0 0 1.138-1.975c-.005-.816-.451-1.564-1.164-1.959l-7.028-4.037zm-1.542-4.788a4.56 4.56 0 0 0 4.553-4.563 4.56 4.56 0 1 0-7.78 3.229 4.56 4.56 0 0 0 3.227 1.334z"/><path d="M158.771 54.835a2.66 2.66 0 0 0-2.479-2.148l-2.632-.131-3.458-.172c.052-.255-.025-.538 0-2.034l-4.359-2.27a3.11 3.11 0 0 1-1.363-1.609l-2.5-6.737c-.595-1.607.226-3.392 1.833-3.987s3.392.226 3.987 1.833l2.111 5.686.37.212v-4.337a4.85 4.85 0 0 0-4.839-4.832h-1.1a4.85 4.85 0 0 0-4.839 4.832v12.451l.079 2.921c-.035.704.212 1.393.685 1.916s1.135.835 1.84.869l11.841.589 2.22 11.446a2.66 2.66 0 0 0 2.609 2.151 2.7 2.7 0 0 0 .509-.049 2.66 2.66 0 0 0 2.106-3.113z"/><path d="M147.542 57.319h-8.61l-2.457-17.672a1.7 1.7 0 0 0-3.4 0l2.745 19.743v.5c.002.454.37.822.824.823h10.893a1.7 1.7 0 0 0 1.58-2.582 1.7 1.7 0 0 0-1.58-.808z"/></g><g><path d="M188.867 36.911a2.26 2.26 0 0 1 2.898-1.324 2.26 2.26 0 0 1 1.337 2.892l-2.548 6.862c-.183.494-.534.908-.991 1.171l-7.735 4.443c-.699.42-1.571.429-2.279.025a2.26 2.26 0 0 1-1.138-1.975c.005-.816.451-1.564 1.164-1.959l7.028-4.037zm1.541-4.788a4.56 4.56 0 0 1-4.553-4.563 4.56 4.56 0 1 1 7.78 3.229 4.56 4.56 0 0 1-3.227 1.334z"/><path d="M176.669 54.835a2.66 2.66 0 0 1 2.48-2.149l2.632-.131 3.459-.172c-.052-.255.025-.538 0-2.034l4.358-2.271c.628-.361 1.11-.93 1.363-1.609l2.5-6.737c.595-1.607-.226-3.392-1.833-3.987s-3.392.226-3.987 1.833l-2.111 5.686-.37.212v-4.337a4.85 4.85 0 0 1 4.838-4.832h1.105a4.85 4.85 0 0 1 4.838 4.832v12.453l-.079 2.921a2.66 2.66 0 0 1-2.525 2.785l-11.841.589-2.219 11.446a2.66 2.66 0 1 1-5.224-1.01z"/><path d="M187.898 57.32h8.61l2.457-17.672a1.7 1.7 0 0 1 3.395 0l-2.745 19.743v.5c-.001.454-.369.822-.823.823h-10.893a1.7 1.7 0 0 1-1.58-2.582 1.7 1.7 0 0 1 1.58-.808z"/></g><path d="M179.572 47.168v-3.3c-.06-.591-.581-1.026-1.173-.98h-21.95c-.592-.046-1.113.389-1.173.98v3.3c.06.591.581 1.026 1.173.98h8.911v23.49c.06.591.581 1.026 1.173.98h1.781c.592.046 1.113-.389 1.173-.98v-23.49h8.911c.593.047 1.114-.388 1.174-.98z"/></g><path d="M242.606 11.172h88.116v108.715h-88.116z" class="S T"/><g class="R"><path d="M265.673 103.852a9.67 9.67 0 0 1-1.715 1.854 6.04 6.04 0 0 1-.995-2.223h3.928v-.951h-1.412l.483-.606c-.535-.37-1.104-.686-1.7-.946l-.578.71a5.85 5.85 0 0 1 1.44.842h-2.17v-1.495h-.985v1.495h-3.923v.956h3.923v5.223c0 .114-.009.227-.237.227h-1.507l.161 1h1.668c.253.022.502-.073.677-.257a.84.84 0 0 0 .223-.689v-3.47c.683 1.648 1.897 3.021 3.449 3.9l.6-.956a9.26 9.26 0 0 1-2.492-2.006 13.73 13.73 0 0 0 2.028-2.034zm-7.059.662a10.46 10.46 0 0 1 1.507 1.741l.805-.634c-.442-.631-.961-1.205-1.545-1.708zm2.653 2.038c-1.053.658-2.152 1.24-3.288 1.741l.455.956c.985-.492 2.454-1.344 3.155-1.807zm10.612-4.286a8.45 8.45 0 0 1-.834 3.52c-.687 1.379-1.818 2.485-3.212 3.141l.7.946c1.958-1.044 3.376-2.876 3.894-5.034.534 2.156 1.956 3.984 3.913 5.034l.654-.965c-2.528-1.249-4.093-3.86-4.003-6.679v-1.164h-1.109zm10.366 7.219c.986-.046 4.346-.226 4.346-3.982 0-1.552-.824-3.709-3.97-3.709a4.12 4.12 0 0 0-4.425 4.2c0 1.325.625 2.744 1.867 2.744.804-.081 1.5-.592 1.819-1.334a12.5 12.5 0 0 0 1.033-4.617 2.44 2.44 0 0 1 2.495 2.612c0 2.933-2.312 3.037-3.44 3.084zm-.407-6.651c-.095 1.325-.464 4.863-1.734 4.863-.474 0-.872-.539-.872-1.561-.085-1.599 1.031-3.013 2.606-3.302zm13.464-1.04l-4.273.009c-.474 0-1.649 0-1.933-.009v1.069l3.373-.085c-.345.151-.675.335-.985.549l.682.672a8.3 8.3 0 0 1 3.136-1.278zm-5.467 2.98a3.26 3.26 0 0 0-1.109 2.242c.026.761.471 1.446 1.156 1.779a7.54 7.54 0 0 0 3.477.473 16.54 16.54 0 0 0 2.464-.132l-.038-1.06c-.92.123-1.848.18-2.776.17-1.421 0-3.241-.019-3.241-1.249.035-.644.338-1.244.834-1.655zm5.4.265a7.72 7.72 0 0 0-.899-1.387l-.644.388a8.29 8.29 0 0 1 .881 1.4zm1.166-.568a6.45 6.45 0 0 0-.89-1.334l-.663.388a8.27 8.27 0 0 1 .89 1.344zm2.928-1.391v.719h1.033a7.9 7.9 0 0 1-.9.956l1.753.35a15.32 15.32 0 0 1-2.8.312l.246.88a13.45 13.45 0 0 0 4.074-.814 23.37 23.37 0 0 1 2.88.937l.616-.833-2.492-.729a3.23 3.23 0 0 0 .891-1.06h.644v-.719h-3.2a6.47 6.47 0 0 0 .36-.568h3.146v1.126h.976v-1.947h-3.759v-.653h-1.033v.653h-3.723v1.949h.976v-1.126h2.283c-.066.1-.152.255-.379.568zm4.207.719a2.84 2.84 0 0 1-.91.814l-1.592-.274a5.79 5.79 0 0 0 .5-.539zm-5.245 6.065c1.287-.416 2.471-1.102 3.473-2.012v2.091h.976v-2.091a8.57 8.57 0 0 0 3.563 2l.521-.956a8.14 8.14 0 0 1-3.307-1.444h3.2v-.814h-3.977v-.634h-.976v.634h-3.913v.814h3.117c-.941.705-2.019 1.208-3.164 1.476zm11.56-2.365a7.28 7.28 0 0 0 2.4-3.009 5.88 5.88 0 0 0 2.369 3.047l.587-.842v2.015c0 .2-.133.2-.246.2h-1.334l.133 1h1.582c.235.034.472-.043.642-.207a.77.77 0 0 0 .23-.635v-6.7h-3.477v-1.334h-.995v1.334h-3.515v7.544h1v-6.586h2.473c-.116.577-.348 1.124-.682 1.608a5.28 5.28 0 0 1-1.781 1.694zm5.354-.833c-1.273-.693-2.169-1.918-2.445-3.34h2.445zm-19.663-61.547l10.91 24.054v.008c.025.058.087.091.149.079s.108-.065.11-.128V38.019a1.7 1.7 0 0 0-1.737-1.67h-6.111l-1.249 3.629c-.432 1.212-1.587 2.015-2.873 2-2.88 0 .221 1.884.8 3.151zm-31.155 25.808h38.751a1.16 1.16 0 0 0 1.1-1.621L293.33 45.249c-.199-.427-.629-.698-1.1-.695h-40.426a1.16 1.16 0 0 0-1.076 1.678l12.584 24.053a1.21 1.21 0 0 0 1.075.638zm27.431-32.049a.6.6 0 0 0 .584.777h2.346a.61.61 0 0 0 .583-.406l4.415-12.845a.59.59 0 0 0-.091-.538c-.116-.154-.299-.242-.492-.237h-25.351a.61.61 0 0 0-.583.4l-.657 1.911c-.059.184-.025.385.09.539s.3.243.493.237h21.8a.25.25 0 0 1 .245.326l-3.381 9.832zm-10.55-17.459l-.657 1.911a.6.6 0 0 0 .583.776h21.8a.25.25 0 0 1 .245.326l-3.38 9.834a.6.6 0 0 0 .584.776h2.344a.61.61 0 0 0 .583-.4l4.417-12.846a.6.6 0 0 0-.584-.775h-25.355a.61.61 0 0 0-.583.4zm-15.988 9.07c-.346-.004-.657.212-.775.538l-4.129 12.011h27.86l1.216-3.538h0l2.744-7.98v-.009h0a.79.79 0 0 0-.777-1.02H265.28z"/><path d="M312.222 53.025l-1.119-1.118-1.244-1.242c-1.753 1.138-3.77 1.736-5.883 1.736a10.85 10.85 0 0 1-10.842-10.827 10.85 10.85 0 0 1 10.842-10.827 10.85 10.85 0 0 1 10.842 10.827c0 2.111-.598 4.124-1.738 5.874l1.241 1.239 1.121 1.119-1.492.531c-.276.098-.522.255-.733.465a1.95 1.95 0 0 0-.463.732l-.53 1.491zm-8.247-17.675a6.24 6.24 0 0 0-6.235 6.224 6.24 6.24 0 0 0 6.235 6.224 6.24 6.24 0 0 0 6.235-6.224 6.24 6.24 0 0 0-6.235-6.224z"/><path d="M303.976 51.401a9.8 9.8 0 0 0 5.994-2.039l1.84 1.837c.143-.404.376-.782.699-1.105a2.97 2.97 0 0 1 1.105-.7l-1.838-1.835c1.279-1.659 2.042-3.735 2.042-5.985a9.85 9.85 0 0 0-9.842-9.827 9.85 9.85 0 0 0-9.842 9.827 9.85 9.85 0 0 0 9.842 9.827m0-17.052a7.24 7.24 0 0 1 7.235 7.224 7.24 7.24 0 0 1-7.235 7.224 7.24 7.24 0 0 1-7.235-7.224 7.24 7.24 0 0 1 7.235-7.224m8.659 20.501l-2.239-2.235-.691-.69c-1.745.97-3.696 1.477-5.729 1.477-6.529 0-11.842-5.306-11.842-11.827s5.312-11.827 11.842-11.827 11.842 5.306 11.842 11.827c0 2.03-.506 3.978-1.477 5.72l.687.686 2.242 2.238-2.985 1.061a.97.97 0 0 0-.362.231c-.103.102-.179.223-.227.359l-1.059 2.981zm-8.659-18.501c-2.887 0-5.235 2.344-5.235 5.224s2.348 5.224 5.235 5.224 5.235-2.344 5.235-5.224-2.348-5.224-5.235-5.224z" fill="#ecebe8"/><path d="M321.903 56.002l-5.413-5.405a2.46 2.46 0 0 0-3.479 3.474l5.413 5.405a2.46 2.46 0 0 0 4.162-1.076 2.46 2.46 0 0 0-.683-2.398z" stroke="#ecebe8"/></g><path d="M560.74 11.172h89.261v108.715H560.74z" class="S T"/><g class="R"><path d="M588.055 95.273h2.587c.006 2.79-1.584 5.337-4.093 6.557l.673.937c2.492-1.646 3.288-2.867 3.923-4.92a8.12 8.12 0 0 0 3.91 4.919l.7-.993c-3.4-1.831-4.139-4.267-4.053-7.522h-3.647zm11 3.718a6.83 6.83 0 0 0 1.023.993l.455-.9c-.493-.326-.939-.717-1.327-1.162a7.41 7.41 0 0 0 .957-1.6v-.927h-1.108v-1.476h-.976v1.476h-1.431v.927h2.445a6.17 6.17 0 0 1-2.578 2.764l.417.965a6.05 6.05 0 0 0 1.147-.88v3.652h.976zm3.231-2.394h-1.98v1.012h1.98v3.889h-2.388v1.012h5.628v-1.011h-2.246V97.61h2.028v-1.013h-2.028v-2.678h-.995zm6.709 6.226c1.027-.153 2.024-.459 2.96-.908a10.44 10.44 0 0 0 3.241.908l.36-.9a9.1 9.1 0 0 1-2.634-.558 5.24 5.24 0 0 0 1.611-1.637v-.746h-3.165a4.11 4.11 0 0 0 .313-.511l2.8-.2.275.606.834-.473a9.75 9.75 0 0 0-1.385-2.176l-.768.445.606.852-2.293.123c.521-.53 1.573-1.694 2.511-2.829l-.985-.4-1.677 2.025a6.72 6.72 0 0 0-.644-.53 15.65 15.65 0 0 0 1.28-1.672l-.976-.36c-.283.55-.63 1.064-1.033 1.533l-.464-.284-.54.729a10.83 10.83 0 0 1 1.791 1.249l-.521.568-1.63.028.066.852c.464.019 1.364-.019 1.706-.028a4.34 4.34 0 0 1-2.029 1.56l.512.833a4.49 4.49 0 0 0 .891-.549c.296.366.637.693 1.014.975-.748.273-1.523.464-2.312.568zm4.387-3.028c-.396.44-.861.814-1.375 1.107a8.72 8.72 0 0 1-1.364-1.088l.019-.019zm-5-3.775c-.403 1.006-1.057 1.892-1.9 2.574l.436 1.079a5.49 5.49 0 0 0 .587-.539v3.69h.957v-4.93a9.7 9.7 0 0 0 .778-1.552zm-1.478.814a6.86 6.86 0 0 0 2.293-2.63l-.862-.312c-.43.818-1.063 1.511-1.838 2.015zm13.938 5.544c.985-.047 4.349-.227 4.349-3.983 0-1.552-.824-3.709-3.97-3.709a4.12 4.12 0 0 0-4.425 4.2c0 1.325.625 2.744 1.867 2.744.804-.081 1.5-.592 1.819-1.334a12.5 12.5 0 0 0 1.033-4.617 2.44 2.44 0 0 1 2.492 2.611c0 2.933-2.312 3.037-3.44 3.084zm-.407-6.651c-.095 1.325-.464 4.863-1.734 4.863-.474 0-.872-.539-.872-1.561-.085-1.598 1.029-3.011 2.602-3.302zm-47.311 13.53v1h6.244c-.275 1.675-.805 4.665-5.4 5.365l.426 1c5.174-.956 6-4.617 6.244-7.371zm9.956 6.793a9.24 9.24 0 0 0 3.3-2.687v2.318c0 .132-.019.246-.36.246a10.93 10.93 0 0 1-1.109-.085l.152.889.919.047c.948 0 1.317-.189 1.317-1.1v-3.34h1.845v-.861h-1.848v-1.265h-.916v1.268h-3.61v.861h3.44a9.45 9.45 0 0 1-3.7 2.971zm8.515-6.718v6.916h7.05v-6.916zm5.885 5.876h-4.758v-4.844h4.758zm3.392-3.207v1.145h8.408v-1.145zm10.1-3.1v1h6.671a3.56 3.56 0 0 1-2.085 2.2l.711.852c1.58-.775 2.65-2.309 2.833-4.059zm1.033 7.749c2.018-.975 3.222-2.441 3.326-5.838l-1.156-.028c-.019 3.349-1.165 4.381-2.852 5.034zm10.732-3.448a9.07 9.07 0 0 0-.815-2.252l-.891.265a8.5 8.5 0 0 1 .73 2.223zm2-.35a6.8 6.8 0 0 0-.673-2.214l-.9.227a8.19 8.19 0 0 1 .625 2.223zm-2.55 3.917c4.16-.937 4.738-3.548 5.24-5.847l-1.023-.18c-.587 3.245-1.62 4.6-4.633 5.157zm8.743-.151a7.18 7.18 0 0 0 4.95-3.009c.576-1.11.93-2.322 1.042-3.567a.98.98 0 0 0 .699-.286c.186-.185.288-.437.286-.698a.99.99 0 0 0-.289-.696c-.185-.184-.435-.288-.696-.288a.99.99 0 0 0-.985.984.79.79 0 0 0 .028.2h-6.343v1.012h6.14c-.4 3.132-1.677 4.712-5.354 5.308zm5.988-8.014a.45.45 0 1 1 0 .908c-.251 0-.454-.203-.455-.454s.204-.454.455-.454zm-38.083-89.017c6.601-2.71 14.15.444 16.86 7.045s-.444 14.15-7.045 16.86-14.15-.443-16.86-7.044c-2.697-6.601.453-14.141 7.045-16.861zm26.476 35.102a6.02 6.02 0 0 0-1.577-1.332l-10.955-7.215-.953-.617c-4.823 3.502-11.351 3.502-16.174 0l-.953.617-10.955 7.215a11.43 11.43 0 0 0-1.485 1.1 9.7 9.7 0 0 0 .018 2.336l1.006 12.059a69.69 69.69 0 0 0 40.919-.1l1-11.959c.078-.984.128-1.929.109-2.104z"/><path d="M637.496 39.442l3.956 3.465v.084h-3.533l-2.114-1.845h-.121c-1.78 1.412-3.995 2.163-6.267 2.124-1.957.143-3.895-.465-5.42-1.7a5.12 5.12 0 0 1-1.842-3.829 5.37 5.37 0 0 1 1.057-3.452 8.64 8.64 0 0 1 2.326-2.082v-.085c-.534-.571-.991-1.21-1.359-1.9a4.65 4.65 0 0 1-.453-2.124c-.016-1.324.546-2.589 1.54-3.465a5.51 5.51 0 0 1 3.9-1.425c.683-.001 1.364.088 2.024.264a3.14 3.14 0 0 1 2.4 3.064l-.011.444a6.09 6.09 0 0 0-4.077-1.593c-1.162-.107-2.286.446-2.912 1.431-.221.382-.331.818-.319 1.259a3.03 3.03 0 0 0 .589 1.837 18.61 18.61 0 0 0 2.431 2.376l6.251 5.45zm-3.594.168v-.112l-6.614-5.729h-.151a4.4 4.4 0 0 0-2.386 3.829c-.008 1.009.484 1.956 1.314 2.529a5.23 5.23 0 0 0 3.247.992 7.4 7.4 0 0 0 4.59-1.509z" stroke-width=".25" class="U"/></g><path d="M353.609 11.172h89.261v108.715h-89.261z" class="S T"/><path d="M377.698 101.954h-3.326v4.191a4.81 4.81 0 0 1-.853 2.98l.767.757a4.86 4.86 0 0 0 .815-1.8 9.68 9.68 0 0 0 .246-2.006v-3.186h7.031v-.937h-3.7v-.87h-.976zm-1.649 3.662c-.051 1.062-.346 2.098-.862 3.028l.777.492a6.81 6.81 0 0 0 .957-3.349zm1.317 3.482c0 .6.512.681.786.681h1.526c.91 0 .976-.587 1.156-2.337l-.985-.189-.123 1.41c-.028.123-.076.208-.3.208h-.824c-.18 0-.294 0-.294-.218v-3.549h-.938zm-.133-5.3c.775.359 1.485.845 2.1 1.438l.663-.785c-.652-.556-1.367-1.032-2.132-1.419zm3.2 1.76c.559 1.125.934 2.332 1.109 3.576l1.023-.265a14.24 14.24 0 0 0-1.147-3.652zm4.794 2.328h1.734a3.71 3.71 0 0 1-2.814 1.126l.407.946a4.22 4.22 0 0 0 3.468-2.072h1.886c-.028.956-.133 1.135-.483 1.126l-1.26-.047.152.975h1.486c.422.008.789-.287.872-.7a11.78 11.78 0 0 0 .171-1.4 7.8 7.8 0 0 0 1.374.6l.445-.861c-.896-.114-1.73-.516-2.378-1.145l2.216-.015v-.729h-4.946l.18-.341h3.913v-2.667h-1.417v-.378h2.27v-.785h-2.27v-.473h-.948v.473h-2.16v-.473h-.957v.473h-2.577v.785h2.577v.378h-1.715v2.668h2.255a3.41 3.41 0 0 1-.19.341h-2.928v.729h2.274a6.4 6.4 0 0 1-2.435 1.088l.436.889a9.7 9.7 0 0 0 1.364-.624zm5.448-4.542v.388h-5.268v-.388zm-3.553-.662v-.378h2.16v.378zm3.553 1.561v.454h-5.268v-.454zm-4.482 2.933a4.41 4.41 0 0 0 .824-.757h2.056c.218.288.476.543.767.757h-1.554c.045-.171.079-.345.1-.52l-.938-.057a4.42 4.42 0 0 1-.133.577zm11.791-2.668c-.261 0-.512.103-.696.288s-.289.435-.289.696a.97.97 0 0 0 .985.984.98.98 0 0 0 .985-.984c0-.261-.104-.512-.289-.696s-.435-.288-.696-.288zm8.7 4.031a9.5 9.5 0 0 0 1.857-.937l-.738-.473h2.537l-.625.483a8.24 8.24 0 0 0 2.132 1l.5-.757a8.92 8.92 0 0 1-1.844-.726h1.865v-.814h-1.6v-.672h1.372v-.78h-1.374v-.388h-.928v.388h-1.592v-.388h-.919v.388h-1.308v.785h1.308v.672h-1.564v.814h2.028a8.42 8.42 0 0 1-1.705.629zm3.155-2.9v.672h-1.593v-.672zm-6.236-3.876c.508.53.974 1.098 1.393 1.7l.786-.624a9.44 9.44 0 0 0-1.411-1.671zm2.113.227h1.98v.4h-1.828v1.249c0 .161 0 .624.692.624h1.724c.351 0 .493-.151.616-1.012l-.844-.088c-.066.369-.076.407-.341.407h-.805c-.171 0-.2-.009-.2-.17v-.4h1.83v-1.709h-2.824zm5.372.4h-1.985v1.315c0 .558.612.558.8.558h1.839c.407 0 .531-.36.606-1l-.88-.1c-.047.369-.047.407-.275.407h-1.052c-.152 0-.237-.009-.237-.18v-.388h2.047v-1.711h-2.938v.7h2.076zm-7.585 3.235h.985v2.413a4.61 4.61 0 0 1-1.128.842l.531 1.012a5.89 5.89 0 0 0 1.361-1.334 2.68 2.68 0 0 0 2.451 1.116h4.589l.227-.918h-4.538a3.27 3.27 0 0 1-1.743-.322c-.418-.203-.709-.6-.777-1.06v-2.7h-1.958zm12.257 2.592l.256-.511h4.5c-.114.993-.142 1.23-.6 1.23h-1.929l.19 1h1.886c1.08 0 1.383-.606 1.507-3.113h-5.128l.208-.483a24.56 24.56 0 0 0 4.984-.8l-.483-.8a26.87 26.87 0 0 1-4.169.8l.066-.18a19.56 19.56 0 0 0 1.63-.956h3.657v-.88h-2.463c.775-.618 1.464-1.337 2.047-2.138l-.843-.407c-.377.541-.816 1.036-1.308 1.476v-.624h-2.085v-.8h-.966v.8h-2.6v.87h2.6v.823h-3.288v.88h3.525c-1.15.616-2.36 1.113-3.61 1.485l.388.9a21.75 21.75 0 0 0 2.066-.814 9.36 9.36 0 0 1-1.033 1.9zm3.724-5.516a9.96 9.96 0 0 1-1.071.823h-.73v-.823z" class="R"/><g class="U"><g fill="none"><g stroke-width="4"><path d="M422.482 42.499H405.97a2 2 0 0 0-2.064 1.929v5.787a2 2 0 0 0 2.064 1.929h16.512a2 2 0 0 0 2.064-1.929v-5.787a2 2 0 0 0-2.064-1.929z"/><use xlink:href="#B"/><use xlink:href="#B" y="33.698"/><use xlink:href="#B" y="16.849"/></g><path d="M391.606 30.472h5.793v33.7h-5.793" stroke-width="3"/></g><path d="M404.842 47.322H389.93" stroke-width="3" class="R"/></g><g stroke="#ecebe8" class="R"><ellipse cx="423.921" cy="39.437" rx="6.317" ry="6.308" stroke="none"/><ellipse cx="423.921" cy="39.437" rx="7.317" ry="7.308" fill="none" stroke-width="2"/></g><g class="S"><path d="M419.115 39.692l4.286 3.942 4.039-7.906-4.741 5.107z"/><path d="M458.891 11.172h89.261v108.715h-89.261z" class="T"/></g><g class="R"><path d="M495.851 107.479a7.28 7.28 0 0 0 2.4-3.009c.423 1.253 1.257 2.327 2.366 3.047l.587-.842v2.015c0 .2-.133.2-.246.2h-1.326l.133 1h1.582c.235.034.472-.043.642-.207a.77.77 0 0 0 .23-.635v-6.7h-3.478v-1.331h-.995v1.334h-3.515v7.541h1v-6.585h2.476c-.116.577-.348 1.124-.682 1.608a5.28 5.28 0 0 1-1.781 1.694zm5.356-.833c-1.273-.692-2.17-1.917-2.447-3.339h2.447zm4.2-1.485a5.86 5.86 0 0 1-1.739 3.794l.606.9c.592-.512 1.059-1.153 1.365-1.874.75 1.055 1.966 1.679 3.26 1.675h3.629l.2-.956h-3.412a6.19 6.19 0 0 1-.635-.038v-1.722h2.937v-.937h-2.937v-1.376h2.937v-.62h.805v-2.186h-3.716v-.842h-1.04v.842h-3.686v2.186h.777v.62h2.949v3.8a3.24 3.24 0 0 1-1.7-1.326c.199-.58.333-1.18.4-1.789zm-.45-1.476v-.927h6.491v.927zm-2.842-39.882h2.717v6.774h-2.717zm-12.574 11.549a2.32 2.32 0 1 1-2.322-2.322 2.32 2.32 0 0 1 2.322 2.322zm16.255-.003a2.32 2.32 0 0 1-2.318 2.322h-.008a2.32 2.32 0 0 1-1.265-4.263c.375-.248.815-.381 1.265-.381h.008a2.33 2.33 0 0 1 2.318 2.322zm16.254 0a2.33 2.33 0 1 1-1.053-1.941 2.32 2.32 0 0 1 1.053 1.941z"/><rect width="20.553" height="1.967" rx=".983" x="493.197" y="63.388"/><path d="M487.002 47.195h0a1.6 1.6 0 0 1-1.62 1.573h-4.671a1.6 1.6 0 0 1-1.62-1.573h0c.013-.858.719-1.543 1.577-1.531h4.764a1.55 1.55 0 0 1 1.57 1.531z"/><g class="C"><g><path d="M484.23 48.4v12.969h-.382a1.73 1.73 0 0 1-.837-.22 2.57 2.57 0 0 1-1.227-2.295l-1.213-10.455z"/></g></g><path d="M519.98 47.19h0a1.59 1.59 0 0 0 1.615 1.568h4.653a1.59 1.59 0 0 0 1.615-1.568h0a1.55 1.55 0 0 0-1.572-1.526h-4.749c-.852-.008-1.55.674-1.562 1.526z"/><g class="C"><path d="M522.753 48.401v12.97h.374c.287-.001.57-.077.819-.22.782-.495 1.24-1.37 1.2-2.295l1.156-10.455z"/></g><path d="M500.742 23.111h5.463v2.624h-5.463zm0 26.971h5.463v4.088h-5.463z"/><rect width="29.419" height="26.054" rx="7.069" x="488.764" y="26.378"/><path d="M512.296 19.804v2.527a1.75 1.75 0 0 1-1.69 1.8h-14.247a1.75 1.75 0 0 1-1.7-1.8v-2.527a4.22 4.22 0 0 1 4.082-4.341h9.478c2.324.074 4.149 2.017 4.077 4.341z"/><g class="C"><g><path d="M524.264 58.268v.9a3.58 3.58 0 0 1-3.788 3.326H486.47a3.58 3.58 0 0 1-3.788-3.326v-.9a3.59 3.59 0 0 1 3.544-3.367 1.79 1.79 0 0 1 .311-.018h33.872c.104-.003.208.003.311.018 1.883.017 3.431 1.488 3.544 3.367z"/></g></g></g><g fill="url(#A)"><path d="M498.629 30.783h9.689c3.085.001 5.585 2.501 5.585 5.586v16.064h0-20.86 0V36.369c0-1.481.589-2.902 1.636-3.95s2.468-1.636 3.95-1.636z"/><path d="M510.033 21.363v2.773h-13.115v-2.773c-.063-1.465 1.07-2.705 2.534-2.774h8.048c1.464.07 2.596 1.31 2.533 2.774z"/><path d="M519.07 55.155v.568a3.02 3.02 0 0 1-3.061 2.972h-25.072a3.02 3.02 0 0 1-3.061-2.972v-.563l.281-.272h30.632z"/></g><g class="R"><path d="M503.265 69.02l16.254 3.87H487.01zM111.722 45.091a1.61 1.61 0 0 1-2.243 0c-.297-.289-.465-.686-.465-1.1s.168-.811.465-1.1a1.61 1.61 0 0 1 2.243 0c.297.289.464.686.464 1.1s-.167.811-.464 1.1zm2.804 2.752a1.61 1.61 0 0 1-2.244 0c-.297-.289-.464-.686-.464-1.1s.167-.811.464-1.1c.624-.609 1.62-.609 2.244 0 .297.289.464.686.464 1.1s-.167.811-.464 1.1zm2.804 2.749a1.61 1.61 0 0 1-2.243 0c-.297-.289-.465-.686-.465-1.1s.168-.811.465-1.1a1.61 1.61 0 0 1 2.243 0c.297.289.465.686.465 1.1s-.168.811-.465 1.1z"/><path d="M115.086 50.614c-.297-.289-.465-.686-.465-1.1s.168-.811.465-1.1a1.61 1.61 0 0 1 2.243 0c.297.289.464.686.464 1.1s-.167.811-.464 1.1a1.61 1.61 0 0 1-2.243 0zm-2.805 2.75c-.297-.289-.464-.686-.464-1.1s.167-.811.464-1.1a1.61 1.61 0 0 1 2.243 0c.297.289.465.686.465 1.1s-.168.811-.465 1.1c-.624.609-1.619.609-2.243 0zm-2.804 2.751c-.297-.289-.464-.686-.464-1.1s.167-.811.464-1.1a1.61 1.61 0 0 1 2.243 0c.297.289.464.686.464 1.1s-.167.811-.464 1.1a1.61 1.61 0 0 1-2.243 0z"/><use xlink:href="#C"/><use xlink:href="#C" x="-3.965"/><path d="M100.557 49.43c-.013-.645.365-1.233.957-1.489s1.28-.128 1.74.324.602 1.137.358 1.734-.825.987-1.47.987a1.57 1.57 0 0 1-1.586-1.555z"/><use xlink:href="#C" x="-11.896"/><use xlink:href="#D"/><use xlink:href="#E"/><use xlink:href="#E" x="2.669" y="2.667"/><use xlink:href="#F"/><use xlink:href="#G"/><use xlink:href="#H"/><use xlink:href="#I"/><use xlink:href="#J"/><use xlink:href="#K"/><use xlink:href="#J" x="-7.552"/><use xlink:href="#D" x="109.582"/><use xlink:href="#E" x="109.582"/><use xlink:href="#E" x="112.251" y="2.667"/><use xlink:href="#F" x="109.582"/><use xlink:href="#G" x="109.582"/><use xlink:href="#H" x="109.582"/><use xlink:href="#I" x="109.582"/><use xlink:href="#J" x="109.582"/><use xlink:href="#K" x="109.582"/><use xlink:href="#J" x="102.03"/><use xlink:href="#D" x="210.425"/><use xlink:href="#E" x="210.425"/><use xlink:href="#E" x="213.094" y="2.667"/><use xlink:href="#F" x="210.425"/><use xlink:href="#G" x="210.425"/><use xlink:href="#H" x="210.425"/><use xlink:href="#I" x="210.425"/><use xlink:href="#J" x="210.425"/><use xlink:href="#K" x="210.425"/><use xlink:href="#J" x="202.873"/><use xlink:href="#D" x="-116.518"/><use xlink:href="#E" x="-116.518"/><use xlink:href="#E" x="-113.849" y="2.667"/><use xlink:href="#F" x="-116.518"/><use xlink:href="#G" x="-116.518"/><use xlink:href="#H" x="-116.518"/><use xlink:href="#I" x="-116.518"/><use xlink:href="#J" x="-116.518"/><use xlink:href="#K" x="-116.518"/><use xlink:href="#J" x="-124.07"/></g></svg>
